<svg id="Layer_1" data-name="Layer 1" xmlns="http://www.w3.org/2000/svg" width="180.83" height="248.77" viewBox="0 0 180.83 248.77"><defs><style>.cls-1{fill:#fff;}</style></defs><g id="_000000ff" data-name="#000000ff"><path d="M53.6-166.08l.21-.06h0ZM37.12,1.87V182.51H143.71V1.87Zm90.44,6.69c.49-.81,1.58-.51,2.36-.57,2.12.18,4.27-.61,6.35,0a1,1,0,0,1,.42.28l.09.13a.41.41,0,0,1,.05.09.3.3,0,0,1,0,.1,2,2,0,0,1,.07.26c.07.4,0,.85.08,1.21,0,.79.06,1.65,0,2.46a2.83,2.83,0,0,1,0,.29,2.34,2.34,0,0,1,0,.26c0,.13-.05.25-.08.37s0,.11,0,.17a2.77,2.77,0,0,1-.45.89c-2.52,0-5,0-7.57,0h0c-.52,0-1.19-.2-1.31-.74a1.1,1.1,0,0,1,0-.32A35,35,0,0,1,127.56,8.56Zm0,18.2a.83.83,0,0,1,0-.15.8.8,0,0,1,.23-.35c.44-.37,1.29-.27,1.84-.3,2.12.12,4.26-.13,6.37.07a.88.88,0,0,1,.66.43l.06.12a.31.31,0,0,1,.05.12.88.88,0,0,1,.05.15A10,10,0,0,1,137,28.1c0,.36,0,.73,0,1.11s0,.6,0,.9a5.61,5.61,0,0,1,0,.83,2.47,2.47,0,0,1-.11.54,3.24,3.24,0,0,1-.19.52,2.15,2.15,0,0,1-.14.26c-1.48.46-3.11.11-4.65.21-1.43-.1-3,.27-4.31-.29v0l0-.22h0A31.87,31.87,0,0,1,127.53,26.76Zm0,54.77a3.33,3.33,0,0,1,.07-.75.48.48,0,0,1,.06-.18.75.75,0,0,1,.07-.12l.09-.09a.59.59,0,0,1,.28-.11,40,40,0,0,1,6.38-.16,7,7,0,0,1,2.08.22,2.31,2.31,0,0,1,.3.61,1.09,1.09,0,0,1,.07.24,1.84,1.84,0,0,1,.05.25,3.86,3.86,0,0,1,.06.49c0,.34,0,.69,0,1a9.94,9.94,0,0,1-.25,2.93v0c-.31.82-1.34.77-2.06.82-1.79,0-3.58,0-5.36,0-.64-.05-1.49-.08-1.81-.74v0A33.8,33.8,0,0,1,127.48,81.53Zm9.55-34a5,5,0,0,1-.56,2.86h0a21.73,21.73,0,0,1-5.7.19c-.9,0-1.81,0-2.7-.09a1.31,1.31,0,0,1-.33-.38.75.75,0,0,1-.1-.2,1.37,1.37,0,0,1-.13-.45,1.52,1.52,0,0,1,0-.21c0-.48,0-1,0-1.45.11-1.28-.3-2.7.49-3.83,2.07,0,4.14.12,6.21,0a5.52,5.52,0,0,1,2.39.26C137.17,45.21,137,46.42,137,47.52Zm-.13,20.21a.79.79,0,0,1-.27.56.66.66,0,0,1-.2.14,2.29,2.29,0,0,1-.37.12,2.67,2.67,0,0,1-.77.1c-2.4-.2-4.82-.07-7.23-.14L127.5,68v0c0-1.64-.11-3.28,0-4.92a1,1,0,0,1,0-.25,1.08,1.08,0,0,1,.08-.19,1.18,1.18,0,0,1,.44-.42l.07,0,.08,0a.44.44,0,0,1,.15-.05l.32-.07h.4c2.25,0,4.51,0,6.76,0a.85.85,0,0,1,.78.32,1.43,1.43,0,0,1,.14.2,1.86,1.86,0,0,1,.1.25.66.66,0,0,1,.06.2,1.06,1.06,0,0,1,0,.19.69.69,0,0,1,0,.13.62.62,0,0,1,0,.13.49.49,0,0,1,0,.12A25.6,25.6,0,0,1,136.9,67.73ZM45,62h4.75c1.21,0,2.42,0,3.63,0a2.52,2.52,0,0,1,.67,1.86c-.06,1.56.25,3.21-.37,4.7a41.15,41.15,0,0,1-4.15.18c-1.06,0-2.12,0-3.18,0-.21,0-.46-.05-.7-.08a2,2,0,0,1-.35-.06.9.9,0,0,1-.22-.06.31.31,0,0,1-.13-.06.82.82,0,0,1-.17-.11.66.66,0,0,1-.16-.17,14.91,14.91,0,0,1-.1-2.32C44.59,64.51,44.33,63.14,45,62ZM47.6,44h0c1,0,2,0,3,0h2.26a.72.72,0,0,1,.33,0,.17.17,0,0,1,.1,0h0a.18.18,0,0,1,.09,0h0l.1.07a.18.18,0,0,1,.09.07.17.17,0,0,1,.06.06s0,0,0,0a.66.66,0,0,1,.12.17,1.09,1.09,0,0,1,.14.31l0,.06a1.78,1.78,0,0,1,.07.39,25.53,25.53,0,0,1-.15,5,6.25,6.25,0,0,1-.72.17c-.22,0-.45.07-.68.09-.51.05-1,.07-1.52.07-1.06,0-2.12-.07-3.17,0H46.28a4.52,4.52,0,0,1-.53-.06,2.75,2.75,0,0,1-1-.35A24.11,24.11,0,0,1,44.62,45a.91.91,0,0,1,.45-.82,1.29,1.29,0,0,1,.44-.16A2.72,2.72,0,0,1,46,44h.27C46.71,44,47.16,44,47.6,44Zm6.48-13.08a3.23,3.23,0,0,1,0,.44.59.59,0,0,0,0,.14,2,2,0,0,1-.07.26,1.39,1.39,0,0,1-.2.36.4.4,0,0,1-.13.13.35.35,0,0,1-.12.07l0,0h0l-.06,0a.07.07,0,0,1-.06,0,.81.81,0,0,1-.22,0c-2.25.11-4.5,0-6.75.05h-.22a3.43,3.43,0,0,1-.91-.09.68.68,0,0,1-.2-.07.85.85,0,0,1-.32-.33,21.87,21.87,0,0,1-.16-4.13,3.92,3.92,0,0,1,0-.59c0-.12,0-.25.06-.36l.06-.2a.91.91,0,0,1,.07-.14.05.05,0,0,1,0,0,.36.36,0,0,1,.07-.1s0,0,0,0a.35.35,0,0,1,.1-.11.44.44,0,0,1,.18-.14A.85.85,0,0,1,45.4,26a47.68,47.68,0,0,1,5.21-.09,7.75,7.75,0,0,1,3.29.29h0A24.56,24.56,0,0,1,54.08,30.94ZM44.65,8.61a.75.75,0,0,1,.07-.12.76.76,0,0,1,.08-.11l0,0A.8.8,0,0,1,45,8.19l.08,0a1,1,0,0,1,.21-.09A1.21,1.21,0,0,1,45.63,8a5.33,5.33,0,0,1,.56,0c.26,0,.53,0,.76,0,.89,0,1.78,0,2.68,0s1.88,0,2.81,0l.72,0,.27,0,.34,0h0a2,2,0,0,1,.09.26.86.86,0,0,1,.07.21,2.84,2.84,0,0,1,.06.31,2.57,2.57,0,0,1,.06.4c.08.74,0,1.51,0,2.25,0,.25,0,.5,0,.75a6.44,6.44,0,0,1,0,.76,2,2,0,0,1,0,.34s0,0,0,0a1.89,1.89,0,0,1-.1.36,1.83,1.83,0,0,1-.14.32,2.1,2.1,0,0,1-.22.33c-1.35.12-2.71.1-4.06.09-.94,0-1.88,0-2.82,0a6.93,6.93,0,0,1-.79,0l-.25,0a1.06,1.06,0,0,1-.35-.09l-.16-.07L45,14.22l0,0a.52.52,0,0,1-.11-.1.93.93,0,0,1-.21-.46h0A25.52,25.52,0,0,1,44.65,8.61Zm9.13,167.81c-1.19.72-2.68.46-4,.52-1.74-.1-3.65.33-5.21-.64,0-1.86,0-3.71,0-5.57,1.21-.84,2.73-.5,4.1-.56a27.12,27.12,0,0,1,4.6.16c.88.26.82,1.32.84,2C54,173.72,54.28,175.14,53.78,176.42Zm.31-19.77a2.9,2.9,0,0,1-.47,1.89,9.53,9.53,0,0,1-2.72.21h-1c-1.1,0-2.2,0-3.3,0-.35,0-.69,0-1-.06-.75,0-1-.83-1-1.48,0-1.62-.24-3.32.31-4.89l1-.09c.68,0,1.37,0,2.06,0h1.23a37.54,37.54,0,0,1,4.11.1h0c.19,0,.39.06.59.1h0A28.27,28.27,0,0,1,54.09,156.65Zm0-17.71c-.07.51.09,1.29-.54,1.51l-.3.1-.15,0a3.21,3.21,0,0,1-.61.09h-.25c-.63,0-1.27,0-1.89,0-1.93-.08-3.94.36-5.79-.35a48.57,48.57,0,0,1,.12-5.66c.55-.64,1.53-.51,2.29-.6a54,54,0,0,1,6.73.17C54.33,135.7,54,137.36,54.08,138.94ZM44.6,117.25a1.48,1.48,0,0,1,0-.21.77.77,0,0,1,0-.15.06.06,0,0,1,0,0,.57.57,0,0,1,0-.14.61.61,0,0,1,0-.12,1,1,0,0,1,.11-.17.61.61,0,0,1,.26-.18.53.53,0,0,1,.22,0c1.24-.06,2.48,0,3.72,0h.65l.89,0q.59,0,1.17-.06a7,7,0,0,1,1.35.08l.17,0a1,1,0,0,1,.52.32.57.57,0,0,1,.12.18.77.77,0,0,1,.1.28,36.77,36.77,0,0,1,.07,3.93,2.94,2.94,0,0,1-.16,1.06l-.08.15a.71.71,0,0,1-.1.14.91.91,0,0,1-.39.27,5,5,0,0,1-.67.13c-.51,0-1,0-1.55,0H48.77c-.83,0-1.66,0-2.49,0H46c-.43,0-.87-.08-1.3-.15A44.15,44.15,0,0,1,44.6,117.25Zm9.11-12.71c-2.44.18-4.88.09-7.32.11-.58-.08-1.4.07-1.74-.53a45.32,45.32,0,0,1-.09-5.34l.8-.78c2.48,0,5,0,7.45,0a1.33,1.33,0,0,1,1.26,1.51C54,101.2,54.34,103,53.71,104.54Zm0-18c-2.34.24-4.7.1-7,.14A3.07,3.07,0,0,1,44.55,86a51.6,51.6,0,0,1,.1-5.42c.5-.75,1.51-.66,2.3-.68,1.87,0,3.75,0,5.62,0,.63,0,1.48.24,1.47,1C54.06,82.84,54.32,84.78,53.72,86.57ZM122,180.46c-21.13.1-42.26,0-63.39,0,0-4.67,0-9.34,0-14q0-16.87,0-33.75c.16-5.9,0-11.81,0-17.72.14-4,0-8.06,0-12.09,0-2.41.11-4.82,0-7.23.82,0,1.64-.08,2.46-.09h50.34c3.53,0,7.06-.09,10.59.09Q121.93,138.09,122,180.46Zm0-90q-31.69.12-63.39,0c0-5.7-.13-11.4,0-17.11-.11-16.78,0-33.56,0-50.35,0-5.79,0-11.59,0-17.38,4.09-.23,8.19-.26,12.29-.23,7.31-.08,14.61.37,21.92,0,7.51,0,15-.13,22.51.14,2.23,0,4.45-.08,6.66.09Q121.93,48.08,122,90.47ZM137,174c0,.14,0,.27,0,.41s0,.21,0,.31a3.89,3.89,0,0,1-.47,1.77h0a7.64,7.64,0,0,1-2.78.33l-5-.09a1.41,1.41,0,0,1-.82-.2.36.36,0,0,1-.15-.11.83.83,0,0,1-.21-.28.66.66,0,0,1-.06-.2,24.26,24.26,0,0,1,0-4.82,1,1,0,0,1,.28-.5c.49-.5,1.41-.42,2.09-.42,2,.07,4.07-.13,6.09.11a1.12,1.12,0,0,1,.69.49,1,1,0,0,1,.1.18.78.78,0,0,1,0,.14,1,1,0,0,1,.07.25,2.43,2.43,0,0,1,.08.54c0,.28,0,.55,0,.79C137,173.1,137,173.54,137,174Zm0-17.32a5.2,5.2,0,0,1-.21,1.31,3.37,3.37,0,0,1-.23.6c-2,.41-4.06.12-6.09.22-.81-.05-1.82.15-2.51-.32a1.68,1.68,0,0,1-.37-.34,27.59,27.59,0,0,1-.09-5.3l.55-.54c2.58-.06,5.17-.07,7.75,0a.86.86,0,0,1,.75.27.29.29,0,0,1,.09.11,1.08,1.08,0,0,1,.14.26h0a.88.88,0,0,1,0,.15,1.38,1.38,0,0,1,.08.29l0,.2a3.65,3.65,0,0,1,0,.55c0,.74.05,1.52,0,2.28A2.44,2.44,0,0,1,137,156.65Zm-.24-16.77a1.16,1.16,0,0,1-.1.28h0a.83.83,0,0,1-.37.35,3,3,0,0,1-1.34.27c-1.87,0-3.74,0-5.61,0-.67,0-1.57-.12-1.8-.87v0a31.26,31.26,0,0,1-.11-4.11c0-.39,0-1,.24-1.28a.46.46,0,0,1,.07-.07.33.33,0,0,1,.2-.11l.12,0a38.57,38.57,0,0,1,5.79-.21,5.85,5.85,0,0,1,2.88.48A13.09,13.09,0,0,1,136.78,139.88Zm.08-17.94v0a.67.67,0,0,1-.09.21.65.65,0,0,1-.15.18.57.57,0,0,1-.18.12.85.85,0,0,1-.22.09.9.9,0,0,1-.22.06h0a6.4,6.4,0,0,1-.7.09c-2.07,0-4.15,0-6.22,0a1.64,1.64,0,0,1-.38,0,1.31,1.31,0,0,1-.47-.12,1,1,0,0,1-.55-.42.7.7,0,0,1-.11-.21.85.85,0,0,1,0-.24c-.13-1.75,0-3.51,0-5.27a9.61,9.61,0,0,1,4.13-.3c1.49.17,3-.14,4.47,0a.86.86,0,0,1,.75.62,2.72,2.72,0,0,1,.13.51,5,5,0,0,1,0,.51A19.63,19.63,0,0,1,136.86,121.94Zm-.08-17.51h0c-2,.47-4,.12-6,.23-1.05-.08-2.33.24-3.18-.53v0c-.35-1.78,0-3.61-.12-5.42a3.43,3.43,0,0,1,2.16-.61,63.23,63.23,0,0,1,7,.18A14.54,14.54,0,0,1,136.78,104.43Z"/></g><path class="cls-1" d="M44.56,176.3c0-1.86,0-3.71,0-5.57,1.21-.84,2.73-.5,4.1-.56a27.27,27.27,0,0,1,4.61.16c.87.26.81,1.32.83,2-.06,1.35.2,2.76-.31,4.05-1.19.71-2.68.45-4,.51C48,176.84,46.12,177.27,44.56,176.3Z"/><path class="cls-1" d="M44.55,140.3a48.57,48.57,0,0,1,.12-5.66c.55-.64,1.53-.51,2.3-.6a55.86,55.86,0,0,1,6.72.17c.64,1.5.34,3.15.39,4.73-.06.51.09,1.29-.53,1.51a8.86,8.86,0,0,1-3.21.2C48.41,140.57,46.41,141,44.55,140.3Z"/><path class="cls-1" d="M44.66,104.12a45.29,45.29,0,0,1-.1-5.34l.8-.78c2.49,0,5,0,7.45,0a1.33,1.33,0,0,1,1.26,1.51c0,1.67.27,3.42-.36,5-2.44.18-4.88.09-7.32.11C45.81,104.57,45,104.72,44.66,104.12Z"/><path class="cls-1" d="M44.55,86.05a48.93,48.93,0,0,1,.11-5.42c.49-.76,1.5-.67,2.29-.69,1.87,0,3.75,0,5.62,0,.64,0,1.48.24,1.47,1,0,1.85.29,3.79-.31,5.58-2.35.24-4.7.1-7,.14a3,3,0,0,1-2.13-.66Z"/><path class="cls-1" d="M44.66,68.11a13.77,13.77,0,0,1-.11-2.32c0-1.28-.22-2.66.48-3.83,2.8,0,5.59,0,8.38,0a2.56,2.56,0,0,1,.68,1.87c-.07,1.56.24,3.21-.38,4.7a61.68,61.68,0,0,1-7.32.14c-.58-.12-1.35,0-1.73-.54Z"/><path class="cls-1" d="M44.63,13.63a25.52,25.52,0,0,1,0-5C45.06,7.73,46.17,8,47,8c2.27.09,4.56-.14,6.82.12a9.2,9.2,0,0,1,.32,3.43c0,1,.12,2.1-.55,2.91-2.28.2-4.58,0-6.87.09-.73,0-1.87.07-2-.87Z"/><path class="cls-1" d="M45.57,158.69c-.75,0-1-.83-1-1.47,0-1.63-.24-3.33.31-4.9a36.48,36.48,0,0,1,4.31-.09,24.7,24.7,0,0,1,4.71.2,28.27,28.27,0,0,1,.17,4.22,2.93,2.93,0,0,1-.47,1.9,9.53,9.53,0,0,1-2.72.21C49.12,158.7,47.34,158.85,45.57,158.69Z"/><path class="cls-1" d="M44.7,122.53a46.39,46.39,0,0,1-.1-5.27c0-.46.15-1.07.72-1,2.14-.11,4.29,0,6.43-.12.79,0,2.06-.11,2.26.91a36.77,36.77,0,0,1,.07,3.93c0,.6-.08,1.39-.73,1.63a9.57,9.57,0,0,1-2.45.15,51.25,51.25,0,0,1-6.2-.19Z"/><path class="cls-1" d="M44.77,50.22A24.11,24.11,0,0,1,44.62,45c0-.89,1-1.09,1.66-1,2.2.13,4.4,0,6.6,0,.74-.11,1.13.64,1.16,1.26a26.32,26.32,0,0,1-.14,5c-2,.57-4.06.19-6.1.35a5.77,5.77,0,0,1-3-.42Z"/><path class="cls-1" d="M44.74,32a22,22,0,0,1-.16-4.14c0-.66,0-1.61.83-1.78a47.45,47.45,0,0,1,5.2-.09,7.75,7.75,0,0,1,3.29.29,24.56,24.56,0,0,1,.18,4.7c0,.62-.12,1.53-.94,1.47-2.25.11-4.5,0-6.75.05-.56-.07-1.33.08-1.65-.51Z"/><path class="cls-1" d="M127.55,175.92a24.26,24.26,0,0,1,0-4.82c.27-1.06,1.53-.94,2.37-.94,2,.08,4.08-.12,6.09.12,1,.26,1,1.53,1,2.38-.06,1.26.17,2.67-.49,3.8a8.19,8.19,0,0,1-2.79.33l-5-.09A1.13,1.13,0,0,1,127.55,175.92Z"/><path class="cls-1" d="M127.61,158.12a28.63,28.63,0,0,1-.09-5.32l.55-.54c2.58-.06,5.17-.06,7.76,0,1-.09,1.16,1.11,1.17,1.86,0,1.47.25,3.07-.42,4.44-2,.41-4.06.12-6.09.22C129.53,158.7,128.29,159,127.61,158.12Z"/><path class="cls-1" d="M127.57,139.92a29.62,29.62,0,0,1-.12-4.11c0-.52-.08-1.39.63-1.5a37.29,37.29,0,0,1,5.79-.21,5.64,5.64,0,0,1,2.88.48,13.32,13.32,0,0,1,0,5.3c-.19.83-1.14.86-1.81.89-1.87,0-3.75,0-5.62,0C128.69,140.8,127.8,140.67,127.57,139.92Z"/><path class="cls-1" d="M129.07,122.7c-.64,0-1.5-.25-1.56-1-.13-1.76,0-3.52,0-5.29a9.45,9.45,0,0,1,4.13-.29c1.49.16,3-.15,4.47,0,.81.06.89,1,.92,1.65a19.63,19.63,0,0,1-.14,4.13c-.17.7-1,.7-1.57.75C133.22,122.73,131.14,122.71,129.07,122.7Z"/><path class="cls-1" d="M127.6,104.12a37.78,37.78,0,0,1-.12-5.43,3.44,3.44,0,0,1,2.16-.62,60.9,60.9,0,0,1,7,.19,14.59,14.59,0,0,1,.12,6.17c-2,.46-4,.11-6,.23C129.73,104.57,128.45,104.89,127.6,104.12Z"/><path class="cls-1" d="M127.55,85.92a33.8,33.8,0,0,1-.07-4.39c0-.45,0-1.18.58-1.27a39.82,39.82,0,0,1,6.37-.15,6.88,6.88,0,0,1,2.08.21A4.74,4.74,0,0,1,137,83a9.94,9.94,0,0,1-.25,2.93c-.31.82-1.34.78-2.06.82-1.79,0-3.58,0-5.36,0-.64,0-1.48-.07-1.81-.74Z"/><path class="cls-1" d="M127.5,68c0-1.64-.11-3.28,0-4.92,0-.81.9-1.12,1.58-1.06h6.75c.84-.09,1.15.9,1.16,1.57a24.45,24.45,0,0,1-.09,4.19c-.05.79-1,.9-1.61.9-2.4-.2-4.82-.06-7.23-.14L127.5,68Z"/><path class="cls-1" d="M128.07,50.47c-.81-.62-.56-1.78-.61-2.67.1-1.28-.31-2.71.48-3.84,2.07,0,4.15.11,6.22,0a5.49,5.49,0,0,1,2.38.26c.64,1,.44,2.19.49,3.29s.07,2-.56,2.86a21.73,21.73,0,0,1-5.7.18c-.9,0-1.8,0-2.7-.1Z"/><path class="cls-1" d="M127.55,31.93a30.78,30.78,0,0,1,0-5.17c.15-1,1.39-.78,2.11-.82,2.12.12,4.26-.13,6.37.07,1,.13.88,1.36,1,2.09,0,1.36.33,2.92-.44,4.14-1.48.47-3.11.11-4.65.21-1.43-.1-3,.27-4.31-.29l0-.22Z"/><path class="cls-1" d="M128.82,14.49c-.61,0-1.41-.29-1.32-1a33.79,33.79,0,0,1,.06-4.93c.49-.81,1.58-.51,2.36-.57,2.12.18,4.27-.61,6.35,0,.87.28.68,1.38.75,2.09-.08,1.48.33,3.14-.63,4.41-2.52,0-5,0-7.57,0Z"/><path d="M21.54,222.37V228c0,6.72-3.36,10.56-9.84,10.56S1.86,234.67,1.86,228V206.11c0-6.72,3.36-10.56,9.84-10.56s9.84,3.84,9.84,10.56v4.08H15.3v-4.5c0-3-1.32-4.14-3.42-4.14s-3.42,1.14-3.42,4.14v22.68c0,3,1.32,4.08,3.42,4.08s3.42-1.08,3.42-4.08v-6Z"/><path d="M25.56,196h6.6v42h-6.6Z"/><path d="M42.84,207.61V238H36.9V196h8.28L52,221.17V196h5.88v42H51.06Z"/><path d="M69.18,213.73h9.06v6H69.18V232h11.4v6h-18V196h18v6H69.18Zm9.42-26.58-6.12,6.66H68l4.08-6.66Z"/><path d="M91.26,214.69h8.52v6H91.26V238h-6.6V196h17.46v6H91.26Z"/><path d="M105.3,196h6.6v42h-6.6Z"/><path d="M116.7,196h6.6v36h10.86v6H116.7Z"/><path d="M136.5,206.11c0-6.72,3.54-10.56,10-10.56s10,3.84,10,10.56V228c0,6.72-3.53,10.56-10,10.56s-10-3.84-10-10.56Zm6.6,22.26c0,3,1.32,4.14,3.42,4.14s3.42-1.14,3.42-4.14V205.69c0-3-1.32-4.14-3.42-4.14s-3.42,1.14-3.42,4.14Z"/><path d="M169.68,195.55c6.41,0,9.71,3.84,9.71,10.56v1.32h-6.24v-1.74c0-3-1.19-4.14-3.3-4.14s-3.29,1.14-3.29,4.14c0,8.64,12.89,10.26,12.89,22.26,0,6.72-3.36,10.56-9.83,10.56s-9.84-3.84-9.84-10.56v-2.58H166v3c0,3,1.31,4.08,3.42,4.08s3.41-1.08,3.41-4.08c0-8.64-12.89-10.26-12.89-22.26C160,199.39,163.26,195.55,169.68,195.55Z"/></svg>