<?xml version="1.0" encoding="utf-8"?>
<!-- Generator: Adobe Illustrator 26.0.2, SVG Export Plug-In . SVG Version: 6.00 Build 0)  -->
<svg version="1.1" id="Layer_1" xmlns="http://www.w3.org/2000/svg" xmlns:xlink="http://www.w3.org/1999/xlink" x="0px" y="0px"
	 viewBox="0 0 316.5 209.8" style="enable-background:new 0 0 316.5 209.8;" xml:space="preserve">
<style type="text/css">
	.st0{fill:none;}
	.st1{fill:#FFFFFF;}
	.st2{fill:#8A162D;}
</style>
<rect y="130.4" class="st0" width="316.5" height="79.4"/>
<path class="st1" d="M48.7,189.5c1.7,0.2,3.5-0.1,5.1-0.8c1.7-0.8,3.2-1.9,4.4-3.2c1.2-1.3,2.6-2.4,4.1-3.2c0.7-0.5,1.6-0.6,2.4-0.4
	c0.8,0.3,1.5,0.8,2,1.4c1.2,1.2,1.3,3.1,0.3,4.4c-1.8,2.3-3.9,4.4-6.3,6c-2.6,1.6-5.5,2.6-8.6,2.9c-2.2,0.3-4.4,0.4-6.6,0.3
	c-2.2-0.1-4.4-0.6-6.3-1.5c-5.5-2.2-9.7-6.8-11.3-12.5c-1.2-4.2-1.8-8.5-1.7-12.8c0.1-4.4,1.4-8.6,3.6-12.3c1.9-3.3,4.4-6.3,7.4-8.7
	c3.1-2.4,6.9-3.9,10.8-4.2c3-0.4,6,0,8.8,1c2.7,1.1,5.2,2.7,7.2,4.7c1.3,1.1,1.6,3,0.6,4.4c-0.8,1.6-2.6,2.3-4.3,1.7l-1.8-0.7
	c-0.6-0.3-1.1-0.5-1.7-0.9c-2.3-1.6-5.1-2.4-7.9-2.3c-2.8,0.3-5.5,1.4-7.7,3.1c-1.8,1.3-3.3,3-4.3,5c-1.1,2.1-1.9,4.4-2.3,6.8
	c-0.4,2.5-0.5,4.9-0.2,7.4c0.2,2.4,0.9,4.8,1.9,7c0.9,2,2.2,3.9,3.9,5.3c0.6,0.5,1.2,0.9,1.9,1.3c0.8,0.4,1.6,0.6,2.4,0.6
	C45.6,189.4,47,189.5,48.7,189.5z M28.7,176.6c0.6,4.1,2.1,8,4.5,11.5c2.2,3.2,5.5,5.5,9.3,6.5c2.1,0.6,4.3,0.8,6.5,0.5
	c2.1-0.3,4.2-0.7,6.3-1.1c2-0.4,3.9-1.2,5.5-2.5c1.6-1.2,3-2.6,4.1-4.2c0.4-0.5,0.6-1.1,0.7-1.7s-0.3-1.3-0.8-1.5
	c-0.6-0.5-1.2-0.7-1.7-0.5c-0.5,0.3-1,0.6-1.5,1c-0.3,0.3-0.7,0.6-1,0.9s-0.6,0.6-0.8,1c-1.1,1.3-2.4,2.3-3.9,3s-3.1,1.2-4.7,1.5
	c-4.2,0.7-7.6,0.4-10.3-1s-4.8-4-6.4-7.7c-0.9-2.2-1.5-4.6-1.8-7c-0.2-2.4-0.3-4.8-0.2-7.2c0.1-3.4,1.3-6.6,3.4-9.2
	c2.3-2.8,5.2-5,8.4-6.6c1.6-0.7,3.3-1.1,5-1.1c1.9,0,3.7,0.2,5.5,0.7c1.5,0.4,2.9,1,4.1,1.9l0.8,0.6c0.3,0.2,0.6,0.4,0.9,0.4
	c0.3,0.1,0.7,0.1,1,0.2c0.3,0.1,0.6,0,0.8-0.2c0.4-0.6,0.6-1.3,0.3-2c-0.1-0.3-0.2-0.6-0.4-0.8c-0.2-0.3-0.4-0.5-0.7-0.7
	c-1.9-1.6-4.1-2.9-6.4-3.8c-2.4-0.8-4.9-1-7.4-0.5c-3.9,0.5-7.5,2.1-10.5,4.6c-2.9,2.4-5.2,5.3-7,8.6c-0.6,1.4-1.1,2.9-1.3,4.4
	c-0.4,2-0.6,4-0.6,6C28.3,172.7,28.4,174.7,28.7,176.6L28.7,176.6z"/>
<path class="st1" d="M75.5,166.2c0.1-1.2,0.6-2.4,1.5-3.3c0.8-0.6,1.8-0.8,2.8-0.7c1.2,0.1,2.3,0.7,3,1.6c0.7,1.1,1.1,2.3,1,3.6
	c0,2.7,0,5.5,0,8.2s0,5.5,0,8.2c0,1.6-0.1,3.2-0.2,4.7s-0.2,3.1-0.3,4.7c0,1.1-0.5,2.2-1.4,3c-0.8,0.8-1.8,1.3-2.9,1.4
	c-1,0.2-2.1-0.2-2.8-1c-0.5-0.8-0.9-1.7-1.1-2.6c-0.2-0.8-0.3-1.7-0.4-2.5c-0.1-0.9-0.1-1.7-0.1-2.6c0-1.4-0.1-2.8-0.1-4.2v-4.2
	c0-2.1,0.1-3.9,0.2-5.4s0.2-3.2,0.3-4.8S75.4,167.4,75.5,166.2z M74.9,146c0-1.5,0.5-2.9,1.5-4c0.8-1,2.1-1.6,3.4-1.6
	c0.9,0,1.7,0.3,2.4,0.8c0.8,0.5,1.5,1.1,2,1.9c0.5,0.7,0.8,1.5,0.8,2.4c0,1-0.3,1.9-0.8,2.7s-1.3,1.6-2.1,2.1
	c-0.8,0.5-1.7,0.8-2.7,0.9c-1.2,0-2.4-0.5-3.1-1.4C75.3,148.6,74.9,147.3,74.9,146z M81.6,171v-2.3c0-0.8,0-1.5-0.1-2.3
	c-0.1-0.3-0.3-0.7-0.5-0.9c-0.2-0.3-0.5-0.5-0.9-0.5c-0.2-0.1-0.5-0.2-0.7-0.2c-0.4-0.1-0.8-0.1-1.2,0c-0.5,0.1-0.9,0.5-1.1,1
	c-0.3,0.9-0.5,1.9-0.4,2.8c0,2.4,0.1,4.7,0.1,7s0,4.7-0.1,7.1c0,1.6-0.1,3.3-0.1,5.1s0,3.6,0.2,5.1c0,0.5,0.1,1,0.1,1.6
	c0,0.5,0.2,1.1,0.5,1.5c0.4,0.5,1,0.7,1.6,0.5c0.6,0,1.1-0.2,1.5-0.7c0.3-0.5,0.5-1,0.5-1.5c0.1-0.5,0.1-1,0.1-1.6v-5
	c0-1.9,0.1-3.8,0.1-5.8s0.1-3.7,0.1-5.4s0-3,0.1-4C81.4,172,81.5,171.5,81.6,171L81.6,171z M76.7,146c0,2.3,0.8,3.4,2.4,3.5
	c1,0.1,2-0.3,2.7-1.1c0.8-0.7,1.2-1.7,1.2-2.7c0-0.9-0.4-1.8-1-2.5s-1.4-1.1-2.3-1.1c-0.8-0.1-1.7,0.3-2.1,1
	C77,144,76.7,145,76.7,146z"/>
<path class="st1" d="M95.7,191.3c0,0.8,0,1.6-0.1,2.3c0.1,1.1-0.4,2.1-1.2,2.8c-0.7,0.6-1.6,0.9-2.5,0.8s-1.7-0.5-2.2-1.2
	c-0.6-0.7-0.9-1.7-0.8-2.7c0.1-2.1,0.2-4.3,0.3-6.5s0.2-4.3,0.3-6.5c0.2-2.7,0.4-5.4,0.6-8.1s0.4-5.5,0.6-8.1c0-0.7,0.1-1.4,0.2-2.1
	c0.1-0.7,0.6-1.3,1.2-1.7c0.6-0.3,1.3-0.4,2-0.4s1.4,0.2,2.1,0.6c0.6,0.2,0.9,0.8,0.9,1.4c0.1,1.1,0.1,2.3,0,3.4
	c-0.1,1.1-0.2,2.3-0.2,3.4c-0.1,0.6-0.1,1.2-0.1,1.7s-0.1,1.1-0.1,1.6c-0.1,0.9-0.2,1.5-0.2,2s0,0.6,0.3,0.6c0.7-0.2,1.4-0.5,2-0.8
	c1.7-0.9,3.7-1.4,5.7-1.4c1.9,0,3.7,0.1,5.5,0.5c2.1,0.3,4,1.4,5.4,3.1c1.3,1.7,2.1,3.8,2.5,5.9c0.4,2,0.6,3.9,0.7,5.9s0.1,4,0.2,6
	c0,0.3,0,0.6-0.1,0.9s-0.2,0.6-0.4,0.9c-0.2,0.7-0.8,1.3-1.5,1.5s-1.4,0.3-2.1,0.2c-0.6,0-1.1-0.3-1.5-0.8c-0.3-0.4-0.4-0.9-0.4-1.4
	c0-1.6,0-3.1,0.1-4.6s0.1-3.1,0-4.6c0-3.9-1.9-6.2-5.8-6.9c-0.9-0.1-1.8-0.2-2.7-0.2c-0.9,0-1.9,0-2.8,0.2c-1.8,0.2-3.4,1.1-4.5,2.5
	c-1,1.5-1.4,3.3-1.3,5.1c0,0.5,0,1.3,0.1,2.5C95.6,189.8,95.6,190.5,95.7,191.3z M96.8,176.4c-0.4,0.2-0.9,0.1-1.3-0.1
	c-0.4-0.2-0.6-0.6-0.6-1.1v-1c0-0.3,0-0.7,0.1-1c0.1-1.7,0.2-3.5,0.3-5.2s0.2-3.4,0.2-5.1c0-0.4-0.2-0.8-0.5-1.1
	c-0.3-0.4-0.7-0.6-1.1-0.7c-0.4,0-0.8,0.2-1,0.5c-0.3,0.3-0.5,0.7-0.6,1.1c-0.2,0.5-0.3,0.9-0.3,1.4v1.5c-0.2,3.7-0.4,7.3-0.6,10.9
	c-0.2,3.6-0.3,7.2-0.5,10.9c0,1.2-0.1,2.4-0.1,3.6s0,2.4,0,3.5c0.1,0.4,0.2,0.7,0.5,1.1c0.2,0.4,0.6,0.6,1,0.6c1,0,1.6-0.9,1.7-2.6
	s0.1-3.2,0.1-4.8c0-1.6,0.1-3.2,0.3-4.8c0.2-1.9,1-3.7,2.4-5.1c1.5-1.2,3.4-1.9,5.3-2c1.4-0.1,2.9-0.1,4.3,0c2.1,0,4.1,0.7,5.7,2
	c1.4,1.5,2.2,3.4,2.3,5.4c0.1,1,0.1,2,0.1,3s-0.1,2-0.1,3c0,0.5-0.1,1-0.1,1.5c-0.1,0.7-0.2,1.3-0.2,2c0,0.6,0,1.2,0.2,1.8
	c0.1,0.5,0.5,0.8,1,0.8c1.2,0,1.8-0.7,1.8-2v-5c0-1.7,0-3.4-0.1-5.1c-0.1-1.6-0.5-3.2-1.2-4.7s-1.8-2.9-3.2-3.8
	c-1.4-1-2.9-1.6-4.6-1.7c-1.7-0.1-3.5-0.1-5.2,0.2c-1,0.1-2,0.4-2.9,0.8C98.6,175.5,97.7,176,96.8,176.4z"/>
<path class="st2" d="M128.7,174.9c0.1,8.2,5.6,11.5,11.8,11.5c3.3,0.1,6.5-0.5,9.6-1.7l1.1,4.3c-3.7,1.4-7.6,2.1-11.5,2
	c-10.6,0-17-6.7-17-16.7s6.1-17.9,16.2-17.9c11.3,0,14.3,9.5,14.3,15.6c0,0.9-0.1,1.9-0.2,2.8L128.7,174.9z M147.1,170.6
	c0.1-3.8-1.6-9.8-8.7-9.8c-6.4,0-9.1,5.6-9.6,9.8H147.1z M148.6,142.9l-8.7,9.8h-4.5l6.3-9.8H148.6z"/>
<path class="st1" d="M170.1,144.3c0.7-0.4,1.4-0.6,2.2-0.7c1-0.2,2-0.2,3-0.1c1,0.1,2,0.2,3,0.6c0.8,0.2,1.5,0.7,2,1.4
	c0.6,0.7,0.9,1.6,1.1,2.5c0.2,0.8,0.1,1.7-0.2,2.5s-1,1.3-1.8,1.5c-0.5,0.1-1.2,0.3-2.1,0.5c-0.8,0.2-1.6,0.4-2.3,0.8
	c-0.6,0.2-1,0.7-1,1.3v14.9c0,0.3,0.1,0.6,0.4,0.8c0.5,0.3,1.1,0.4,1.6,0.3c2.2,0,4.2,0,6,0.1s3.6,0.1,5.6,0.1
	c0.8,0,1.6,0.2,2.3,0.6c0.7,0.5,1,1.2,1,2c0.1,0.9,0,1.8-0.2,2.6c-0.2,0.9-1,1.5-1.9,1.4c-1.6,0-3.2,0-4.9-0.1l-5-0.3
	c-1.2-0.1-2.4-0.1-3.6,0c-0.9,0.1-1.8,0.6-2.4,1.4c-0.7,1.2-1,2.5-1,3.8c0,1.6-0.1,3-0.2,4.4s-0.2,2.9-0.3,4.4
	c0,0.7-0.1,1.4-0.2,2.2c-0.1,0.7-0.2,1.4-0.4,2.1c-0.2,0.9-0.8,1.6-1.6,2c-0.9,0.4-1.8,0.5-2.8,0.5c-0.8,0-1.6-0.3-2.2-0.9
	c-0.5-0.6-0.8-1.3-0.8-2c0-0.9-0.1-1.9,0-2.8s0.1-1.9,0.1-2.8c0.1-1.7,0.3-3.4,0.5-5s0.4-3.3,0.6-5c0.1-0.7-0.1-1.4-0.8-1.9
	c-0.7-0.4-1.4-0.7-2.2-0.7c-0.9-0.1-1.8-0.3-2.6-0.6c-0.8-0.4-1.3-1.3-1.3-2.2s0.3-1.9,1-2.5c0.8-0.8,1.8-1.2,2.9-1.2h2.6
	c0.5,0,0.9-0.2,1.1-0.6c0.2-0.8,0.3-1.5,0.3-2.3c0.1-3,0.2-5.9,0.4-8.9s0.4-5.9,0.5-8.8c0-1.1,0.4-2.1,1.1-2.9
	C168.3,145.5,169.1,144.8,170.1,144.3z M172.2,154.3c0-1.1,0.4-2.1,1.2-2.8c0.7-0.5,1.6-0.9,2.5-1s1.8-0.3,2.5-0.4s1.1-0.4,1.1-0.9
	c0.3-1.4-0.3-2.9-1.6-3.6c-1.3-0.7-3.1-0.8-5.5-0.4c-1,0.2-1.9,0.7-2.6,1.5c-0.7,0.7-1.2,1.7-1.2,2.7c-0.1,2.9-0.2,5.8-0.4,8.8
	s-0.3,5.9-0.4,8.8c0,1-0.1,2-0.4,3c-0.2,0.6-0.8,1.1-1.4,1.2c-1.1,0.2-2.1,0.2-3.2,0.1c-0.7-0.1-1.4,0-2,0.2c-0.6,0.3-1,1-1,1.7
	c0,0.9,0.2,1.4,0.9,1.5c0.6,0.2,1.3,0.3,1.9,0.3c1,0,1.9,0.1,2.9,0.2c0.6,0.1,1,0.5,1.2,1.1c0.2,0.9,0.2,1.7,0,2.6
	c-0.2,2.5-0.4,4.9-0.6,7.4s-0.4,4.9-0.6,7.3c-0.1,0.5,0.1,1.1,0.3,1.6c0.4,0.5,0.9,0.8,1.5,0.8c0.6,0.1,1.1-0.1,1.5-0.6
	c0.3-0.5,0.5-1.1,0.6-1.8c0.1-0.7,0.2-1.4,0.2-2.1V190c0.1-1.7,0.2-3.4,0.2-5.1s0.2-3.3,0.4-5c0.1-1.6,0.8-3,2-4
	c1.3-0.8,2.9-1.1,4.4-1c1.5,0,2.9,0.1,4.4,0.3c1.4,0.2,2.8,0.3,4.3,0.3c1.2,0.1,2.4,0,3.6-0.3c0.6-0.2,0.8-1,0.7-2.1
	c0-0.3-0.2-0.6-0.4-0.9c-0.2-0.1-0.5-0.3-0.7-0.3c-0.4-0.1-0.8-0.1-1.2-0.1s-0.8,0-1.2-0.1c-1.9,0-3.9,0-5.9-0.1l-5.9-0.2
	c-1.6,0-2.3-0.8-2.2-2.2c0-0.5,0-1.4,0.1-2.7s0.1-2.8,0.1-4.4s0.1-3.2,0.1-4.6S172.2,155.1,172.2,154.3L172.2,154.3z"/>
<path class="st1" d="M200.7,166.2c0.1-1.2,0.6-2.4,1.5-3.3c0.8-0.6,1.8-0.8,2.8-0.7c1.2,0.1,2.3,0.7,3,1.6c0.7,1.1,1.1,2.3,1,3.6
	c0,2.7,0,5.5,0,8.2c0,2.8,0,5.5,0,8.2c0,1.6-0.1,3.2-0.2,4.7s-0.2,3.1-0.3,4.7c0,1.1-0.5,2.2-1.4,3c-0.8,0.8-1.8,1.3-2.9,1.4
	c-1,0.2-2.1-0.2-2.8-1c-0.5-0.8-0.9-1.7-1.1-2.6c-0.2-0.8-0.3-1.7-0.4-2.5c-0.1-0.9-0.1-1.7-0.1-2.6c-0.1-1.4-0.1-2.8-0.1-4.2v-4.2
	c0-2.1,0.1-3.9,0.2-5.4s0.2-3.2,0.3-4.8S200.5,167.4,200.7,166.2z M200,146c0-1.5,0.5-2.9,1.5-4c0.8-1,2.1-1.6,3.4-1.5
	c0.9,0,1.7,0.3,2.4,0.8c0.8,0.5,1.5,1.1,2,1.9c0.5,0.7,0.8,1.5,0.8,2.3c0,1-0.2,1.9-0.8,2.7c-0.6,0.9-1.3,1.6-2.1,2.1
	s-1.7,0.8-2.7,0.9c-1.2,0-2.4-0.5-3.1-1.4C200.4,148.6,199.9,147.3,200,146z M206.7,171v-2.3c0-0.8,0-1.5-0.1-2.3
	c-0.1-0.3-0.3-0.7-0.5-0.9c-0.2-0.3-0.5-0.5-0.9-0.5c-0.2-0.1-0.5-0.2-0.7-0.2c-0.4-0.1-0.8-0.1-1.2,0c-0.5,0.1-0.9,0.5-1.1,1
	c-0.4,0.9-0.5,1.9-0.4,2.8c0.1,2.4,0.1,4.7,0.1,7s0,4.7-0.1,7.1c-0.1,1.6-0.1,3.3-0.1,5.1s0,3.6,0.1,5.1c0.1,0.5,0.1,1,0.1,1.6
	c0,0.5,0.2,1.1,0.5,1.5c0.4,0.5,1,0.7,1.6,0.5c0.6,0,1.1-0.2,1.5-0.7c0.3-0.5,0.5-1,0.5-1.5c0.1-0.5,0.1-1,0.1-1.6v-5
	c0-1.9,0-3.8,0.1-5.8s0.1-3.7,0.1-5.4s0-3,0.1-4C206.5,172,206.6,171.5,206.7,171L206.7,171z M201.8,146c-0.1,2.3,0.8,3.4,2.4,3.5
	c1,0.1,2.1-0.3,2.8-1.1c0.8-0.7,1.2-1.7,1.2-2.7c0-0.9-0.4-1.8-1-2.5s-1.4-1.1-2.3-1.1c-0.8-0.1-1.7,0.3-2.1,1
	C202.2,144,201.9,145,201.8,146L201.8,146z"/>
<path class="st1" d="M228.1,173.1c-0.1,2.3,0,4.7,0.1,7s0.1,4.6,0,6.9c0,1.3-0.2,2.6-0.4,3.8c-0.3,1.3-0.6,2.5-1.1,3.8
	c-0.2,0.5-0.6,1-1,1.4c-0.5,0.5-1.1,1-1.8,1.5c-0.5,0.4-1.1,0.6-1.7,0.7c-0.7,0-1.4-0.2-2-0.6c-0.7-0.4-1.3-0.9-1.7-1.5
	c-0.5-0.7-0.9-1.5-1.1-2.3c-0.3-0.8-0.4-1.6-0.4-2.5c0.1-4.2,0.1-8.4,0.2-12.7c0.1-4.2,0.2-8.5,0.4-12.8c0.1-2.4,0.2-4.8,0.3-7.3
	c0.1-2.4,0.2-4.9,0.4-7.3c0.1-1.5,0.3-2.9,0.5-4.4s0.4-3,0.7-4.4c0.1-1,0.7-2,1.5-2.5c1.1-0.6,2.4-0.8,3.7-0.6c1-0.1,1.9,0.3,2.6,1
	c0.6,0.7,0.9,1.6,0.9,2.6V168C228.1,169.8,228.1,171.6,228.1,173.1z M225.9,155.4c0-1.6-0.1-3.1-0.1-4.3v-7.2c0-0.7-0.2-1.4-0.5-2.1
	c-0.4-0.6-1.2-0.9-1.9-0.6c-0.5,0.2-1,0.5-1.4,1c-0.4,0.4-0.7,1-0.9,1.6c-0.3,1.1-0.4,2.2-0.5,3.2c0,1.1-0.1,2.2-0.1,3.3
	c-0.2,3.3-0.4,6.7-0.5,10s-0.3,6.6-0.5,10c-0.1,3.6-0.3,7.2-0.4,10.8c-0.1,3.6-0.2,7.2-0.3,10.8c0,0.6,0.1,1.1,0.3,1.7
	c0.2,0.5,0.5,1,0.8,1.5c0.4,0.8,1.3,1.3,2.2,1.3c0.9-0.1,1.6-0.7,1.9-1.5c0.7-1.4,1.1-3,1.4-4.6c0.2-1.5,0.4-3,0.4-4.5
	c0-1.4,0.1-2.4,0.1-2.9c0.2-4.6,0.2-9.2,0-13.8C225.7,164.7,225.7,160.2,225.9,155.4L225.9,155.4z"/>
<path class="st1" d="M259.4,176.6c0.2,2.7,0,5.4-0.8,8c-0.8,2.4-1.8,4.8-3,7c-1.1,2.1-2.8,3.7-4.8,4.9c-2,1.1-4.3,1.4-6.5,1.1
	c-2.7-0.2-5.2-1.3-7.3-2.9c-1.9-1.5-3.2-3.7-3.6-6.1c-0.4-2.1-0.6-4.2-0.6-6.3c0-2.1,0.2-4.3,0.7-6.3c0.3-1.1,0.6-2.2,0.8-3.2
	s0.5-2,0.9-3c0.6-2.5,2.2-4.6,4.3-6c2.2-1.4,4.9-1.9,7.5-1.5c0.8,0,1.5,0.2,2.3,0.3l2.2,0.6c1.6,0.4,3.1,1.2,4.4,2.3
	c1.2,1.1,2,2.5,2.3,4.1c0.3,1.3,0.7,2.6,1,3.8C259.2,174.3,259.4,175.4,259.4,176.6z M235.5,178.1c-0.1,1.2-0.2,2.5-0.3,3.8
	c-0.1,1.3-0.1,2.6-0.1,3.9c0,2.8,1.1,5.5,3.1,7.5c1,1.1,2.2,1.9,3.6,2.3c1.4,0.5,3,0.7,4.5,0.6s2.9-0.4,4.3-1.1
	c1.3-0.6,2.3-1.6,3-2.8c1.5-2.8,2.7-5.8,3.4-8.9c0.7-3.1,0.8-6.3,0.1-9.4c-0.3-1.9-0.9-3.8-1.9-5.5c-0.8-1.6-2.1-2.9-3.7-3.7
	c-2-0.9-4.3-1.3-6.5-1c-1.6,0-3.1,0.5-4.5,1.4c-1.3,0.9-2.3,2.1-3,3.5c-0.2,0.5-0.4,1-0.6,1.5s-0.4,1.1-0.6,1.7
	c-0.2,0.6-0.3,1.3-0.4,1.9c-0.1,0.9-0.2,1.7-0.3,2.6S235.6,177.8,235.5,178.1L235.5,178.1z M254.8,176.7c0.1,2.6-0.1,5.2-0.7,7.7
	c-0.6,2.6-1.6,5-3.1,7.1c-0.7,1.1-1.6,1.9-2.8,2.4c-1.4,0.4-2.8,0.5-4.2,0.2c-1.4-0.2-2.8-0.8-3.9-1.6c-1-0.8-1.7-1.9-1.9-3.1
	c-0.7-3.3-0.8-6.6-0.4-9.9c0.4-3.3,1.3-6.6,2.5-9.6c0.7-2.1,2.7-3.4,4.9-3.4h1.9c0.6,0,1.2,0,1.8,0.1c1.3,0.1,2.6,0.7,3.5,1.7
	c0.8,0.8,1.4,1.9,1.8,3c0.3,1,0.5,2.1,0.6,3.2C254.8,175.4,254.8,176.2,254.8,176.7L254.8,176.7z M253.3,176.6
	c-0.1-1-0.2-1.9-0.4-2.8c-0.2-1.1-0.5-2.1-1-3.1s-1.2-1.8-2.1-2.3c-1-0.6-2.3-0.9-3.5-0.6c-1.2,0.2-2.4,0.8-3.3,1.6
	c-1,0.8-1.7,1.8-2,3c-0.7,2.5-1.2,5.1-1.5,7.8c-0.2,2.7-0.2,5.3,0.1,8c0.1,0.9,0.3,1.8,0.8,2.5c0.6,0.7,1.3,1.2,2.2,1.6
	c1,0.4,2.1,0.6,3.1,0.5s2-0.5,2.7-1.2c0.6-0.6,1.1-1.3,1.6-2c0.4-0.7,0.7-1.5,1-2.3c0.5-1.6,1.1-3.3,1.7-5.1
	C253.3,180.3,253.5,178.4,253.3,176.6L253.3,176.6z"/>
<path class="st1" d="M264.3,193.1c-0.7-0.8-1.2-1.8-1.6-2.8s-0.9-2-1.3-3c-0.2-0.5-0.2-1-0.1-1.5c0-0.5,0.1-1.1,0.3-1.6
	c0.2-0.6,0.7-1.1,1.4-1.3c0.6-0.2,1.3-0.3,2-0.1c1.2,0.1,2.2,1.2,2.1,2.4c0.3,3.2,2.5,5.8,5.6,6.5l2.6,0.5c0.9,0.1,1.8,0.2,2.7,0.3
	c1.2,0,2.4-0.4,3.4-1.1c0.9-0.5,1.6-1.3,1.9-2.3c0.3-0.8,0.2-1.7-0.2-2.5c-0.6-0.9-1.3-1.8-2-2.6c-0.2-0.2-0.8-0.6-1.7-1.3l-3.3-2.4
	c-1.2-0.9-2.5-1.8-3.7-2.7c-1-0.7-1.9-1.5-2.8-2.4c-1.5-1.5-2.5-3.4-2.8-5.5s-0.1-4.2,0.5-6.2c0.3-0.8,0.6-1.5,1.1-2.1
	s1.1-1.2,1.7-1.6c2-1.3,4.2-2.1,6.5-2.5c2.3-0.3,4.7-0.1,6.9,0.6c1.9,0.6,3.5,1.8,4.5,3.4c1.1,1.6,1.5,3.6,1.2,5.5
	c0,0.7-0.3,1.3-0.7,1.8c-0.5,0.5-1.2,0.8-1.9,0.9c-0.6,0.1-1.3-0.1-1.8-0.5s-0.8-1-1-1.6c0-0.2-0.1-0.3-0.1-0.5
	c-0.1-0.2-0.1-0.3-0.1-0.5c-0.2-0.9-0.6-1.8-1.2-2.5s-1.4-1.3-2.3-1.4c-1.1-0.3-2.3-0.3-3.3,0.1c-1,0.4-1.9,1-2.6,1.9
	c-0.4,0.5-0.7,1.1-0.9,1.7c-0.2,0.6-0.2,1.2-0.1,1.8c0.3,0.9,0.7,1.8,1.1,2.6s1,1.6,1.7,2.3c2.2,2,4.6,3.7,7.1,5.1
	c2.1,1,3.8,2.6,5,4.6c1.1,1.9,1.7,4,1.8,6.2c0.1,1.1-0.2,2.3-0.8,3.3c-0.7,1.2-1.5,2.2-2.5,3c-1.1,0.9-2.3,1.7-3.6,2.3
	c-1.2,0.6-2.5,0.9-3.9,1c-1.8,0-3.7-0.1-5.5-0.3c-1.8-0.2-3.6-0.7-5.3-1.5C266.8,195.7,265.4,194.6,264.3,193.1z M271.3,167.2
	c0.2-1.4,0.8-2.8,1.9-3.8c1.9-2.2,4.9-3.1,7.7-2.3c1.3,0.2,2.4,0.9,3,2c0.5,1,0.9,2.1,1.2,3.2c0.1,0.4,0.3,0.9,0.5,1.4
	c0.1,0.5,0.5,0.8,1,0.8s1-0.3,1.3-0.8s0.3-1.4,0-2.8c-0.3-1.9-1.4-3.6-3-4.8c-1.7-1.1-3.8-1.7-5.9-1.6c-2.4-0.1-4.7,0.6-6.7,1.9
	c-1.8,1.2-3,3-3.5,5.1c-0.3,1.7-0.3,3.4,0.2,5.1c0.5,1.6,1.4,3.1,2.8,4.2c1.7,1.5,3.4,2.9,5.1,4.2c1.7,1.4,3.5,2.7,5.2,4
	c0.9,0.6,1.7,1.4,2.4,2.2c0.7,0.8,1.1,1.8,1.1,2.9c0,1.4-0.5,2.7-1.5,3.7c-1,1.1-2.4,2-3.9,2.3s-3.1,0.3-4.6,0s-2.9-0.7-4.3-1.3
	c-1.5-0.6-2.8-1.5-3.9-2.7s-1.8-2.7-2-4.2c-0.1-0.4-0.2-0.7-0.3-1.1c-0.2-0.4-0.4-0.6-0.7-0.6c-0.5-0.1-0.9,0.1-1.1,0.5
	c-0.3,0.4-0.4,0.9-0.4,1.4c0.2,1.1,0.4,2.1,0.9,3.1c0.4,1,1,1.9,1.7,2.7c2,2.3,4.7,3.9,7.7,4.5c3,0.5,6.1,0.5,9-0.3
	c2.1-0.5,3.9-1.8,5-3.6c1.9-3.3,1.5-7.4-0.9-10.3c-1.1-1.2-2.3-2.2-3.7-3c-1.3-0.8-2.6-1.7-3.9-2.5c-1.3-0.9-2.5-1.7-3.7-2.6
	c-1.1-0.8-2.1-1.9-2.9-3C271.2,170,271,168.6,271.3,167.2L271.3,167.2z"/>
<g>
	<rect x="159" y="19.4" class="st1" width="87.9" height="67.7"/>
	<rect x="69.1" y="19.4" class="st1" width="88.6" height="67.7"/>
	<g id="_000000ff">
		<path d="M-100.5,90.1l-0.1-0.2l0,0L-100.5,90.1z M67.4,106.6H248V0L67.4,0V106.6z M74.1,16.2c-0.8-0.5-0.5-1.6-0.6-2.4
			c0.2-2.1-0.6-4.3,0-6.4c0.1-0.2,0.2-0.3,0.3-0.4l0.1-0.1H74h0.1c0.1,0,0.2-0.1,0.3-0.1c0.4-0.1,0.9,0,1.2-0.1c0.8,0,1.6-0.1,2.5,0
			h0.5c0.1,0,0.3,0,0.4,0.1c0.1,0,0.1,0,0.2,0c0.3,0.1,0.6,0.2,0.9,0.4v7.6c0,0.5-0.2,1.2-0.7,1.3c-0.1,0-0.2,0-0.3,0
			C77.3,16.3,75.7,16.3,74.1,16.2z M92.3,16.2L92.3,16.2c-0.2,0-0.4-0.1-0.5-0.2c-0.4-0.4-0.3-1.3-0.3-1.8c0.1-2.1-0.1-4.3,0.1-6.4
			c0-0.3,0.2-0.5,0.4-0.7L92.1,7h0.1c0,0,0.1,0,0.1-0.1c0.4-0.1,0.8-0.2,1.2-0.2h2c0.3,0,0.6,0,0.8,0c0.2,0,0.4,0.1,0.5,0.1
			c0.2,0,0.4,0.1,0.5,0.2c0.1,0,0.2,0.1,0.3,0.1c0.5,1.5,0.1,3.1,0.2,4.6c-0.1,1.4,0.3,3-0.3,4.3l0,0h-0.2l0,0
			C95.8,16.3,94,16.4,92.3,16.2L92.3,16.2z M147.1,16.2c-0.3,0-0.5,0-0.8-0.1c-0.1,0-0.1,0-0.2-0.1c0,0-0.1,0-0.1-0.1l-0.1-0.1
			c-0.1-0.1-0.1-0.2-0.1-0.3c-0.2-2.1-0.3-4.3-0.2-6.4c0-0.7,0-1.4,0.2-2.1c0.2-0.1,0.4-0.2,0.6-0.3c0.1,0,0.2-0.1,0.2-0.1
			c0.1,0,0.2,0,0.2-0.1c0.2,0,0.3,0,0.5-0.1h1c1-0.1,2,0,2.9,0.2l0,0c0.8,0.3,0.8,1.3,0.8,2.1v5.4c-0.1,0.6-0.1,1.5-0.7,1.8l0,0
			C150,16.3,148.5,16.3,147.1,16.2L147.1,16.2z M113.1,6.6c1-0.1,2,0.1,2.9,0.6l0,0c0.3,1.9,0.4,3.8,0.2,5.7c0,0.9,0,1.8-0.1,2.7
			c-0.1,0.1-0.2,0.2-0.4,0.3c-0.1,0-0.1,0.1-0.2,0.1c-0.1,0.1-0.3,0.1-0.5,0.1h-1.7c-1.3-0.1-2.7,0.3-3.8-0.5c0-2.1,0.1-4.1,0-6.2
			c-0.1-0.8,0-1.6,0.3-2.4c1.1-0.4,2.2-0.5,3.3-0.3V6.6z M133.3,6.7c0.2,0,0.4,0.1,0.6,0.3c0.1,0.1,0.1,0.1,0.1,0.2
			c0.1,0.1,0.1,0.2,0.1,0.4c0.1,0.2,0.1,0.5,0.1,0.8c-0.2,2.4-0.1,4.8-0.1,7.2l-0.5,0.6l0,0c-1.6,0-3.3,0.1-4.9,0
			c-0.1,0-0.2,0-0.2,0c-0.1,0-0.1,0-0.2-0.1c-0.2-0.1-0.3-0.3-0.4-0.4v-0.1v-0.1l-0.1-0.3V8c0-0.3,0.1-0.6,0.3-0.8
			c0.1-0.1,0.1-0.1,0.2-0.1c0.1,0,0.2-0.1,0.2-0.1c0.1,0,0.1-0.1,0.2-0.1c0.1,0,0.1,0,0.2,0h0.4C130.6,6.7,132,6.7,133.3,6.7
			L133.3,6.7z M127.5,98.7v-8.4c0.5-0.5,1.2-0.7,1.9-0.7c1.6,0.1,3.2-0.2,4.7,0.4c0.1,1.4,0.2,2.8,0.2,4.2v3.2c0,0.2,0,0.5-0.1,0.7
			c0,0.1,0,0.2-0.1,0.3c0,0.1,0,0.1-0.1,0.2c0,0,0,0.1-0.1,0.1l-0.1,0.2c0,0.1-0.1,0.1-0.2,0.2c-0.8,0.1-1.5,0.1-2.3,0.1
			C130,99.1,128.7,99.4,127.5,98.7L127.5,98.7z M109.5,96.2v-5.3c0-0.1,0-0.2,0-0.3v-0.2l0.1-0.1c0,0,0-0.1,0.1-0.1l0.1-0.1l0,0
			c0,0,0.1-0.1,0.2-0.1c0.1-0.1,0.2-0.1,0.3-0.1h0.1c0.1,0,0.3-0.1,0.4-0.1c1.7-0.1,3.3-0.1,5,0.2c0.1,0.2,0.1,0.5,0.2,0.7
			c0,0.2,0.1,0.4,0.1,0.7c0,0.5,0.1,1,0.1,1.5c0,1.1-0.1,2.1,0,3.2v1.4c0,0.2,0,0.4-0.1,0.5c-0.1,0.4-0.2,0.7-0.3,1
			c-1.7,0.2-3.4,0.3-5,0.1c-0.3,0-0.6-0.2-0.8-0.4c-0.1-0.1-0.1-0.3-0.2-0.4c0-0.2,0-0.3,0-0.5L109.5,96.2L109.5,96.2z M96.5,89.7
			c0.1,0,0.3,0,0.4,0H97c0.1,0,0.2,0,0.3,0.1s0.2,0.1,0.4,0.2c0.1,0,0.1,0.1,0.1,0.1l0.1,0.1v0.1c0,0,0,0,0,0.1s0,0.1,0,0.2
			c0.1,2.2,0,4.5,0,6.8v0.1c0,0.3,0,0.6-0.1,0.9c0,0.1,0,0.1-0.1,0.2s-0.2,0.2-0.3,0.3c-1.4,0.2-2.8,0.2-4.1,0.2c-0.2,0-0.4,0-0.6,0
			c-0.1,0-0.2,0-0.4-0.1l-0.2-0.1c0,0-0.1,0-0.1-0.1l0,0c0,0-0.1,0-0.1-0.1l0,0l-0.1-0.1c-0.1,0-0.1-0.1-0.1-0.2l-0.1-0.2
			c-0.1-1.7-0.2-3.5-0.1-5.2c-0.1-1.1,0-2.2,0.3-3.3l0,0C93.3,89.6,94.9,89.6,96.5,89.7L96.5,89.7z M74.2,99.1
			C74.2,99.1,74.1,99.1,74.2,99.1L74,98.9l0,0c-0.1-0.1-0.1-0.1-0.2-0.2v-0.1c0-0.1-0.1-0.1-0.1-0.2s-0.1-0.2-0.1-0.3V90
			c0.1,0,0.2-0.1,0.3-0.1c0.1,0,0.1-0.1,0.2-0.1s0.2,0,0.3-0.1c0.1,0,0.3,0,0.4-0.1c0.7,0,1.5,0,2.2,0h0.8c0.2,0,0.5,0,0.8,0
			c0.1,0,0.2,0,0.3,0l0,0c0.1,0,0.2,0.1,0.4,0.1c0.1,0,0.2,0.1,0.3,0.1c0.1,0.1,0.2,0.1,0.3,0.2c0.1,1.3,0.1,2.7,0.1,4.1v2.8
			c0,0.3,0,0.5,0,0.8v0.2c0,0.1,0,0.2-0.1,0.3l-0.1,0.2v0.2l-0.1,0.1c-0.1,0.1-0.3,0.2-0.5,0.2l0,0C77.5,99.2,75.8,99.2,74.2,99.1z
			 M242,90c0.7,1.2,0.5,2.7,0.5,4c-0.1,1.7,0.3,3.7-0.6,5.2h-5.6c-0.8-1.2-0.5-2.7-0.6-4.1c-0.1-1.5,0-3.1,0.2-4.6
			c0.3-0.9,1.3-0.8,2-0.8C239.3,89.7,240.7,89.4,242,90z M222.2,89.6c0.7-0.1,1.3,0.1,1.9,0.5c0.2,0.9,0.3,1.8,0.2,2.7v4.3
			c0,0.3,0,0.7-0.1,1c0,0.8-0.8,1-1.5,1c-1.6,0-3.3,0.2-4.9-0.3l-0.1-1v-3.3c0-1.4,0-2.7,0.1-4.1l0,0c0-0.2,0-0.4,0.1-0.6l0,0
			C219.4,89.6,220.8,89.6,222.2,89.6z M204.5,89.6c0.5,0.1,1.3-0.1,1.5,0.5l0.1,0.3v0.2c0.1,0.2,0.1,0.4,0.1,0.6v2.1
			c-0.1,1.9,0.4,3.9-0.4,5.8c-1.9,0.1-3.8,0-5.7-0.1c-0.6-0.6-0.5-1.5-0.6-2.3c-0.1-2.2,0-4.5,0.2-6.7
			C201.2,89.4,202.9,89.7,204.5,89.6L204.5,89.6z M182.8,99.1h-0.4l0,0h-0.1h-0.1c-0.1,0-0.1-0.1-0.2-0.1c-0.1-0.1-0.1-0.2-0.2-0.3
			c0-0.1,0-0.1,0-0.2c-0.1-1.2,0-2.5,0-3.7v-1.5c0-0.4,0-0.8-0.1-1.2c0-0.5,0-0.9,0.1-1.3v-0.2c0-0.2,0.2-0.4,0.3-0.5
			c0.1-0.1,0.1-0.1,0.2-0.1c0.1-0.1,0.2-0.1,0.3-0.1c1.3-0.1,2.6-0.1,3.9-0.1c0.4,0,0.7,0,1.1,0.2l0.2,0.1c0.1,0,0.1,0.1,0.1,0.1
			c0.1,0.1,0.2,0.2,0.3,0.4c0.1,0.2,0.1,0.4,0.1,0.7v6.6c0,0.4-0.1,0.9-0.2,1.3C186.4,99.2,184.6,99.2,182.8,99.1z M170.1,90
			c0.2,2.4,0.1,4.9,0.1,7.3c-0.1,0.6,0.1,1.4-0.5,1.7c-1.8,0.1-3.6,0.2-5.3,0.1l-0.8-0.8v-7.4c0-0.7,0.7-1.3,1.4-1.3l0,0h0.1
			C166.7,89.7,168.5,89.4,170.1,90z M152.1,90c0.2,2.3,0.1,4.7,0.1,7c0.1,0.8-0.2,1.6-0.7,2.2c-1.8,0.1-3.6,0-5.4-0.1
			c-0.8-0.5-0.7-1.5-0.7-2.3v-5.6c0-0.6,0.2-1.5,1-1.5C148.4,89.7,150.3,89.4,152.1,90L152.1,90z M246,21.7c0.1,21.1,0,42.3,0,63.4
			h-47.8c-5.9-0.2-11.8,0-17.7,0c-4-0.1-8.1,0-12.1,0c-2.4,0-4.8-0.1-7.2,0c0-0.8-0.1-1.6-0.1-2.5V32.3c0-3.5-0.1-7.1,0.1-10.6
			C189.5,21.8,217.7,21.8,246,21.7L246,21.7z M156,21.7c0.1,21.1,0.1,42.3,0,63.4c-5.7,0-11.4,0.1-17.1,0c-16.8,0.1-33.6,0-50.3,0
			H71.2C71,81,70.9,76.9,71,72.8c-0.1-7.3,0.4-14.6,0-21.9c0-7.5-0.1-15,0.1-22.5c0-2.2-0.1-4.4,0.1-6.7
			C99.5,21.8,127.8,21.8,156,21.7L156,21.7z M239.5,6.7h0.7c0.6,0,1.2,0.2,1.8,0.5l0,0c0.3,0.9,0.4,1.8,0.3,2.8l-0.1,5
			c0,0.3,0,0.6-0.2,0.8c0,0.1-0.1,0.1-0.1,0.1c-0.1,0.1-0.2,0.2-0.3,0.2s-0.1,0.1-0.2,0.1c-1.6,0.2-3.2,0.2-4.8,0
			c-0.2,0-0.4-0.1-0.5-0.3c-0.5-0.5-0.4-1.4-0.4-2.1c0.1-2-0.1-4.1,0.1-6.1c0.1-0.3,0.2-0.5,0.5-0.7c0.1,0,0.1-0.1,0.2-0.1h0.1
			c0.1,0,0.2-0.1,0.2-0.1c0.2,0,0.4-0.1,0.5-0.1h0.8C238.7,6.7,239.1,6.7,239.5,6.7L239.5,6.7z M222.2,6.7c0.4,0,0.9,0.1,1.3,0.2
			c0.2,0.1,0.4,0.1,0.6,0.2c0.4,2,0.1,4.1,0.2,6.1c-0.1,0.8,0.1,1.8-0.3,2.5c-0.1,0.1-0.2,0.3-0.3,0.4c-1.8,0.2-3.5,0.2-5.3,0.1
			l-0.5-0.6c-0.1-2.6-0.1-5.2,0-7.8c0-0.3,0.1-0.6,0.3-0.8l0.1-0.1c0.1-0.1,0.2-0.1,0.3-0.1l0,0h0.1c0.1,0,0.2-0.1,0.3-0.1h0.2
			c0.2,0,0.4,0,0.6,0C220.5,6.7,221.3,6.6,222.2,6.7C222,6.8,222.1,6.8,222.2,6.7L222.2,6.7z M205.4,7c0.1,0,0.2,0.1,0.3,0.1l0,0
			c0.2,0.1,0.3,0.2,0.4,0.4c0.2,0.4,0.3,0.9,0.3,1.3v5.6c0,0.7-0.1,1.6-0.9,1.8l0,0c-1.4,0.1-2.7,0.2-4.1,0.1c-0.4,0-0.9,0-1.3-0.2
			L200,16c-0.1-0.1-0.1-0.1-0.1-0.2v-0.1c-0.2-1.9-0.3-3.9-0.2-5.8c-0.1-1,0.1-2,0.5-2.9C201.9,6.6,203.7,6.6,205.4,7L205.4,7z
			 M187.5,6.9L187.5,6.9c0.1,0,0.1,0,0.2,0.1c0.1,0,0.1,0.1,0.2,0.1c0.1,0.1,0.1,0.1,0.1,0.2c0,0.1,0.1,0.1,0.1,0.2
			c0,0.1,0.1,0.1,0.1,0.2l0,0c0,0.2,0.1,0.5,0.1,0.7v6.2c0,0.1,0,0.3,0,0.4c0,0.2-0.1,0.3-0.1,0.5c-0.1,0.2-0.2,0.4-0.4,0.6
			c-0.1,0.1-0.1,0.1-0.2,0.1c-0.1,0-0.2,0-0.2,0c-1.8,0.1-3.5,0-5.3,0c-0.4-1.3-0.5-2.7-0.3-4.1c0.2-1.5-0.1-3,0-4.5
			c0-0.4,0.3-0.6,0.6-0.8c0.2-0.1,0.3-0.1,0.5-0.1s0.3,0,0.5,0C184.7,6.6,186.1,6.7,187.5,6.9L187.5,6.9z M170,7L170,7
			c0.5,2,0.1,4,0.2,6c-0.1,1.1,0.2,2.3-0.5,3.2l0,0c-1.8,0.4-3.6,0-5.4,0.1c-0.4-0.6-0.7-1.4-0.6-2.2c-0.1-2.3,0-4.7,0.2-7
			C165.9,6.6,167.9,6.6,170,7L170,7z"/>
	</g>
	<path class="st1" d="M241.8,99.2h-5.6c-0.8-1.2-0.5-2.7-0.6-4.1c-0.1-1.5,0-3.1,0.2-4.6c0.3-0.9,1.3-0.8,2-0.8
		c1.4,0.1,2.8-0.2,4,0.3c0.7,1.2,0.4,2.7,0.5,4C242.4,95.7,242.8,97.6,241.8,99.2z"/>
	<path class="st1" d="M205.8,99.2c-1.9,0.1-3.8,0-5.7-0.1c-0.6-0.6-0.5-1.5-0.6-2.3c-0.1-2.2,0-4.5,0.2-6.7c1.5-0.6,3.1-0.3,4.7-0.4
		c0.5,0.1,1.3-0.1,1.5,0.5c0.3,1,0.3,2.1,0.2,3.2C206.1,95.3,206.5,97.3,205.8,99.2z"/>
	<path class="st1" d="M169.7,99.1c-1.8,0.1-3.6,0.2-5.3,0.1l-0.8-0.8V91c0-0.7,0.7-1.3,1.4-1.3l0,0h0.1c1.7,0,3.4-0.3,5,0.4
		c0.2,2.4,0.1,4.9,0.1,7.3C170.1,97.9,170.3,98.7,169.7,99.1z"/>
	<path class="st1" d="M151.6,99.2c-1.8,0.1-3.6,0-5.4-0.1c-0.8-0.5-0.7-1.5-0.7-2.3v-5.6c0-0.6,0.2-1.5,1-1.5c1.8,0,3.8-0.3,5.6,0.3
		c0.2,2.3,0.1,4.7,0.1,7C152.3,97.8,152,98.5,151.6,99.2L151.6,99.2z"/>
	<path class="st1" d="M133.7,99.1c-0.8,0.1-1.5,0.1-2.3,0.1c-1.3,0-2.7,0.2-3.8-0.5v-8.4c0.5-0.5,1.2-0.7,1.9-0.7
		c1.6,0.1,3.2-0.2,4.7,0.4c0.2,2.4,0.2,4.9,0.1,7.3C134.1,97.9,134.2,98.7,133.7,99.1L133.7,99.1z"/>
	<path class="st1" d="M79.2,99.1c-1.7,0.2-3.3,0.2-5,0c-0.9-0.4-0.6-1.5-0.6-2.4c0.1-2.3-0.1-4.6,0.1-6.8c1.1-0.3,2.3-0.4,3.4-0.3
		c1-0.2,2,0,2.9,0.6c0.2,2.3,0,4.6,0.1,6.9C80.1,97.7,80.2,98.9,79.2,99.1L79.2,99.1z"/>
	<path class="st1" d="M224.2,98.2c0,0.8-0.8,1-1.5,1c-1.6,0-3.3,0.2-4.9-0.3c-0.1-1.4-0.1-2.9-0.1-4.3c-0.1-1.6,0-3.1,0.2-4.7
		c1.4-0.2,2.8-0.2,4.2-0.2c0.7-0.1,1.3,0.1,1.9,0.5c0.2,0.9,0.3,1.8,0.2,2.7C224.2,94.6,224.4,96.4,224.2,98.2z"/>
	<path class="st1" d="M188.1,99c-1.8,0.1-3.5,0.2-5.3,0.1c-0.5,0-1.1-0.2-1-0.7c-0.1-2.1,0-4.3-0.1-6.4c0-0.8-0.1-2.1,0.9-2.3
		c1.3-0.1,2.6-0.1,3.9-0.1c0.6,0,1.4,0.1,1.6,0.7c0.2,0.8,0.2,1.6,0.2,2.4C188.4,94.9,188.3,97,188.1,99L188.1,99z"/>
	<path class="st1" d="M115.8,99c-1.7,0.2-3.5,0.3-5.2,0.2c-0.9,0-1.1-1-1-1.7c0.1-2.2,0-4.4,0-6.6c-0.1-0.7,0.6-1.1,1.3-1.2
		c1.7-0.1,3.3-0.1,5,0.1c0.6,2,0.2,4.1,0.3,6.1C116.3,96.9,116.1,98,115.8,99L115.8,99z"/>
	<path class="st1" d="M97.5,99c-1.4,0.2-2.8,0.2-4.1,0.2c-0.7,0-1.6,0-1.8-0.8c-0.1-1.7-0.1-3.5-0.1-5.2c-0.1-1.1,0-2.2,0.3-3.3
		c1.6-0.2,3.1-0.3,4.7-0.2c0.6,0,1.5,0.1,1.5,0.9c0.1,2.2,0,4.5,0,6.8C97.9,97.9,98.1,98.7,97.5,99L97.5,99z"/>
	<path class="st1" d="M241.5,16.2c-1.6,0.2-3.2,0.2-4.8,0c-1.1-0.3-0.9-1.5-0.9-2.4c0.1-2-0.1-4.1,0.1-6.1c0.3-1,1.5-1,2.4-1
		c1.3,0.1,2.7-0.2,3.8,0.5c0.3,0.9,0.4,1.8,0.3,2.8l-0.1,5C242.3,15.5,242,16,241.5,16.2z"/>
	<path class="st1" d="M223.7,16.1c-1.8,0.2-3.5,0.2-5.3,0.1l-0.5-0.6c-0.1-2.6-0.1-5.2,0-7.8c-0.1-1,1.1-1.2,1.9-1.2
		c1.5,0,3.1-0.2,4.4,0.4c0.4,2,0.1,4.1,0.2,6.1C224.2,14.2,224.5,15.4,223.7,16.1z"/>
	<path class="st1" d="M205.5,16.2c-1.4,0.1-2.7,0.2-4.1,0.1c-0.5,0-1.4,0.1-1.5-0.6c-0.2-1.9-0.3-3.9-0.2-5.8c-0.1-1,0.1-2,0.5-2.9
		c1.7-0.4,3.6-0.4,5.3,0c0.8,0.2,0.9,1.1,0.9,1.8v5.6C206.3,15,206.2,15.9,205.5,16.2z"/>
	<path class="st1" d="M188.2,14.7c0,0.6-0.2,1.5-1,1.6c-1.8,0.1-3.5,0-5.3,0c-0.4-1.3-0.5-2.7-0.3-4.1c0.2-1.5-0.2-3,0-4.5
		c0.1-0.8,1-0.9,1.7-0.9c1.4-0.1,2.8-0.1,4.1,0.1c0.7,0.2,0.7,1,0.8,1.6C188.3,10.5,188.3,12.6,188.2,14.7z"/>
	<path class="st1" d="M169.7,16.1c-1.8,0.2-3.6,0.2-5.4,0.1c-0.4-0.6-0.7-1.4-0.6-2.2c-0.1-2.3,0-4.7,0.2-7c2-0.5,4.1-0.5,6.2-0.1
		c0.5,2,0.1,4,0.2,6C170.1,14,170.4,15.3,169.7,16.1z"/>
	<path class="st1" d="M151.5,16.2c-1.5,0.1-2.9,0.1-4.4,0.1c-0.4,0-1.2,0-1.3-0.6c-0.2-2.1-0.3-4.2-0.2-6.4c0-0.7,0-1.4,0.2-2.1
		c0.8-0.4,1.8-0.6,2.7-0.5c1-0.1,2,0,2.9,0.2c0.8,0.3,0.8,1.3,0.8,2.1v5.4C152.3,15,152.2,15.9,151.5,16.2L151.5,16.2z"/>
	<path class="st1" d="M133.5,16.2c-1.6,0-3.3,0.1-4.9,0c-0.8,0-1.1-0.9-1.1-1.6V7.8c-0.1-0.8,0.9-1.1,1.6-1.2
		c1.4-0.1,2.8-0.1,4.2,0.1c0.8,0,0.9,1,0.9,1.6c-0.2,2.4-0.1,4.8-0.1,7.2L133.5,16.2z"/>
	<path class="st1" d="M116,15.7c-0.6,0.8-1.8,0.6-2.7,0.6c-1.3-0.1-2.7,0.3-3.8-0.5c0-2.1,0.1-4.1,0-6.2c-0.1-0.8,0-1.6,0.3-2.4
		c1-0.6,2.2-0.4,3.3-0.5c1-0.2,2,0,2.9,0.6c0.3,1.9,0.4,3.8,0.2,5.7C116.1,13.9,116.1,14.8,116,15.7L116,15.7z"/>
	<path class="st1" d="M97.5,16.2c-1.7,0.1-3.4,0.1-5.2,0c-1-0.1-0.8-1.4-0.8-2.1c0.1-2.1-0.1-4.3,0.1-6.4c0.1-1,1.4-0.9,2.1-1
		c1.4,0,2.9-0.3,4.1,0.4c0.5,1.5,0.1,3.1,0.2,4.6c-0.1,1.4,0.3,3-0.3,4.3L97.5,16.2L97.5,16.2z"/>
	<path class="st1" d="M80,14.9c0,0.6-0.3,1.4-1,1.3c-1.6,0.1-3.3,0.1-4.9-0.1c-0.8-0.5-0.5-1.6-0.6-2.4c0.2-2.1-0.6-4.3,0-6.4
		c0.3-0.9,1.4-0.7,2.1-0.8c1.5,0.1,3.1-0.3,4.4,0.6V14.9z"/>
</g>
</svg>
