<svg id="Layer_1" data-name="Layer 1" xmlns="http://www.w3.org/2000/svg" width="316.49" height="283.36" viewBox="0 0 316.49 283.36"><defs><style>.cls-1{fill:none;}.cls-2{fill:#fff;}.cls-3{fill:#8a162d;}</style></defs><rect class="cls-1" y="203.98" width="316.49" height="79.38"/><path class="cls-2" d="M48.67,263.11a10,10,0,0,0,5.13-.79,13.14,13.14,0,0,0,4.42-3.25,13.37,13.37,0,0,1,4.13-3.22,2.83,2.83,0,0,1,2.36-.41,4,4,0,0,1,2,1.44,3.24,3.24,0,0,1,.29,4.38,26.45,26.45,0,0,1-6.31,6,19,19,0,0,1-8.59,2.91,45,45,0,0,1-6.56.31,17,17,0,0,1-6.35-1.54A19.36,19.36,0,0,1,27.85,256.4a42.29,42.29,0,0,1-1.71-12.8,25.07,25.07,0,0,1,3.63-12.32,30.47,30.47,0,0,1,7.42-8.72A20.4,20.4,0,0,1,48,218.35a18.48,18.48,0,0,1,8.81,1,20.86,20.86,0,0,1,7.24,4.72,3.32,3.32,0,0,1,.64,4.38,3.46,3.46,0,0,1-4.28,1.71l-1.75-.72a11.51,11.51,0,0,1-1.66-.89,12.17,12.17,0,0,0-7.88-2.26,15.44,15.44,0,0,0-7.74,3.08,14.71,14.71,0,0,0-4.31,5,21.39,21.39,0,0,0-2.28,6.81,27.53,27.53,0,0,0-.22,7.42,22.4,22.4,0,0,0,1.86,7,15.56,15.56,0,0,0,3.88,5.34,10.88,10.88,0,0,0,1.93,1.3,6.85,6.85,0,0,0,2.39.65C45.61,263,47,263.06,48.67,263.11Zm-20-12.87a28.16,28.16,0,0,0,4.45,11.46,16.56,16.56,0,0,0,9.27,6.53,15.47,15.47,0,0,0,6.49.52c2.14-.3,4.25-.66,6.35-1.07a13.64,13.64,0,0,0,5.49-2.46,21.19,21.19,0,0,0,4.13-4.17,4.11,4.11,0,0,0,.71-1.68,1.55,1.55,0,0,0-.85-1.54q-.93-.82-1.68-.48a5.41,5.41,0,0,0-1.46,1c-.33.32-.67.61-1,.89a4.07,4.07,0,0,0-.85,1,11.26,11.26,0,0,1-3.89,2.95,20.93,20.93,0,0,1-4.74,1.51q-6.27,1.1-10.3-1T34.34,256a23.22,23.22,0,0,1-1.75-7,53.47,53.47,0,0,1-.18-7.16,15.48,15.48,0,0,1,3.42-9.2A26.93,26.93,0,0,1,44.25,226a11.08,11.08,0,0,1,5-1.09,21,21,0,0,1,5.53.72,11.14,11.14,0,0,1,4.13,1.95l.79.58a2.92,2.92,0,0,0,.92.45,4.87,4.87,0,0,0,1,.17.91.91,0,0,0,.79-.24,2.12,2.12,0,0,0,.35-2,2,2,0,0,0-.39-.82,4,4,0,0,0-.68-.68,20.72,20.72,0,0,0-6.41-3.77,14.54,14.54,0,0,0-7.4-.53,21,21,0,0,0-10.55,4.56,29.28,29.28,0,0,0-7,8.65A16.7,16.7,0,0,0,29,238.33a39,39,0,0,0-.64,6,32.43,32.43,0,0,0,.27,5.91Z"/><path class="cls-2" d="M75.54,239.84A5,5,0,0,1,77,236.55a3.63,3.63,0,0,1,2.78-.68,4.25,4.25,0,0,1,3,1.64,6.07,6.07,0,0,1,1,3.63q-.07,4.11,0,8.25t0,8.24c0,1.6-.12,3.17-.22,4.73s-.19,3.12-.28,4.72a4.33,4.33,0,0,1-1.36,3,4.64,4.64,0,0,1-2.92,1.4,2.94,2.94,0,0,1-2.78-1,7.48,7.48,0,0,1-1.14-2.6,18,18,0,0,1-.39-2.53c-.08-.87-.11-1.74-.11-2.6,0-1.42-.07-2.82-.07-4.21v-4.19c0-2.06.1-3.87.18-5.44s.17-3.19.32-4.83S75.4,241,75.54,239.84Zm-.64-20.26a6.23,6.23,0,0,1,1.46-4A4.09,4.09,0,0,1,79.75,214a4.36,4.36,0,0,1,2.39.75,6.9,6.9,0,0,1,2,1.88,4.09,4.09,0,0,1,.78,2.36,4.31,4.31,0,0,1-.82,2.67,7.08,7.08,0,0,1-2.1,2.12,5.26,5.26,0,0,1-2.71.89,4,4,0,0,1-3.14-1.4A5.55,5.55,0,0,1,74.9,219.58Zm6.7,25v-2.33a14.26,14.26,0,0,0-.11-2.26,1.78,1.78,0,0,0-.53-.89,1.65,1.65,0,0,0-.89-.54,4.27,4.27,0,0,0-.72-.21,2.75,2.75,0,0,0-1.21,0,1.66,1.66,0,0,0-1.07,1,6.75,6.75,0,0,0-.42,2.81c0,2.37.08,4.71.1,7s0,4.67-.1,7.08c0,1.56-.08,3.27-.08,5.14s0,3.56.15,5.06c0,.46.09,1,.14,1.58a3,3,0,0,0,.5,1.5,1.74,1.74,0,0,0,1.64.55,1.85,1.85,0,0,0,1.5-.68,3.38,3.38,0,0,0,.53-1.51,13.65,13.65,0,0,0,.11-1.57v-5c0-1.93.06-3.81.11-5.75s.08-3.74.11-5.4,0-3,.07-4a7.17,7.17,0,0,1,.17-1.53Zm-4.91-25q-.07,3.42,2.42,3.49a3.5,3.5,0,0,0,2.74-1.1,4,4,0,0,0,1.25-2.73,3.47,3.47,0,0,0-1-2.47,3.11,3.11,0,0,0-2.35-1.07,2.35,2.35,0,0,0-2.14,1A5.49,5.49,0,0,0,76.69,219.58Z"/><path class="cls-2" d="M95.65,264.89a12.94,12.94,0,0,1-.07,2.33A3.47,3.47,0,0,1,94.4,270a3.58,3.58,0,0,1-2.53.82,3.28,3.28,0,0,1-2.21-1.23,3.69,3.69,0,0,1-.85-2.67c.09-2.14.2-4.3.32-6.46s.22-4.33.32-6.47c.19-2.67.38-5.38.57-8.15s.38-5.46.57-8.09a10.81,10.81,0,0,1,.21-2.12,2.27,2.27,0,0,1,1.2-1.66,3.94,3.94,0,0,1,2-.38,5.31,5.31,0,0,1,2.07.55,1.54,1.54,0,0,1,.93,1.44A19.53,19.53,0,0,1,97,239c-.09,1.14-.16,2.26-.21,3.35-.05.6-.08,1.17-.11,1.71s-.06,1.1-.1,1.65c-.1.86-.18,1.51-.25,2s0,.62.35.58a9,9,0,0,0,2-.82,12.18,12.18,0,0,1,5.67-1.41,23.89,23.89,0,0,1,5.53.52,8.46,8.46,0,0,1,5.38,3.08,13.74,13.74,0,0,1,2.46,5.88,37.93,37.93,0,0,1,.68,5.92q.1,3,.25,6a1.8,1.8,0,0,1-.11.89,7.06,7.06,0,0,1-.39.89,2.49,2.49,0,0,1-1.5,1.51,4.71,4.71,0,0,1-2.14.2,2,2,0,0,1-1.49-.75,2.46,2.46,0,0,1-.43-1.44c0-1.6,0-3.14.1-4.62a37.46,37.46,0,0,0,0-4.62q0-5.82-5.78-6.91a21,21,0,0,0-2.74-.24,17.73,17.73,0,0,0-2.82.17A6.52,6.52,0,0,0,96.86,255a9,9,0,0,0-1.35,5.14c0,.5,0,1.34.07,2.53C95.58,263.36,95.6,264.11,95.65,264.89ZM96.79,250a1.35,1.35,0,0,1-1.28-.1,1.18,1.18,0,0,1-.64-1.07v-1a6.73,6.73,0,0,1,.07-1c.09-1.74.2-3.46.32-5.17s.2-3.41.25-5.1a2,2,0,0,0-.5-1.13,1.68,1.68,0,0,0-1.14-.72,1.17,1.17,0,0,0-1,.52,3.1,3.1,0,0,0-.6,1.06,4.13,4.13,0,0,0-.32,1.43v1.51q-.36,5.51-.61,10.9T90.8,261c0,1.18-.08,2.37-.1,3.56s0,2.37,0,3.55a3.5,3.5,0,0,0,.46,1.07,1.18,1.18,0,0,0,1,.65c1,0,1.57-.87,1.71-2.6s.14-3.2.14-4.8a40.38,40.38,0,0,1,.29-4.79,8.18,8.18,0,0,1,2.39-5.06,9,9,0,0,1,5.31-2,21.76,21.76,0,0,1,4.27,0,9.39,9.39,0,0,1,5.73,2,8.47,8.47,0,0,1,2.32,5.38,21.47,21.47,0,0,1,.07,3c0,1-.09,2-.14,3a12.18,12.18,0,0,1-.14,1.47,16.7,16.7,0,0,0-.18,2,4.87,4.87,0,0,0,.21,1.78,1,1,0,0,0,1,.75c1.23,0,1.85-.68,1.85-2v-5c0-1.69,0-3.37-.1-5.06a11.65,11.65,0,0,0-1.25-4.69,9.25,9.25,0,0,0-3.24-3.8,9.6,9.6,0,0,0-4.6-1.74,27.08,27.08,0,0,0-5.17.17,11.33,11.33,0,0,0-2.92.82C98.64,249.12,97.65,249.56,96.79,250Z"/><path class="cls-3" d="M128.73,248.46c.14,8.15,5.56,11.5,11.84,11.5a23.47,23.47,0,0,0,9.55-1.71l1.07,4.31a28.89,28.89,0,0,1-11.48,2c-10.62,0-17-6.7-17-16.69S128.84,230,138.9,230c11.26,0,14.26,9.52,14.26,15.61a20.19,20.19,0,0,1-.22,2.8Zm18.4-4.31c.07-3.83-1.64-9.78-8.7-9.78-6.35,0-9.13,5.61-9.63,9.78Zm1.5-27.65-8.7,9.79h-4.5l6.28-9.79Z"/><path class="cls-2" d="M170.08,217.87a6.38,6.38,0,0,1,2.21-.72,13.1,13.1,0,0,1,3-.14,11.76,11.76,0,0,1,3,.55,3.7,3.7,0,0,1,2,1.4,5.53,5.53,0,0,1,1.1,2.5,4.44,4.44,0,0,1-.18,2.5,2.58,2.58,0,0,1-1.78,1.51c-.52.13-1.22.29-2.1.47a13.5,13.5,0,0,0-2.33.76,1.37,1.37,0,0,0-1,1.27v14.89a.82.82,0,0,0,.35.75,2.81,2.81,0,0,0,1.61.31q3.34-.07,6,.06c1.78.1,3.65.14,5.6.14a4.29,4.29,0,0,1,2.32.58,2.33,2.33,0,0,1,1,2,6.52,6.52,0,0,1-.25,2.6,1.92,1.92,0,0,1-1.94,1.45c-1.57,0-3.22,0-4.95-.07l-5-.27a14.46,14.46,0,0,0-3.6,0,3.39,3.39,0,0,0-2.35,1.41,7.58,7.58,0,0,0-1,3.83c0,1.55-.13,3-.25,4.41s-.22,2.87-.32,4.42a17.17,17.17,0,0,1-.21,2.16c-.09.71-.21,1.42-.36,2.15a2.74,2.74,0,0,1-1.6,2,6,6,0,0,1-2.75.47,3.11,3.11,0,0,1-2.17-.92,3.59,3.59,0,0,1-.82-2c0-.91-.06-1.86,0-2.84s.06-1.9.11-2.77c.14-1.69.31-3.35.5-5s.38-3.3.57-5a1.8,1.8,0,0,0-.75-1.85,4.34,4.34,0,0,0-2.24-.69,7.84,7.84,0,0,1-2.57-.65,2.39,2.39,0,0,1-1.28-2.22,3.39,3.39,0,0,1,1-2.53,4,4,0,0,1,2.93-1.23h2.6a1.09,1.09,0,0,0,1.07-.65,8,8,0,0,0,.32-2.33c.09-3,.23-5.93.39-8.89s.35-5.91.54-8.83a4.83,4.83,0,0,1,1.1-2.88A10,10,0,0,1,170.08,217.87Zm2.14,10a3.7,3.7,0,0,1,1.21-2.81,5.27,5.27,0,0,1,2.46-1c.93-.14,1.75-.28,2.46-.41s1.1-.44,1.14-.89a3.25,3.25,0,0,0-1.64-3.6q-1.92-1-5.49-.37a4.7,4.7,0,0,0-2.63,1.5,4.24,4.24,0,0,0-1.22,2.74c-.09,2.92-.24,5.84-.42,8.76s-.34,5.87-.43,8.83a10.82,10.82,0,0,1-.43,3,1.82,1.82,0,0,1-1.43,1.23,12.25,12.25,0,0,1-3.2.1,4,4,0,0,0-2,.21,1.84,1.84,0,0,0-1,1.71c0,.87.25,1.38.89,1.54a11,11,0,0,0,1.89.31,12.38,12.38,0,0,1,2.85.24,1.55,1.55,0,0,1,1.18,1.06,6.69,6.69,0,0,1,0,2.6c-.19,2.46-.4,4.92-.61,7.39s-.42,4.9-.61,7.32a2.63,2.63,0,0,0,.32,1.58,2.15,2.15,0,0,0,1.47.82,1.38,1.38,0,0,0,1.46-.58,4.33,4.33,0,0,0,.6-1.78,18.22,18.22,0,0,0,.18-2.09v-1.51q.14-2.52.21-5.1a44.18,44.18,0,0,1,.43-5,5.44,5.44,0,0,1,2-4,7.22,7.22,0,0,1,4.42-1,30.13,30.13,0,0,1,4.35.34,29.28,29.28,0,0,0,4.28.34,9.72,9.72,0,0,0,3.6-.31c.55-.25.77-1,.68-2.15a1.16,1.16,0,0,0-.43-.86,2,2,0,0,0-.71-.31,5.2,5.2,0,0,0-1.18-.13,9.18,9.18,0,0,1-1.17-.07c-1.95,0-3.9,0-5.85-.1l-5.85-.21c-1.57,0-2.3-.75-2.21-2.25,0-.5,0-1.41.07-2.71s.09-2.76.11-4.38.06-3.16.11-4.62.09-2.58.14-3.42Z"/><path class="cls-2" d="M200.67,239.84a5,5,0,0,1,1.5-3.29,3.59,3.59,0,0,1,2.78-.68,4.23,4.23,0,0,1,3,1.64,6.07,6.07,0,0,1,1,3.63q-.07,4.11,0,8.25t0,8.24c0,1.6-.12,3.17-.21,4.73s-.2,3.12-.29,4.72a4.36,4.36,0,0,1-1.35,3,4.69,4.69,0,0,1-2.93,1.4,2.94,2.94,0,0,1-2.78-1,7.48,7.48,0,0,1-1.14-2.6,18,18,0,0,1-.39-2.53c-.07-.87-.11-1.74-.11-2.6-.05-1.42-.07-2.82-.07-4.21v-4.19c0-2.06.11-3.87.18-5.44s.18-3.19.32-4.83S200.53,241,200.67,239.84ZM200,219.58a6.13,6.13,0,0,1,1.46-4,4.06,4.06,0,0,1,3.38-1.54,4.36,4.36,0,0,1,2.39.75,6.64,6.64,0,0,1,2,1.88A4,4,0,0,1,210,219a4.46,4.46,0,0,1-.79,2.67,7,7,0,0,1-2.14,2.12,5.32,5.32,0,0,1-2.7.89,4,4,0,0,1-3.14-1.4A5.5,5.5,0,0,1,200,219.58Zm6.7,25v-2.33a14.25,14.25,0,0,0-.1-2.26,1.87,1.87,0,0,0-.54-.89,1.65,1.65,0,0,0-.89-.54,4.44,4.44,0,0,0-.71-.21,2.75,2.75,0,0,0-1.21,0,1.64,1.64,0,0,0-1.07,1,6.41,6.41,0,0,0-.43,2.81c.05,2.37.08,4.71.11,7s0,4.67-.11,7.08c-.05,1.56-.07,3.27-.07,5.14s0,3.56.14,5.06c.05.46.09,1,.14,1.58a3.08,3.08,0,0,0,.5,1.5,1.74,1.74,0,0,0,1.64.55,1.85,1.85,0,0,0,1.5-.68,3.38,3.38,0,0,0,.53-1.51,13.65,13.65,0,0,0,.11-1.57v-5c0-1.93,0-3.81.1-5.75s.09-3.74.11-5.4,0-3,.07-4a5.65,5.65,0,0,1,.21-1.53Zm-4.92-25c-.05,2.28.75,3.44,2.42,3.49A3.52,3.52,0,0,0,207,222a3.93,3.93,0,0,0,1.24-2.73,3.47,3.47,0,0,0-1-2.47,3.14,3.14,0,0,0-2.32-1.07,2.33,2.33,0,0,0-2.13,1,5.38,5.38,0,0,0-.93,2.88Z"/><path class="cls-2" d="M228.05,246.7c-.05,2.33,0,4.67.07,7s.09,4.6,0,6.88a24.5,24.5,0,0,1-.4,3.83,21.33,21.33,0,0,1-1.1,3.76,4.15,4.15,0,0,1-1,1.44,12,12,0,0,1-1.79,1.47,3.57,3.57,0,0,1-1.67.72,3.49,3.49,0,0,1-2-.61,5.5,5.5,0,0,1-1.71-1.51,8,8,0,0,1-1.14-2.26,7.9,7.9,0,0,1-.43-2.46q.08-6.3.25-12.66t.39-12.8q.15-3.63.32-7.26c.11-2.42.25-4.86.4-7.32.14-1.46.29-2.93.46-4.42s.39-3,.68-4.41a3.37,3.37,0,0,1,1.53-2.53,6.55,6.55,0,0,1,3.67-.62,3.51,3.51,0,0,1,2.64,1,4.19,4.19,0,0,1,.86,2.57v25.06C228.12,243.44,228.09,245.18,228.05,246.7ZM225.91,229c0-1.64-.07-3.09-.07-4.34v-7.24a4.21,4.21,0,0,0-.5-2.06,1.58,1.58,0,0,0-1.86-.61,2.65,2.65,0,0,0-1.35,1,3.42,3.42,0,0,0-.86,1.57,15.49,15.49,0,0,0-.5,3.25c0,1.12-.09,2.23-.14,3.32-.19,3.33-.36,6.67-.53,10s-.32,6.63-.47,10c-.14,3.6-.27,7.21-.39,10.81s-.23,7.21-.32,10.82a5,5,0,0,0,.32,1.67,10.22,10.22,0,0,0,.76,1.47,2.67,2.67,0,0,0,2.17,1.34,2.23,2.23,0,0,0,1.89-1.54,16.11,16.11,0,0,0,1.36-4.56,44.68,44.68,0,0,0,.43-4.48c0-1.37.07-2.35.07-2.94a131.51,131.51,0,0,0,0-13.76c-.25-4.38-.2-8.94,0-13.74Z"/><path class="cls-2" d="M259.42,250.17a20.81,20.81,0,0,1-.82,8,40.15,40.15,0,0,1-3,7.05,12.06,12.06,0,0,1-4.82,4.86,10.53,10.53,0,0,1-6.52,1.09,13.91,13.91,0,0,1-7.34-2.94,9.88,9.88,0,0,1-3.57-6.09,37.37,37.37,0,0,1-.6-6.33,27,27,0,0,1,.67-6.33c.29-1.14.55-2.2.79-3.18s.52-2,.85-3a10.09,10.09,0,0,1,4.32-6,11.27,11.27,0,0,1,7.52-1.54,13.49,13.49,0,0,1,2.28.34l2.21.55a10,10,0,0,1,4.35,2.26A7.34,7.34,0,0,1,258,243c.33,1.33.66,2.61,1,3.84A17.71,17.71,0,0,1,259.42,250.17Zm-23.89,1.53c-.14,1.23-.24,2.49-.28,3.76s-.08,2.58-.08,3.9a10.5,10.5,0,0,0,3.07,7.53,8.29,8.29,0,0,0,3.6,2.3,12.21,12.21,0,0,0,4.49.58,11,11,0,0,0,4.28-1.1,6.56,6.56,0,0,0,3-2.8A34,34,0,0,0,257,257a22.3,22.3,0,0,0,.14-9.45,18.75,18.75,0,0,0-1.85-5.54,9,9,0,0,0-3.67-3.7,12.09,12.09,0,0,0-6.52-1,8.42,8.42,0,0,0-4.46,1.4,9.44,9.44,0,0,0-3,3.46c-.24.49-.45,1-.64,1.51s-.38,1.12-.57,1.71a12.68,12.68,0,0,0-.43,1.92c-.14.86-.25,1.72-.32,2.56S235.58,251.36,235.53,251.7Zm19.25-1.44a31,31,0,0,1-.68,7.74,19.92,19.92,0,0,1-3.1,7.11,6,6,0,0,1-2.81,2.36,7.87,7.87,0,0,1-4.25.18A8.54,8.54,0,0,1,240,266a5.17,5.17,0,0,1-1.92-3.12,30.59,30.59,0,0,1-.39-9.92,38.37,38.37,0,0,1,2.53-9.65,5,5,0,0,1,4.85-3.35H247a12.28,12.28,0,0,1,1.82.13,5.87,5.87,0,0,1,3.5,1.66,7.52,7.52,0,0,1,1.75,3,15.94,15.94,0,0,1,.6,3.21c.08,1.08.11,1.79.11,2.33Zm-1.5-.07a24.74,24.74,0,0,0-.35-2.84,11.94,11.94,0,0,0-1-3.08,5.26,5.26,0,0,0-2.14-2.29,4.82,4.82,0,0,0-3.46-.62,7.26,7.26,0,0,0-3.33,1.56,5.84,5.84,0,0,0-2,3,44.62,44.62,0,0,0-1.5,7.77,38.19,38.19,0,0,0,.15,8,5.3,5.3,0,0,0,.82,2.53,5.66,5.66,0,0,0,2.17,1.58,6.16,6.16,0,0,0,3.14.51,4.66,4.66,0,0,0,2.71-1.2,9.24,9.24,0,0,0,1.57-2,12.61,12.61,0,0,0,1-2.29c.53-1.64,1.08-3.34,1.68-5.1a13.37,13.37,0,0,0,.54-5.55Z"/><path class="cls-2" d="M264.26,266.7a11.43,11.43,0,0,1-1.64-2.78c-.42-1-.85-2-1.28-3a3.67,3.67,0,0,1-.14-1.51,6.47,6.47,0,0,1,.28-1.57,2.12,2.12,0,0,1,1.39-1.3,3.88,3.88,0,0,1,2-.14,2.38,2.38,0,0,1,2.14,2.4,7.33,7.33,0,0,0,5.63,6.5l2.6.48a21,21,0,0,0,2.74.27,5.87,5.87,0,0,0,3.39-1.09,4.17,4.17,0,0,0,1.93-2.26,3.35,3.35,0,0,0-.18-2.47,16.8,16.8,0,0,0-2-2.6c-.19-.18-.76-.61-1.71-1.3l-3.32-2.39c-1.25-.91-2.48-1.83-3.67-2.74a25.31,25.31,0,0,1-2.78-2.4,9.75,9.75,0,0,1-2.81-5.54,14.75,14.75,0,0,1,.53-6.16A7.25,7.25,0,0,1,268.5,235a7,7,0,0,1,1.71-1.64,16.72,16.72,0,0,1,6.49-2.5,14.5,14.5,0,0,1,6.85.65,8.36,8.36,0,0,1,4.52,3.42,8,8,0,0,1,1.25,5.48,3,3,0,0,1-.68,1.81,2.7,2.7,0,0,1-1.89.85,2.41,2.41,0,0,1-1.81-.51,3.13,3.13,0,0,1-1-1.61,4.34,4.34,0,0,0-.14-.48,2.64,2.64,0,0,1-.14-.48,7.06,7.06,0,0,0-1.18-2.53,3.78,3.78,0,0,0-2.32-1.43,5.14,5.14,0,0,0-3.31.13,6.67,6.67,0,0,0-2.6,1.85,5.08,5.08,0,0,0-.89,1.71,3.09,3.09,0,0,0-.11,1.78,15.82,15.82,0,0,0,1.14,2.64,9.13,9.13,0,0,0,1.71,2.29,35.32,35.32,0,0,0,7.13,5.06,12.3,12.3,0,0,1,5,4.62,14.19,14.19,0,0,1,1.78,6.2,5.47,5.47,0,0,1-.78,3.28,11.6,11.6,0,0,1-2.53,3.05,14.12,14.12,0,0,1-3.57,2.29,10.46,10.46,0,0,1-3.88,1,34.35,34.35,0,0,1-5.46-.31,19.15,19.15,0,0,1-5.34-1.5A11.16,11.16,0,0,1,264.26,266.7Zm7-25.94a7,7,0,0,1,1.85-3.84,7.38,7.38,0,0,1,7.7-2.32,4,4,0,0,1,3,2,19.65,19.65,0,0,1,1.19,3.24c.14.41.31.88.5,1.4a1,1,0,0,0,1,.79,1.69,1.69,0,0,0,1.28-.79c.33-.48.33-1.42,0-2.84a7.61,7.61,0,0,0-3-4.79A9.9,9.9,0,0,0,278.9,232a11.91,11.91,0,0,0-6.74,1.91A8.43,8.43,0,0,0,268.7,239a11.09,11.09,0,0,0,.18,5.06,8.57,8.57,0,0,0,2.75,4.18q2.49,2.19,5.1,4.24t5.24,4a14.61,14.61,0,0,1,2.42,2.16,4.5,4.5,0,0,1,1.07,2.91,5.62,5.62,0,0,1-1.46,3.7,7.28,7.28,0,0,1-3.85,2.29,11.49,11.49,0,0,1-4.6,0,21.07,21.07,0,0,1-4.31-1.33,10.85,10.85,0,0,1-3.85-2.67,8.16,8.16,0,0,1-2-4.24,5.17,5.17,0,0,0-.33-1.1c-.16-.41-.41-.62-.74-.62a1.13,1.13,0,0,0-1.15.55,1.78,1.78,0,0,0-.35,1.44,13.23,13.23,0,0,0,.85,3.15,9,9,0,0,0,1.72,2.74,14,14,0,0,0,7.73,4.51,21.51,21.51,0,0,0,9-.27,7.81,7.81,0,0,0,5-3.59,9.13,9.13,0,0,0-.86-10.34,15.28,15.28,0,0,0-3.74-3q-2-1.25-3.89-2.5c-1.26-.85-2.51-1.7-3.74-2.57a13.07,13.07,0,0,1-2.89-3,5,5,0,0,1-.75-3.85Z"/><g id="_000000ff" data-name=" 000000ff"><path d="M112.37-165.14l.21-.06h0ZM95.89,2.81V183.45H202.48V2.81ZM186.33,9.5c.49-.81,1.58-.51,2.36-.57,2.12.18,4.27-.61,6.35,0a1,1,0,0,1,.42.28l.09.13a.41.41,0,0,1,0,.09.17.17,0,0,1,0,.1,2.5,2.5,0,0,1,.07.26c.07.4,0,.85.08,1.21,0,.79.06,1.65,0,2.46V14a1.53,1.53,0,0,1-.08.37c0,.12,0,.11,0,.17a2.77,2.77,0,0,1-.45.89h-7.57c-.52,0-1.19-.2-1.31-.74a.86.86,0,0,1,0-.32A34.55,34.55,0,0,1,186.33,9.5Zm0,18.2v-.15a.79.79,0,0,1,.23-.35c.44-.37,1.29-.27,1.84-.3,2.12.12,4.26-.13,6.37.07a.87.87,0,0,1,.66.43l.06.12a.61.61,0,0,1,0,.12.88.88,0,0,1,.05.15,8.75,8.75,0,0,1,.18,1.25v2a5.75,5.75,0,0,1,0,.83,2.47,2.47,0,0,1-.11.54,3.24,3.24,0,0,1-.19.52,2.15,2.15,0,0,1-.14.26c-1.48.46-3.11.11-4.65.21-1.43-.1-3,.27-4.31-.29h0V32.9h0a32.25,32.25,0,0,1-.07-5.2Zm0,54.77a3.18,3.18,0,0,1,.07-.75.64.64,0,0,1,.06-.18.75.75,0,0,1,.07-.12l.09-.09a.57.57,0,0,1,.28-.11,40,40,0,0,1,6.38-.16,7,7,0,0,1,2.08.22,2.31,2.31,0,0,1,.3.61,1.09,1.09,0,0,1,.07.24,2.21,2.21,0,0,1,.05.25,4.1,4.1,0,0,1,.06.49v1a10,10,0,0,1-.25,2.93h0c-.31.82-1.34.77-2.06.82h-5.36c-.64-.05-1.49-.08-1.81-.74h0a34.14,34.14,0,0,1-.11-4.41Zm9.55-34a5,5,0,0,1-.56,2.86h0a21.76,21.76,0,0,1-5.7.19,27,27,0,0,1-2.7-.09,1.21,1.21,0,0,1-.33-.38.75.75,0,0,1-.1-.2,1.37,1.37,0,0,1-.13-.45V48.74c.11-1.28-.3-2.7.49-3.83,2.07,0,4.14.12,6.21,0a5.54,5.54,0,0,1,2.39.26,7.39,7.39,0,0,1,.32,3.29Zm-.13,20.21a.79.79,0,0,1-.27.56.66.66,0,0,1-.2.14,2.29,2.29,0,0,1-.37.12,2.51,2.51,0,0,1-.77.1c-2.4-.2-4.82-.07-7.23-.14l-.64-.52h0c0-1.64-.11-3.28,0-4.92a1,1,0,0,1,0-.25,1.54,1.54,0,0,1,.08-.19,1.26,1.26,0,0,1,.44-.42h.15l.15,0,.32-.07h7.16a.84.84,0,0,1,.78.32,1.43,1.43,0,0,1,.14.2,2.6,2.6,0,0,1,.1.25.66.66,0,0,1,.06.2.61.61,0,0,1,0,.19v.38a25.39,25.39,0,0,1,0,4.09Zm-92-5.74h8.38a2.51,2.51,0,0,1,.67,1.86c-.06,1.56.25,3.21-.37,4.7a41,41,0,0,1-4.15.18h-3.18a6.26,6.26,0,0,1-.7-.08,2,2,0,0,1-.35-.06.79.79,0,0,1-.22-.06.31.31,0,0,1-.13-.06l-.17-.11a.65.65,0,0,1-.16-.17,15,15,0,0,1-.1-2.32C103.36,65.45,103.1,64.08,103.77,62.94Zm2.6-18h5.26a.92.92,0,0,1,.33,0h.19l.1.07a.16.16,0,0,1,.09.07l.06.06h0a.66.66,0,0,1,.12.17,1.23,1.23,0,0,1,.14.31v.06a1.78,1.78,0,0,1,.07.39,26.11,26.11,0,0,1-.15,5,6.25,6.25,0,0,1-.72.17c-.22,0-.45.07-.68.09-.51.05-1,.07-1.52.07-1.06,0-2.12-.07-3.17,0h-1.44a4.78,4.78,0,0,1-.53-.06,2.78,2.78,0,0,1-1-.35,24.36,24.36,0,0,1-.13-5.05.92.92,0,0,1,.45-.82,1.37,1.37,0,0,1,.44-.16,2.68,2.68,0,0,1,.49,0h1.6Zm6.48-13.08a3.23,3.23,0,0,1,0,.44.33.33,0,0,0,0,.14,2,2,0,0,1-.07.26,1.58,1.58,0,0,1-.2.36.4.4,0,0,1-.13.13.29.29,0,0,1-.12.07h-.06a.06.06,0,0,1-.06,0,.81.81,0,0,1-.22,0c-2.25.11-4.5,0-6.75.05H105a3.47,3.47,0,0,1-.91-.09.68.68,0,0,1-.2-.07.85.85,0,0,1-.32-.33,21.93,21.93,0,0,1-.16-4.13,5.81,5.81,0,0,1,0-.59.74.74,0,0,1,.06-.36l.06-.2a.91.91,0,0,1,.07-.14h0a.36.36,0,0,1,.07-.1h0a.52.52,0,0,1,.1-.11.49.49,0,0,1,.18-.14l.2-.11a50.27,50.27,0,0,1,5.21-.09,7.8,7.8,0,0,1,3.29.29h0a25,25,0,0,1,.18,4.74ZM103.42,9.55a.75.75,0,0,1,.07-.12.76.76,0,0,1,.08-.11h0a.9.9,0,0,1,.2-.19h.08a1,1,0,0,1,.21-.09,1.33,1.33,0,0,1,.34-.1h8.14a1.34,1.34,0,0,1,.09.26.86.86,0,0,1,.07.21,1.7,1.7,0,0,1,.06.31,2.76,2.76,0,0,1,.06.4,21.11,21.11,0,0,1,0,2.25v.75c0,.25,0,.51,0,.76a1.93,1.93,0,0,1,0,.34h0a1.61,1.61,0,0,1-.1.36,1.83,1.83,0,0,1-.14.32,1.9,1.9,0,0,1-.22.33c-1.35.12-2.71.1-4.06.09h-2.82a5.21,5.21,0,0,1-.79,0h-.25a1.06,1.06,0,0,1-.35-.09l-.16-.07h-.16a.52.52,0,0,1-.11-.1,1,1,0,0,1-.21-.46h0A25.07,25.07,0,0,1,103.42,9.55Zm9.13,167.81c-1.19.72-2.68.46-4,.52-1.74-.1-3.65.33-5.21-.64v-5.57c1.21-.84,2.73-.5,4.1-.56a27.19,27.19,0,0,1,4.6.16c.88.26.82,1.32.84,2C112.77,174.66,113.05,176.08,112.55,177.36Zm.31-19.77a2.87,2.87,0,0,1-.47,1.89,9.56,9.56,0,0,1-2.72.21h-4.3a5.38,5.38,0,0,1-1-.06c-.75,0-1-.83-1-1.48,0-1.62-.24-3.32.31-4.89l1-.09H108a37.6,37.6,0,0,1,4.11.1h0a3.17,3.17,0,0,1,.59.1h0A28.33,28.33,0,0,1,112.86,157.59Zm0-17.71c-.07.51.09,1.29-.54,1.51l-.3.1h-.15a3.1,3.1,0,0,1-.61.09h-2.14c-1.93-.08-3.94.36-5.79-.35a48.57,48.57,0,0,1,.12-5.66c.55-.64,1.53-.51,2.29-.6a54,54,0,0,1,6.73.17c.63,1.5.3,3.16.38,4.74Zm-9.49-21.69v-.36h0a.33.33,0,0,1,0-.14v-.12a1,1,0,0,1,.11-.17.68.68,0,0,1,.26-.18.81.81,0,0,1,.22,0c1.24-.06,2.48,0,3.72,0h1.54a11.46,11.46,0,0,0,1.17-.06,6.8,6.8,0,0,1,1.35.08h.17a1,1,0,0,1,.52.32.57.57,0,0,1,.12.18.73.73,0,0,1,.1.28,36.82,36.82,0,0,1,.07,3.93,2.94,2.94,0,0,1-.16,1.06l-.08.15a.71.71,0,0,1-.1.14.89.89,0,0,1-.39.27,5,5,0,0,1-.67.13h-6.55a8.22,8.22,0,0,1-1.3-.15A43.56,43.56,0,0,1,103.37,118.19Zm9.11-12.71c-2.44.18-4.88.09-7.32.11-.58-.08-1.4.07-1.74-.53a45.32,45.32,0,0,1-.09-5.34l.8-.78h7.45a1.33,1.33,0,0,1,1.27,1.39.49.49,0,0,1,0,.12C112.77,102.14,113.11,103.94,112.48,105.48Zm0-18c-2.34.24-4.7.1-7,.14a3.08,3.08,0,0,1-2.16-.68,51.55,51.55,0,0,1,.1-5.42c.5-.75,1.51-.66,2.3-.68h5.62c.63,0,1.48.24,1.47,1,0,1.94.28,3.88-.32,5.67Zm68.29,93.92c-21.13.1-42.26,0-63.39,0V133.65c.16-5.9,0-11.81,0-17.72.14-4,0-8.06,0-12.09,0-2.41.11-4.82,0-7.23.82,0,1.64-.08,2.46-.09h50.34c3.53,0,7.06-.09,10.59.09Q180.7,139,180.77,181.4Zm0-90q-31.7.12-63.39,0c0-5.7-.13-11.4,0-17.11-.11-16.78,0-33.56,0-50.35V6.56c4.09-.23,8.19-.26,12.29-.23,7.31-.08,14.61.37,21.92,0,7.51,0,15-.13,22.51.14,2.23,0,4.45-.08,6.66.09q-.06,42.47,0,84.85Zm15,83.54v.72a3.77,3.77,0,0,1-.47,1.77h0a7.7,7.7,0,0,1-2.78.33l-5-.09a1.39,1.39,0,0,1-.82-.2.33.33,0,0,1-.15-.11.83.83,0,0,1-.21-.28.66.66,0,0,1-.06-.2,24.26,24.26,0,0,1,0-4.82,1,1,0,0,1,.28-.5c.49-.5,1.41-.42,2.09-.42,2,.07,4.07-.13,6.09.11a1.12,1.12,0,0,1,.69.49,1.62,1.62,0,0,1,.1.18v.14a1.17,1.17,0,0,1,.07.25,2.52,2.52,0,0,1,.08.54v.79A6,6,0,0,1,195.77,174.94Zm0-17.32a4.78,4.78,0,0,1-.21,1.31,3.1,3.1,0,0,1-.23.6c-2,.41-4.06.12-6.09.22-.81-.05-1.82.15-2.51-.32a1.7,1.7,0,0,1-.37-.34,27.6,27.6,0,0,1-.09-5.3l.55-.54c2.58-.06,5.17-.07,7.75,0a.85.85,0,0,1,.75.27.31.31,0,0,1,.09.11.94.94,0,0,1,.14.26h0V154a1.38,1.38,0,0,1,.08.29v.2a5,5,0,0,1,0,.55c0,.74.05,1.52,0,2.28.05.08.1.15.14.23Zm-.24-16.77a.94.94,0,0,1-.1.28h0a.79.79,0,0,1-.37.35,3,3,0,0,1-1.34.27h-5.61c-.67,0-1.57-.12-1.8-.87h0a31.3,31.3,0,0,1-.11-4.11,2.25,2.25,0,0,1,.24-1.28l.07-.07a.31.31,0,0,1,.2-.11h.12a40,40,0,0,1,5.79-.21,5.91,5.91,0,0,1,2.88.48,13,13,0,0,1,.05,5.24Zm.08-17.94h0a.67.67,0,0,1-.09.21.65.65,0,0,1-.15.18.57.57,0,0,1-.18.12.85.85,0,0,1-.22.09.79.79,0,0,1-.22.06h0c-.23,0-.47.07-.7.09h-6.22a1.21,1.21,0,0,1-.38,0,1.31,1.31,0,0,1-.47-.12,1,1,0,0,1-.55-.42.53.53,0,0,1-.11-.21,1,1,0,0,1,0-.24c-.13-1.75,0-3.51,0-5.27a9.62,9.62,0,0,1,4.13-.3c1.49.17,3-.14,4.47,0a.87.87,0,0,1,.75.62,3.18,3.18,0,0,1,.13.51,4.34,4.34,0,0,1,0,.51,19.78,19.78,0,0,1-.17,4.14Zm-.08-17.51h0c-2,.47-4,.12-6,.23-1.05-.08-2.33.24-3.18-.53h0c-.35-1.78,0-3.61-.12-5.42a3.45,3.45,0,0,1,2.16-.61,62.93,62.93,0,0,1,7,.18,14.52,14.52,0,0,1,.16,6.12Z"/></g><path class="cls-2" d="M103.33,177.24v-5.57c1.21-.84,2.73-.5,4.1-.56a27.31,27.31,0,0,1,4.61.16c.87.26.81,1.32.83,2-.06,1.35.2,2.76-.31,4-1.19.71-2.68.45-4,.51C106.77,177.78,104.89,178.21,103.33,177.24Z"/><path class="cls-2" d="M103.32,141.24a48.57,48.57,0,0,1,.12-5.66c.55-.64,1.53-.51,2.3-.6a55.8,55.8,0,0,1,6.72.17c.64,1.5.34,3.15.39,4.73-.06.51.09,1.29-.53,1.51a8.9,8.9,0,0,1-3.21.2C107.18,141.51,105.18,141.94,103.32,141.24Z"/><path class="cls-2" d="M103.43,105.06a45.33,45.33,0,0,1-.1-5.34l.8-.78h7.45a1.33,1.33,0,0,1,1.27,1.39.49.49,0,0,1,0,.12c0,1.67.27,3.42-.36,5-2.44.18-4.88.09-7.32.11C104.58,105.51,103.77,105.66,103.43,105.06Z"/><path class="cls-2" d="M103.32,87a49,49,0,0,1,.11-5.42c.49-.76,1.5-.67,2.29-.69h5.62c.64,0,1.48.24,1.47,1,0,1.85.29,3.79-.31,5.58-2.35.24-4.7.1-7,.14a3,3,0,0,1-2.13-.66Z"/><path class="cls-2" d="M103.43,69.05a13.82,13.82,0,0,1-.11-2.32c0-1.28-.22-2.66.48-3.83h8.38a2.58,2.58,0,0,1,.68,1.87c-.07,1.56.24,3.21-.38,4.7a61.68,61.68,0,0,1-7.32.14c-.58-.12-1.35,0-1.73-.54Z"/><path class="cls-2" d="M103.4,14.57a26.1,26.1,0,0,1,0-5c.43-.9,1.54-.63,2.37-.63,2.27.09,4.56-.14,6.82.12a9.24,9.24,0,0,1,.32,3.43,4.34,4.34,0,0,1-.55,2.91c-2.28.2-4.58,0-6.87.09-.73,0-1.87.07-2-.87Z"/><path class="cls-2" d="M104.34,159.63c-.75,0-1-.83-1-1.47,0-1.63-.24-3.33.31-4.9a38.71,38.71,0,0,1,4.31-.09,24.74,24.74,0,0,1,4.71.2,28.32,28.32,0,0,1,.17,4.22,2.9,2.9,0,0,1-.47,1.9,9.56,9.56,0,0,1-2.72.21C107.89,159.64,106.11,159.79,104.34,159.63Z"/><path class="cls-2" d="M103.47,123.47a46.31,46.31,0,0,1-.1-5.27c0-.46.15-1.07.72-1,2.14-.11,4.29,0,6.43-.12.79,0,2.06-.11,2.26.91a36.82,36.82,0,0,1,.07,3.93c0,.6-.08,1.39-.73,1.63a9.16,9.16,0,0,1-2.45.15,51.31,51.31,0,0,1-6.2-.19Z"/><path class="cls-2" d="M103.54,51.16a24,24,0,0,1-.15-5.22c0-.89,1-1.09,1.66-1,2.2.13,4.4,0,6.6,0,.74-.11,1.13.64,1.16,1.26a26.11,26.11,0,0,1-.14,5c-2,.57-4.06.19-6.1.35a5.71,5.71,0,0,1-3-.42Z"/><path class="cls-2" d="M103.51,32.94a22,22,0,0,1-.16-4.14c0-.66,0-1.61.83-1.78a50.13,50.13,0,0,1,5.2-.09,7.8,7.8,0,0,1,3.29.29,24.62,24.62,0,0,1,.18,4.7c0,.62-.12,1.53-.94,1.47-2.25.11-4.5,0-6.75,0-.56-.07-1.33.08-1.65-.51Z"/><path class="cls-2" d="M186.32,176.86a24.26,24.26,0,0,1,0-4.82c.27-1.06,1.53-.94,2.37-.94,2,.08,4.08-.12,6.09.12,1,.26,1,1.53,1,2.38-.06,1.26.17,2.67-.49,3.8a8.22,8.22,0,0,1-2.79.33l-5-.09A1.12,1.12,0,0,1,186.32,176.86Z"/><path class="cls-2" d="M186.38,159.06a27.82,27.82,0,0,1-.09-5.32l.55-.54q3.87-.09,7.76,0c1-.09,1.16,1.11,1.17,1.86,0,1.47.25,3.07-.42,4.44-2,.41-4.06.12-6.09.22C188.3,159.64,187.06,159.94,186.38,159.06Z"/><path class="cls-2" d="M186.34,140.86a28.19,28.19,0,0,1-.12-4.11c0-.52-.08-1.39.63-1.5a37.33,37.33,0,0,1,5.79-.21,5.69,5.69,0,0,1,2.88.48,13.14,13.14,0,0,1,0,5.3c-.19.83-1.14.86-1.81.89h-5.62C187.46,141.74,186.57,141.61,186.34,140.86Z"/><path class="cls-2" d="M187.84,123.64c-.64,0-1.5-.25-1.56-1-.13-1.76,0-3.52,0-5.29a9.46,9.46,0,0,1,4.13-.29c1.49.16,3-.15,4.47,0,.81.06.89,1,.92,1.65a19.67,19.67,0,0,1-.14,4.13c-.17.7-1,.7-1.57.75C192,123.67,189.91,123.65,187.84,123.64Z"/><path class="cls-2" d="M186.37,105.06a37.85,37.85,0,0,1-.12-5.43,3.46,3.46,0,0,1,2.16-.62,60.55,60.55,0,0,1,7,.19,14.59,14.59,0,0,1,.12,6.17c-2,.46-4,.11-6,.23C188.5,105.51,187.22,105.83,186.37,105.06Z"/><path class="cls-2" d="M186.32,86.86a33.86,33.86,0,0,1-.07-4.39c0-.45,0-1.18.58-1.27a39.88,39.88,0,0,1,6.37-.15,7,7,0,0,1,2.08.21,4.79,4.79,0,0,1,.49,2.68,10,10,0,0,1-.25,2.93c-.31.82-1.34.78-2.06.82H188.1c-.64,0-1.48-.07-1.81-.74Z"/><path class="cls-2" d="M186.27,68.94c0-1.64-.11-3.28,0-4.92,0-.81.9-1.12,1.58-1.06h6.75c.84-.09,1.15.9,1.16,1.57a24.42,24.42,0,0,1-.09,4.19c0,.79-1,.9-1.61.9-2.4-.2-4.82-.06-7.23-.14Z"/><path class="cls-2" d="M186.84,51.41c-.81-.62-.56-1.78-.61-2.67.1-1.28-.31-2.71.48-3.84,2.07,0,4.15.11,6.22,0a5.49,5.49,0,0,1,2.38.26c.64,1,.44,2.19.49,3.29a4.1,4.1,0,0,1-.56,2.86,21.76,21.76,0,0,1-5.7.18,24.37,24.37,0,0,1-2.7-.1Z"/><path class="cls-2" d="M186.32,32.87a31.87,31.87,0,0,1,0-5.17c.15-1,1.39-.78,2.11-.82,2.12.12,4.26-.13,6.37.07,1,.13.88,1.36,1,2.09,0,1.36.33,2.92-.44,4.14-1.48.47-3.11.11-4.65.21-1.43-.1-3,.27-4.31-.29v-.22Z"/><path class="cls-2" d="M187.59,15.43c-.61,0-1.41-.29-1.32-1a33.81,33.81,0,0,1,.06-4.93c.49-.81,1.58-.51,2.36-.57,2.12.18,4.27-.61,6.35,0,.87.28.68,1.38.75,2.09-.08,1.48.33,3.14-.63,4.41Z"/></svg>