<svg id="Layer_1" data-name="Layer 1" xmlns="http://www.w3.org/2000/svg" viewBox="0 0 316.49 79.38"><rect width="316.49" height="79.38" style="fill:none"/><path d="M48.67,59.41a10.07,10.07,0,0,0,5.13-.79,13.16,13.16,0,0,0,4.42-3.25,13.32,13.32,0,0,1,4.13-3.22,2.85,2.85,0,0,1,2.36-.41,4,4,0,0,1,2,1.44A3.24,3.24,0,0,1,67,57.56a26.43,26.43,0,0,1-6.31,6,19,19,0,0,1-8.59,2.91,44.87,44.87,0,0,1-6.56.31,17,17,0,0,1-6.35-1.54A19.34,19.34,0,0,1,27.85,52.7a42.26,42.26,0,0,1-1.71-12.8,25.12,25.12,0,0,1,3.63-12.32,30.55,30.55,0,0,1,7.42-8.72A20.38,20.38,0,0,1,48,14.65a18.46,18.46,0,0,1,8.81,1,20.81,20.81,0,0,1,7.24,4.72,3.32,3.32,0,0,1,.64,4.38,3.46,3.46,0,0,1-4.28,1.71l-1.75-.72A12.45,12.45,0,0,1,57,24.85a12.13,12.13,0,0,0-7.88-2.26,15.37,15.37,0,0,0-7.74,3.08,14.62,14.62,0,0,0-4.31,5,21.38,21.38,0,0,0-2.28,6.81,27.53,27.53,0,0,0-.22,7.42,22.36,22.36,0,0,0,1.86,7,15.51,15.51,0,0,0,3.88,5.34,11.08,11.08,0,0,0,1.93,1.3,6.89,6.89,0,0,0,2.39.65C45.61,59.28,47,59.36,48.67,59.41Zm-20-12.87A28.25,28.25,0,0,0,33.12,58a16.54,16.54,0,0,0,9.27,6.53,15.48,15.48,0,0,0,6.49.52c2.14-.3,4.25-.66,6.35-1.07a13.75,13.75,0,0,0,5.49-2.46,21.19,21.19,0,0,0,4.13-4.17,4.08,4.08,0,0,0,.71-1.68,1.55,1.55,0,0,0-.85-1.54q-.93-.82-1.68-.48a5.36,5.36,0,0,0-1.46,1c-.33.32-.67.61-1,.89a4.05,4.05,0,0,0-.85,1,11.29,11.29,0,0,1-3.89,2.95A21.12,21.12,0,0,1,51.09,61q-6.27,1.1-10.3-1t-6.45-7.7a23.21,23.21,0,0,1-1.75-7,53.6,53.6,0,0,1-.18-7.16,15.52,15.52,0,0,1,3.42-9.2,27,27,0,0,1,8.42-6.68,11,11,0,0,1,5-1.09,20.91,20.91,0,0,1,5.53.72,11,11,0,0,1,4.13,1.95l.79.58a2.92,2.92,0,0,0,.92.45,4.62,4.62,0,0,0,1,.17.91.91,0,0,0,.79-.24,2.13,2.13,0,0,0,.35-2,1.92,1.92,0,0,0-.39-.82,3.64,3.64,0,0,0-.68-.68,20.71,20.71,0,0,0-6.41-3.77A14.49,14.49,0,0,0,47.88,17a20.92,20.92,0,0,0-10.55,4.56,29.2,29.2,0,0,0-7,8.65A16.73,16.73,0,0,0,29,34.63a39.57,39.57,0,0,0-.64,6A32.75,32.75,0,0,0,28.63,46.54Z" transform="translate(0 -0.28)" style="fill:#fff"/><path d="M75.54,36.14A5,5,0,0,1,77,32.85a3.61,3.61,0,0,1,2.78-.68,4.24,4.24,0,0,1,3,1.64,6.05,6.05,0,0,1,1,3.63q-.07,4.11,0,8.25t0,8.24c0,1.6-.12,3.17-.22,4.73s-.19,3.12-.28,4.72a4.33,4.33,0,0,1-1.36,3,4.62,4.62,0,0,1-2.92,1.4,2.93,2.93,0,0,1-2.78-1,7.42,7.42,0,0,1-1.14-2.6,17.54,17.54,0,0,1-.39-2.53c-.08-.87-.11-1.74-.11-2.6,0-1.42-.07-2.82-.07-4.21V50.65c0-2.06.1-3.87.18-5.44s.17-3.19.32-4.83S75.4,37.33,75.54,36.14ZM74.9,15.88a6.23,6.23,0,0,1,1.46-4,4.09,4.09,0,0,1,3.39-1.54,4.39,4.39,0,0,1,2.39.75,6.89,6.89,0,0,1,2,1.88,4.09,4.09,0,0,1,.78,2.36A4.34,4.34,0,0,1,84.1,18,7,7,0,0,1,82,20.12a5.35,5.35,0,0,1-2.71.89,4,4,0,0,1-3.14-1.4A5.56,5.56,0,0,1,74.9,15.88Zm6.7,25c0-.78,0-1.55,0-2.33a14,14,0,0,0-.11-2.26,1.74,1.74,0,0,0-.53-.89,1.7,1.7,0,0,0-.89-.54,4.33,4.33,0,0,0-.72-.21,2.74,2.74,0,0,0-1.21,0,1.67,1.67,0,0,0-1.07,1,6.68,6.68,0,0,0-.42,2.81c0,2.37.08,4.71.1,7s0,4.67-.1,7.08c0,1.56-.08,3.27-.08,5.14s0,3.56.15,5.06c0,.46.09,1,.14,1.58a3,3,0,0,0,.5,1.5,1.75,1.75,0,0,0,1.64.55,1.88,1.88,0,0,0,1.5-.68,3.4,3.4,0,0,0,.53-1.51,13.7,13.7,0,0,0,.11-1.57c0-1.42,0-3.07,0-5s.06-3.81.11-5.75.08-3.74.11-5.4,0-3,.07-4A6.9,6.9,0,0,1,81.6,40.93Zm-4.91-25q-.07,3.42,2.42,3.49a3.51,3.51,0,0,0,2.74-1.1,4,4,0,0,0,1.25-2.73,3.49,3.49,0,0,0-1-2.47A3.12,3.12,0,0,0,79.75,12a2.34,2.34,0,0,0-2.14,1A5.54,5.54,0,0,0,76.69,15.88Z" transform="translate(0 -0.28)" style="fill:#fff"/><path d="M95.65,61.19a13,13,0,0,1-.07,2.33,3.47,3.47,0,0,1-1.18,2.73,3.58,3.58,0,0,1-2.53.82,3.3,3.3,0,0,1-2.21-1.23,3.69,3.69,0,0,1-.85-2.67c.09-2.14.2-4.3.32-6.46s.22-4.33.32-6.47q.28-4,.57-8.15T90.59,34a10.51,10.51,0,0,1,.21-2.12A2.27,2.27,0,0,1,92,30.22a4,4,0,0,1,2-.38,5.2,5.2,0,0,1,2.07.55A1.53,1.53,0,0,1,97,31.83a19.53,19.53,0,0,1,0,3.42c-.09,1.14-.16,2.26-.21,3.35-.05.6-.08,1.17-.11,1.71s-.06,1.1-.1,1.65c-.1.86-.18,1.51-.25,1.95s0,.62.35.58a9.1,9.1,0,0,0,2-.82,12.18,12.18,0,0,1,5.67-1.41,23.9,23.9,0,0,1,5.53.52,8.41,8.41,0,0,1,5.38,3.08,13.69,13.69,0,0,1,2.46,5.88,38.35,38.35,0,0,1,.68,5.92c.07,2,.15,4,.25,6a1.77,1.77,0,0,1-.11.89,8.2,8.2,0,0,1-.39.89,2.51,2.51,0,0,1-1.5,1.51,4.75,4.75,0,0,1-2.14.2,2,2,0,0,1-1.49-.75,2.43,2.43,0,0,1-.43-1.44c0-1.6,0-3.14.1-4.62s.09-3,0-4.62q0-5.82-5.78-6.91a20.67,20.67,0,0,0-2.74-.24,16.81,16.81,0,0,0-2.82.17,6.5,6.5,0,0,0-4.49,2.53,9,9,0,0,0-1.35,5.14c0,.5,0,1.34.07,2.53C95.58,59.66,95.6,60.41,95.65,61.19Zm1.14-14.92a1.36,1.36,0,0,1-1.28-.1,1.19,1.19,0,0,1-.64-1.07v-1a6.2,6.2,0,0,1,.07-1c.09-1.74.2-3.46.32-5.17s.2-3.41.25-5.1a2,2,0,0,0-.5-1.13,1.7,1.7,0,0,0-1.14-.72,1.15,1.15,0,0,0-1,.52,3.15,3.15,0,0,0-.6,1.06,4.08,4.08,0,0,0-.32,1.43c0,.51,0,1,0,1.51Q91.59,41,91.34,46.4T90.8,57.29c0,1.18-.08,2.37-.1,3.56s0,2.37,0,3.55a3.43,3.43,0,0,0,.46,1.07,1.19,1.19,0,0,0,1,.65c1,0,1.57-.87,1.71-2.6s.14-3.2.14-4.8a40.64,40.64,0,0,1,.29-4.79,8.19,8.19,0,0,1,2.39-5.06,9,9,0,0,1,5.31-2,21.76,21.76,0,0,1,4.27,0A9.38,9.38,0,0,1,112,48.9a8.44,8.44,0,0,1,2.32,5.38,21.94,21.94,0,0,1,.07,3c-.05,1-.09,2-.14,3a12.29,12.29,0,0,1-.14,1.47,16.66,16.66,0,0,0-.18,2,4.89,4.89,0,0,0,.21,1.78,1,1,0,0,0,1,.75c1.23,0,1.85-.68,1.85-2,0-1.64,0-3.31,0-5s0-3.37-.1-5.06a11.7,11.7,0,0,0-1.25-4.69,9.3,9.3,0,0,0-3.24-3.8,9.6,9.6,0,0,0-4.6-1.74,26.57,26.57,0,0,0-5.17.17,11.41,11.41,0,0,0-2.92.82C98.64,45.42,97.65,45.86,96.79,46.27Z" transform="translate(0 -0.28)" style="fill:#fff"/><path d="M128.73,44.76c.14,8.15,5.56,11.5,11.84,11.5a23.46,23.46,0,0,0,9.55-1.71l1.07,4.31a28.94,28.94,0,0,1-11.48,2c-10.62,0-17-6.7-17-16.69s6.13-17.87,16.19-17.87c11.26,0,14.26,9.52,14.26,15.61a20,20,0,0,1-.22,2.8Zm18.4-4.31c.07-3.83-1.64-9.78-8.7-9.78-6.35,0-9.13,5.61-9.63,9.78Zm1.5-27.65-8.7,9.79h-4.5l6.28-9.79Z" transform="translate(0 -0.28)" style="fill:#8a162d"/><path d="M170.08,14.17a6.28,6.28,0,0,1,2.21-.72,13.07,13.07,0,0,1,3-.14,11.78,11.78,0,0,1,3,.55,3.72,3.72,0,0,1,2,1.4,5.54,5.54,0,0,1,1.1,2.5,4.5,4.5,0,0,1-.18,2.5,2.57,2.57,0,0,1-1.78,1.51c-.52.13-1.22.29-2.1.47A13.06,13.06,0,0,0,175,23c-.69.3-1,.72-1,1.27q0,3.56,0,7.08t0,7.09q0,.27,0,.72a.82.82,0,0,0,.35.75,2.89,2.89,0,0,0,1.61.31q3.34-.07,6,.06c1.78.1,3.65.14,5.6.14a4.26,4.26,0,0,1,2.32.58,2.33,2.33,0,0,1,1,1.95,6.57,6.57,0,0,1-.25,2.6A1.92,1.92,0,0,1,188.69,47c-1.57,0-3.22,0-4.95-.07l-5-.27a14.24,14.24,0,0,0-3.6,0,3.36,3.36,0,0,0-2.35,1.41,7.53,7.53,0,0,0-1,3.83c0,1.55-.13,3-.25,4.41s-.22,2.87-.32,4.42c0,.73-.12,1.45-.21,2.16s-.21,1.42-.36,2.15a2.75,2.75,0,0,1-1.6,2,6.07,6.07,0,0,1-2.75.47,3.14,3.14,0,0,1-2.17-.92,3.62,3.62,0,0,1-.82-2c0-.91-.06-1.86,0-2.84s.06-1.9.11-2.77c.14-1.69.31-3.35.5-5s.38-3.3.57-5a1.8,1.8,0,0,0-.75-1.85,4.27,4.27,0,0,0-2.24-.69,7.83,7.83,0,0,1-2.57-.65,2.4,2.4,0,0,1-1.28-2.22,3.38,3.38,0,0,1,1-2.53,4,4,0,0,1,2.93-1.23c1.19,0,2.05,0,2.6,0a1.08,1.08,0,0,0,1.07-.65,8,8,0,0,0,.32-2.33c.09-3,.23-5.93.39-8.89s.35-5.91.54-8.83a4.79,4.79,0,0,1,1.1-2.88A10,10,0,0,1,170.08,14.17Zm2.14,10a3.73,3.73,0,0,1,1.21-2.81,5.28,5.28,0,0,1,2.46-1c.93-.14,1.75-.28,2.46-.41s1.1-.44,1.14-.89a3.24,3.24,0,0,0-1.64-3.6q-1.92-1-5.49-.37a4.68,4.68,0,0,0-2.63,1.5,4.24,4.24,0,0,0-1.22,2.74c-.09,2.92-.24,5.84-.42,8.76s-.34,5.87-.43,8.83a10.77,10.77,0,0,1-.43,3,1.84,1.84,0,0,1-1.43,1.23,12.27,12.27,0,0,1-3.2.1,4,4,0,0,0-2,.21,1.85,1.85,0,0,0-1,1.71c0,.87.25,1.38.89,1.54a11.63,11.63,0,0,0,1.89.31,12.26,12.26,0,0,1,2.85.24,1.53,1.53,0,0,1,1.18,1.06,6.86,6.86,0,0,1,0,2.6c-.19,2.46-.4,4.92-.61,7.39s-.42,4.9-.61,7.32a2.6,2.6,0,0,0,.32,1.58,2.14,2.14,0,0,0,1.47.82,1.38,1.38,0,0,0,1.46-.58,4.26,4.26,0,0,0,.6-1.78,19,19,0,0,0,.18-2.09c0-.69,0-1.19,0-1.51q.13-2.52.21-5.1a43.73,43.73,0,0,1,.43-5A5.43,5.43,0,0,1,171.86,46,7.16,7.16,0,0,1,176.28,45a29.08,29.08,0,0,1,4.35.34,28.68,28.68,0,0,0,4.28.34,9.69,9.69,0,0,0,3.6-.31c.55-.25.77-1,.68-2.15a1.14,1.14,0,0,0-.43-.86,2,2,0,0,0-.71-.31,5.08,5.08,0,0,0-1.18-.13,11.14,11.14,0,0,1-1.17-.07c-1.95,0-3.9,0-5.85-.1L174,41.54c-1.57,0-2.3-.75-2.21-2.25,0-.5,0-1.41.07-2.71s.09-2.76.11-4.38.06-3.16.11-4.62S172.17,25,172.22,24.16Z" transform="translate(0 -0.28)" style="fill:#fff"/><path d="M200.67,36.14a4.93,4.93,0,0,1,1.5-3.29,3.59,3.59,0,0,1,2.78-.68,4.22,4.22,0,0,1,3,1.64,6.05,6.05,0,0,1,1,3.63q-.08,4.11,0,8.25t0,8.24c0,1.6-.12,3.17-.21,4.73s-.2,3.12-.29,4.72a4.36,4.36,0,0,1-1.35,3,4.65,4.65,0,0,1-2.93,1.4,2.93,2.93,0,0,1-2.78-1,7.42,7.42,0,0,1-1.14-2.6,17.54,17.54,0,0,1-.39-2.53c-.07-.87-.11-1.74-.11-2.6-.05-1.42-.07-2.82-.07-4.21V50.65c0-2.06.11-3.87.18-5.44s.18-3.19.32-4.83S200.53,37.33,200.67,36.14ZM200,15.88a6.12,6.12,0,0,1,1.46-4,4.06,4.06,0,0,1,3.38-1.54,4.39,4.39,0,0,1,2.39.75,6.76,6.76,0,0,1,2,1.88,4,4,0,0,1,.79,2.36,4.42,4.42,0,0,1-.79,2.67,7,7,0,0,1-2.14,2.12,5.32,5.32,0,0,1-2.7.89,4,4,0,0,1-3.14-1.4A5.51,5.51,0,0,1,200,15.88Zm6.7,25c0-.78,0-1.55,0-2.33a14,14,0,0,0-.1-2.26,1.85,1.85,0,0,0-.54-.89,1.66,1.66,0,0,0-.89-.54,4.1,4.1,0,0,0-.71-.21,2.74,2.74,0,0,0-1.21,0,1.62,1.62,0,0,0-1.07,1,6.49,6.49,0,0,0-.43,2.81c.05,2.37.08,4.71.11,7s0,4.67-.11,7.08c-.05,1.56-.07,3.27-.07,5.14s0,3.56.14,5.06c.05.46.09,1,.14,1.58a3.07,3.07,0,0,0,.5,1.5,1.76,1.76,0,0,0,1.64.55,1.88,1.88,0,0,0,1.5-.68,3.4,3.4,0,0,0,.53-1.51,13.7,13.7,0,0,0,.11-1.57c0-1.42,0-3.07,0-5s0-3.81.1-5.75.09-3.74.11-5.4,0-3,.07-4A5.82,5.82,0,0,1,206.73,40.93Zm-4.92-25q-.08,3.42,2.42,3.49a3.53,3.53,0,0,0,2.75-1.1,3.94,3.94,0,0,0,1.24-2.73,3.49,3.49,0,0,0-1-2.47A3.12,3.12,0,0,0,204.87,12a2.32,2.32,0,0,0-2.13,1A5.46,5.46,0,0,0,201.81,15.88Z" transform="translate(0 -0.28)" style="fill:#fff"/><path d="M228.05,43q-.08,3.5.07,7c.09,2.3.09,4.6,0,6.88a25.05,25.05,0,0,1-.4,3.83,21.67,21.67,0,0,1-1.1,3.76,4.15,4.15,0,0,1-1,1.44,11.48,11.48,0,0,1-1.79,1.47,3.67,3.67,0,0,1-1.67.72,3.48,3.48,0,0,1-2-.61,5.47,5.47,0,0,1-1.71-1.51,8.12,8.12,0,0,1-1.14-2.26,7.78,7.78,0,0,1-.43-2.46q.08-6.3.25-12.66t.39-12.8q.15-3.63.32-7.26t.4-7.32c.14-1.46.29-2.93.46-4.42s.39-3,.68-4.41a3.38,3.38,0,0,1,1.53-2.53,6.51,6.51,0,0,1,3.67-.62,3.51,3.51,0,0,1,2.64,1,4.2,4.2,0,0,1,.86,2.57c0,1.28,0,2.56,0,3.83s0,2.56,0,3.84c0,2.14,0,4.07,0,5.78s0,3.58,0,5.61v6C228.12,39.74,228.09,41.48,228.05,43Zm-2.14-17.66c0-1.64-.07-3.09-.07-4.34V13.76a4.19,4.19,0,0,0-.5-2.06,1.57,1.57,0,0,0-1.86-.61,2.62,2.62,0,0,0-1.35,1,3.43,3.43,0,0,0-.86,1.57,15.19,15.19,0,0,0-.5,3.25c0,1.12-.09,2.23-.14,3.32q-.28,5-.53,10c-.17,3.31-.32,6.63-.47,10-.14,3.6-.27,7.21-.39,10.81s-.23,7.21-.32,10.82a4.84,4.84,0,0,0,.32,1.67A10.32,10.32,0,0,0,220,65a2.67,2.67,0,0,0,2.17,1.34,2.23,2.23,0,0,0,1.89-1.54,16.17,16.17,0,0,0,1.36-4.56,43.16,43.16,0,0,0,.43-4.48c0-1.37.07-2.35.07-2.94.23-4.79.25-9.38,0-13.76S225.72,30.12,225.91,25.32Z" transform="translate(0 -0.28)" style="fill:#fff"/><path d="M259.42,46.47a20.81,20.81,0,0,1-.82,8,39.74,39.74,0,0,1-3,7.05,12,12,0,0,1-4.82,4.86,10.53,10.53,0,0,1-6.52,1.09,13.94,13.94,0,0,1-7.34-2.94,9.84,9.84,0,0,1-3.57-6.09,37.47,37.47,0,0,1-.6-6.33,27.14,27.14,0,0,1,.67-6.33c.29-1.14.55-2.2.79-3.18s.52-2,.85-3a10.1,10.1,0,0,1,4.32-6,11.26,11.26,0,0,1,7.52-1.54,13.8,13.8,0,0,1,2.28.34l2.21.55a10,10,0,0,1,4.35,2.26,7.33,7.33,0,0,1,2.21,4.1q.49,2,1,3.84A17.27,17.27,0,0,1,259.42,46.47ZM235.53,48c-.14,1.23-.24,2.49-.28,3.76s-.08,2.58-.08,3.9a10.5,10.5,0,0,0,3.07,7.53,8.25,8.25,0,0,0,3.6,2.3,12.16,12.16,0,0,0,4.49.58,11.1,11.1,0,0,0,4.28-1.1,6.53,6.53,0,0,0,3-2.8A34.07,34.07,0,0,0,257,53.32a22.43,22.43,0,0,0,.14-9.45,18.61,18.61,0,0,0-1.85-5.54,9,9,0,0,0-3.67-3.7,12,12,0,0,0-6.52-1,8.42,8.42,0,0,0-4.46,1.4,9.41,9.41,0,0,0-3,3.46A14.71,14.71,0,0,0,237,40q-.28.83-.57,1.71a12.48,12.48,0,0,0-.43,1.92c-.14.86-.25,1.72-.32,2.56S235.58,47.66,235.53,48Zm19.25-1.44a30.62,30.62,0,0,1-.68,7.74,20,20,0,0,1-3.1,7.11,6,6,0,0,1-2.81,2.36,7.86,7.86,0,0,1-4.25.18A8.59,8.59,0,0,1,240,62.25a5.22,5.22,0,0,1-1.92-3.12,30.78,30.78,0,0,1-.39-9.92,38.13,38.13,0,0,1,2.53-9.65,5,5,0,0,1,4.85-3.35H247a12.58,12.58,0,0,1,1.82.13A5.85,5.85,0,0,1,252.32,38a7.49,7.49,0,0,1,1.75,3,15.48,15.48,0,0,1,.6,3.21C254.75,45.29,254.78,46,254.78,46.54Zm-1.5-.07a23.21,23.21,0,0,0-.35-2.84,11.94,11.94,0,0,0-1-3.08,5.26,5.26,0,0,0-2.14-2.29,4.82,4.82,0,0,0-3.46-.62A7.27,7.27,0,0,0,243,39.22a5.85,5.85,0,0,0-2,3,44.22,44.22,0,0,0-1.5,7.77,37.65,37.65,0,0,0,.15,8,5.32,5.32,0,0,0,.82,2.53,5.65,5.65,0,0,0,2.17,1.58,6.19,6.19,0,0,0,3.14.51,4.67,4.67,0,0,0,2.71-1.2,9.4,9.4,0,0,0,1.57-2,12.51,12.51,0,0,0,1-2.29c.53-1.64,1.08-3.34,1.68-5.1A13.3,13.3,0,0,0,253.28,46.47Z" transform="translate(0 -0.28)" style="fill:#fff"/><path d="M264.26,63a11.64,11.64,0,0,1-1.64-2.78c-.42-1-.85-2-1.28-3a3.57,3.57,0,0,1-.14-1.51,6.53,6.53,0,0,1,.28-1.57,2.1,2.1,0,0,1,1.39-1.3,3.86,3.86,0,0,1,2-.14,2.38,2.38,0,0,1,2.14,2.4,7.34,7.34,0,0,0,5.63,6.5l2.6.48a21.88,21.88,0,0,0,2.74.27,5.91,5.91,0,0,0,3.39-1.09A4.19,4.19,0,0,0,283.3,59a3.36,3.36,0,0,0-.18-2.47,17.53,17.53,0,0,0-2-2.6c-.19-.18-.76-.61-1.71-1.3l-3.32-2.39c-1.25-.91-2.48-1.83-3.67-2.74a25.67,25.67,0,0,1-2.78-2.4,9.75,9.75,0,0,1-2.81-5.54,14.66,14.66,0,0,1,.53-6.16,7.19,7.19,0,0,1,1.14-2.12,6.94,6.94,0,0,1,1.71-1.64,16.72,16.72,0,0,1,6.49-2.5,14.48,14.48,0,0,1,6.85.65,8.34,8.34,0,0,1,4.52,3.42,8,8,0,0,1,1.25,5.48,3,3,0,0,1-.68,1.81,2.71,2.71,0,0,1-1.89.85,2.41,2.41,0,0,1-1.81-.51,3.12,3.12,0,0,1-1-1.61,4,4,0,0,0-.14-.48,3.14,3.14,0,0,1-.14-.48,7,7,0,0,0-1.18-2.53,3.79,3.79,0,0,0-2.32-1.43,5.11,5.11,0,0,0-3.31.13,6.7,6.7,0,0,0-2.6,1.85,5,5,0,0,0-.89,1.71,3.09,3.09,0,0,0-.11,1.78,15.71,15.71,0,0,0,1.14,2.64,9.07,9.07,0,0,0,1.71,2.29,35.5,35.5,0,0,0,7.13,5.06,12.22,12.22,0,0,1,5,4.62,14.14,14.14,0,0,1,1.78,6.2,5.53,5.53,0,0,1-.78,3.28,11.74,11.74,0,0,1-2.53,3.05,14.5,14.5,0,0,1-3.57,2.29,10.34,10.34,0,0,1-3.88,1,35.3,35.3,0,0,1-5.46-.31,19.35,19.35,0,0,1-5.34-1.5A11.13,11.13,0,0,1,264.26,63Zm7-25.94a7,7,0,0,1,1.85-3.84,7.38,7.38,0,0,1,7.7-2.32,4,4,0,0,1,3,2A19.39,19.39,0,0,1,285,36.14c.14.41.31.88.5,1.4a1,1,0,0,0,1,.79,1.71,1.71,0,0,0,1.28-.79c.33-.48.33-1.42,0-2.84a7.63,7.63,0,0,0-3-4.79,9.87,9.87,0,0,0-5.88-1.64,11.92,11.92,0,0,0-6.74,1.91,8.42,8.42,0,0,0-3.46,5.07,11,11,0,0,0,.18,5.06,8.51,8.51,0,0,0,2.75,4.18q2.49,2.19,5.1,4.24t5.24,4a14.72,14.72,0,0,1,2.42,2.16,4.5,4.5,0,0,1,1.07,2.91A5.65,5.65,0,0,1,284,61.5a7.25,7.25,0,0,1-3.85,2.29,11.5,11.5,0,0,1-4.6,0,21.31,21.31,0,0,1-4.31-1.33,10.91,10.91,0,0,1-3.85-2.67,8.14,8.14,0,0,1-2-4.24,4.92,4.92,0,0,0-.33-1.1c-.16-.41-.41-.62-.74-.62a1.12,1.12,0,0,0-1.15.55,1.79,1.79,0,0,0-.35,1.44,13.17,13.17,0,0,0,.85,3.15,9,9,0,0,0,1.72,2.74,14,14,0,0,0,7.73,4.51,21.57,21.57,0,0,0,9-.27,7.83,7.83,0,0,0,5-3.59,9.12,9.12,0,0,0-.86-10.34,15.08,15.08,0,0,0-3.74-3q-2-1.24-3.89-2.5c-1.26-.85-2.51-1.7-3.74-2.57a13.29,13.29,0,0,1-2.89-3A5,5,0,0,1,271.25,37.1Z" transform="translate(0 -0.28)" style="fill:#fff"/></svg>