<?xml version="1.0" encoding="utf-8"?>
<!-- Generator: Adobe Illustrator 26.0.2, SVG Export Plug-In . SVG Version: 6.00 Build 0)  -->
<svg version="1.1" id="Layer_1" xmlns="http://www.w3.org/2000/svg" xmlns:xlink="http://www.w3.org/1999/xlink" x="0px" y="0px"
	 viewBox="0 0 316.5 283.4" style="enable-background:new 0 0 316.5 283.4;" xml:space="preserve">
<style type="text/css">
	.st0{fill:none;}
	.st1{fill:#FFFFFF;}
	.st2{fill:#8A162D;}
</style>
<rect y="204" class="st0" width="316.5" height="79.4"/>
<path class="st1" d="M48.7,263.1c1.7,0.2,3.5-0.1,5.1-0.8c1.7-0.8,3.2-1.9,4.4-3.2c1.2-1.3,2.6-2.4,4.1-3.2c0.7-0.5,1.6-0.6,2.4-0.4
	c0.8,0.3,1.5,0.8,2,1.4c1.2,1.2,1.3,3.1,0.3,4.4c-1.8,2.3-3.9,4.4-6.3,6c-2.6,1.6-5.5,2.6-8.6,2.9c-2.2,0.3-4.4,0.4-6.6,0.3
	c-2.2-0.1-4.4-0.6-6.3-1.5c-5.5-2.2-9.7-6.8-11.3-12.5c-1.2-4.2-1.8-8.5-1.7-12.8c0.1-4.4,1.4-8.6,3.6-12.3c1.9-3.3,4.4-6.3,7.4-8.7
	c3.1-2.4,6.9-3.9,10.8-4.2c3-0.4,6,0,8.8,1c2.7,1,5.2,2.7,7.2,4.7c1.3,1.1,1.6,3,0.6,4.4c-0.8,1.6-2.6,2.3-4.3,1.7l-1.8-0.7
	c-0.6-0.3-1.1-0.6-1.7-0.9c-2.3-1.6-5.1-2.4-7.9-2.3c-2.8,0.3-5.5,1.4-7.7,3.1c-1.8,1.3-3.3,3-4.3,5c-1.1,2.1-1.9,4.4-2.3,6.8
	c-0.4,2.5-0.5,4.9-0.2,7.4c0.2,2.4,0.9,4.8,1.9,7c0.9,2,2.2,3.9,3.9,5.3c0.6,0.5,1.2,0.9,1.9,1.3c0.8,0.4,1.6,0.6,2.4,0.6
	C45.6,263,47,263.1,48.7,263.1z M28.7,250.2c0.6,4.1,2.1,8,4.5,11.5c2.2,3.2,5.5,5.5,9.3,6.5c2.1,0.6,4.3,0.8,6.5,0.5
	c2.1-0.3,4.2-0.7,6.3-1.1c2-0.4,3.9-1.2,5.5-2.5c1.6-1.2,3-2.6,4.1-4.2c0.4-0.5,0.6-1.1,0.7-1.7c0.1-0.6-0.3-1.3-0.8-1.5
	c-0.6-0.5-1.2-0.7-1.7-0.5c-0.5,0.3-1,0.6-1.5,1c-0.3,0.3-0.7,0.6-1,0.9c-0.3,0.3-0.6,0.6-0.8,1c-1.1,1.3-2.4,2.3-3.9,2.9
	c-1.5,0.7-3.1,1.2-4.7,1.5c-4.2,0.7-7.6,0.4-10.3-1s-4.8-4-6.5-7.7c-0.9-2.2-1.5-4.6-1.8-7c-0.2-2.4-0.3-4.8-0.2-7.2
	c0.1-3.4,1.3-6.6,3.4-9.2c2.3-2.8,5.2-5,8.4-6.7c1.6-0.8,3.3-1.1,5-1.1c1.9,0,3.7,0.2,5.5,0.7c1.5,0.4,2.9,1,4.1,1.9l0.8,0.6
	c0.3,0.2,0.6,0.4,0.9,0.5c0.3,0.1,0.7,0.2,1,0.2c0.3,0.1,0.6,0,0.8-0.2c0.4-0.6,0.6-1.3,0.3-2c-0.1-0.3-0.2-0.6-0.4-0.8
	c-0.2-0.3-0.4-0.5-0.7-0.7c-1.9-1.6-4.1-2.9-6.4-3.8c-2.4-0.8-4.9-1-7.4-0.5c-3.9,0.5-7.5,2.1-10.5,4.6c-2.9,2.4-5.2,5.3-7,8.7
	c-0.6,1.4-1.1,2.9-1.3,4.4c-0.4,2-0.6,4-0.6,6C28.3,246.3,28.4,248.3,28.7,250.2L28.7,250.2z"/>
<path class="st1" d="M75.5,239.8c0.1-1.2,0.6-2.4,1.5-3.3c0.8-0.6,1.8-0.8,2.8-0.7c1.2,0.1,2.3,0.7,3,1.6c0.7,1.1,1.1,2.3,1,3.6
	c0,2.7,0,5.5,0,8.2s0,5.5,0,8.2c0,1.6-0.1,3.2-0.2,4.7s-0.2,3.1-0.3,4.7c0,1.1-0.5,2.2-1.4,3c-0.8,0.8-1.8,1.3-2.9,1.4
	c-1,0.2-2.1-0.2-2.8-1c-0.5-0.8-0.9-1.7-1.1-2.6c-0.2-0.8-0.3-1.7-0.4-2.5c-0.1-0.9-0.1-1.7-0.1-2.6c0-1.4-0.1-2.8-0.1-4.2v-4.2
	c0-2.1,0.1-3.9,0.2-5.4c0.1-1.6,0.2-3.2,0.3-4.8S75.4,241,75.5,239.8z M74.9,219.6c0-1.5,0.5-2.9,1.5-4c0.8-1,2.1-1.6,3.4-1.5
	c0.9,0,1.7,0.3,2.4,0.8c0.8,0.5,1.5,1.1,2,1.9c0.5,0.7,0.8,1.5,0.8,2.4c0,1-0.3,1.9-0.8,2.7c-0.5,0.8-1.3,1.6-2.1,2.1
	c-0.8,0.5-1.7,0.8-2.7,0.9c-1.2,0-2.4-0.5-3.1-1.4C75.3,222.3,74.8,220.9,74.9,219.6z M81.6,244.6c0-0.8,0-1.6,0-2.3
	c0-0.8,0-1.5-0.1-2.3c-0.1-0.3-0.3-0.7-0.5-0.9c-0.2-0.3-0.5-0.5-0.9-0.5c-0.2-0.1-0.5-0.2-0.7-0.2c-0.4-0.1-0.8-0.1-1.2,0
	c-0.5,0.2-0.9,0.5-1.1,1c-0.3,0.9-0.5,1.9-0.4,2.8c0,2.4,0.1,4.7,0.1,7c0,2.3,0,4.7-0.1,7.1c0,1.6-0.1,3.3-0.1,5.1s0,3.6,0.2,5.1
	c0,0.5,0.1,1,0.1,1.6c0,0.5,0.2,1.1,0.5,1.5c0.4,0.5,1,0.7,1.6,0.6c0.6,0,1.1-0.2,1.5-0.7c0.3-0.5,0.5-1,0.5-1.5
	c0.1-0.5,0.1-1,0.1-1.6c0-1.4,0-3.1,0-5s0.1-3.8,0.1-5.8s0.1-3.7,0.1-5.4c0-1.7,0-3,0.1-4C81.4,245.6,81.5,245.1,81.6,244.6
	L81.6,244.6z M76.7,219.6c0,2.3,0.8,3.4,2.4,3.5c1,0.1,2-0.3,2.7-1.1c0.8-0.7,1.2-1.7,1.2-2.7c0-0.9-0.4-1.8-1-2.5
	c-0.6-0.7-1.4-1.1-2.3-1.1c-0.8-0.1-1.7,0.3-2.1,1C77,217.6,76.7,218.6,76.7,219.6z"/>
<path class="st1" d="M95.7,264.9c0,0.8,0,1.6-0.1,2.3c0,1-0.4,2-1.2,2.7c-0.7,0.6-1.6,0.9-2.5,0.8c-0.9-0.1-1.7-0.5-2.2-1.2
	c-0.6-0.7-0.9-1.7-0.8-2.7c0.1-2.1,0.2-4.3,0.3-6.5c0.1-2.2,0.2-4.3,0.3-6.5c0.2-2.7,0.4-5.4,0.6-8.2c0.2-2.8,0.4-5.5,0.6-8.1
	c0-0.7,0.1-1.4,0.2-2.1c0.1-0.7,0.6-1.3,1.2-1.7c0.6-0.3,1.3-0.4,2-0.4c0.7,0,1.4,0.2,2.1,0.5c0.6,0.2,0.9,0.8,0.9,1.4
	c0.1,1.1,0.1,2.3,0,3.4c-0.1,1.1-0.2,2.3-0.2,3.4c-0.1,0.6-0.1,1.2-0.1,1.7c0,0.5-0.1,1.1-0.1,1.7c-0.1,0.9-0.2,1.5-0.2,1.9
	s0,0.6,0.3,0.6c0.7-0.2,1.4-0.5,2-0.8c1.7-0.9,3.7-1.4,5.7-1.4c1.9,0,3.7,0.1,5.5,0.5c2.1,0.3,4,1.4,5.4,3.1
	c1.3,1.7,2.1,3.8,2.5,5.9c0.4,2,0.6,3.9,0.7,5.9c0.1,2,0.2,4,0.2,6c0,0.3,0,0.6-0.1,0.9c-0.1,0.3-0.2,0.6-0.4,0.9
	c-0.3,0.7-0.8,1.3-1.5,1.5c-0.7,0.2-1.4,0.3-2.1,0.2c-0.6,0-1.1-0.3-1.5-0.8c-0.3-0.4-0.4-0.9-0.4-1.4c0-1.6,0-3.1,0.1-4.6
	c0.1-1.5,0.1-3,0-4.6c0-3.9-1.9-6.2-5.8-6.9c-0.9-0.1-1.8-0.2-2.7-0.2c-0.9,0-1.9,0-2.8,0.2c-1.8,0.2-3.4,1.1-4.5,2.5
	c-1,1.5-1.4,3.3-1.3,5.1c0,0.5,0,1.3,0.1,2.5C95.6,263.4,95.6,264.1,95.7,264.9z M96.8,250c-0.4,0.2-0.9,0.1-1.3-0.1
	c-0.4-0.2-0.6-0.6-0.6-1.1v-1c0-0.3,0-0.7,0.1-1c0.1-1.7,0.2-3.5,0.3-5.2c0.1-1.7,0.2-3.4,0.2-5.1c0-0.4-0.2-0.8-0.5-1.1
	c-0.3-0.4-0.7-0.6-1.1-0.7c-0.4,0-0.8,0.2-1,0.5c-0.3,0.3-0.5,0.7-0.6,1.1c-0.2,0.5-0.3,0.9-0.3,1.4c0,0.5,0,1,0,1.5
	c-0.2,3.7-0.4,7.3-0.6,10.9c-0.2,3.6-0.3,7.2-0.5,10.9c0,1.2-0.1,2.4-0.1,3.6s0,2.4,0,3.5c0.1,0.4,0.2,0.7,0.5,1.1
	c0.2,0.4,0.6,0.6,1,0.6c1,0,1.6-0.9,1.7-2.6c0.1-1.7,0.1-3.2,0.1-4.8c0-1.6,0.1-3.2,0.3-4.8c0.2-1.9,1-3.7,2.4-5.1
	c1.5-1.2,3.4-1.9,5.3-2c1.4-0.1,2.9-0.1,4.3,0c2.1,0,4.1,0.7,5.7,2c1.4,1.5,2.2,3.4,2.3,5.4c0.1,1,0.1,2,0.1,3c-0.1,1-0.1,2-0.1,3
	c0,0.5-0.1,1-0.1,1.5c-0.1,0.7-0.2,1.3-0.2,2c0,0.6,0,1.2,0.2,1.8c0.1,0.5,0.5,0.8,1,0.8c1.2,0,1.8-0.7,1.8-2c0-1.6,0-3.3,0-5
	c0-1.7,0-3.4-0.1-5.1c-0.1-1.6-0.5-3.2-1.2-4.7c-0.7-1.5-1.8-2.9-3.2-3.8c-1.4-1-2.9-1.6-4.6-1.7c-1.7-0.1-3.5-0.1-5.2,0.2
	c-1,0.1-2,0.4-2.9,0.8C98.6,249.1,97.7,249.6,96.8,250z"/>
<path class="st2" d="M128.7,248.5c0.1,8.1,5.6,11.5,11.8,11.5c3.3,0.1,6.5-0.5,9.6-1.7l1.1,4.3c-3.7,1.4-7.6,2.1-11.5,2
	c-10.6,0-17-6.7-17-16.7c0-10,6.1-17.9,16.2-17.9c11.3,0,14.3,9.5,14.3,15.6c0,0.9-0.1,1.9-0.2,2.8L128.7,248.5z M147.1,244.2
	c0.1-3.8-1.6-9.8-8.7-9.8c-6.4,0-9.1,5.6-9.6,9.8H147.1z M148.6,216.5l-8.7,9.8h-4.5l6.3-9.8H148.6z"/>
<path class="st1" d="M170.1,217.9c0.7-0.4,1.4-0.6,2.2-0.7c1-0.2,2-0.2,3-0.1c1,0.1,2,0.2,3,0.6c0.8,0.2,1.5,0.7,2,1.4
	c0.6,0.7,0.9,1.6,1.1,2.5c0.2,0.8,0.1,1.7-0.2,2.5c-0.3,0.8-1,1.3-1.8,1.5c-0.5,0.1-1.2,0.3-2.1,0.5c-0.8,0.2-1.6,0.4-2.3,0.8
	c-0.7,0.3-1,0.7-1,1.3c0,2.4,0,4.7,0,7.1s0,4.7,0,7.1c0,0.2,0,0.4,0,0.7c0,0.3,0.1,0.6,0.4,0.8c0.5,0.3,1.1,0.4,1.6,0.3
	c2.2,0,4.2,0,6,0.1c1.8,0.1,3.6,0.1,5.6,0.1c0.8,0,1.6,0.2,2.3,0.6c0.6,0.4,1,1.2,1,1.9c0.1,0.9,0,1.8-0.2,2.6
	c-0.2,0.9-1,1.5-1.9,1.4c-1.6,0-3.2,0-4.9-0.1l-5-0.3c-1.2-0.2-2.4-0.2-3.6,0c-0.9,0.1-1.8,0.6-2.4,1.4c-0.7,1.2-1,2.5-1,3.8
	c0,1.6-0.1,3-0.2,4.4s-0.2,2.9-0.3,4.4c0,0.7-0.1,1.5-0.2,2.2s-0.2,1.4-0.4,2.1c-0.2,0.9-0.8,1.6-1.6,2c-0.9,0.4-1.8,0.5-2.8,0.5
	c-0.8,0-1.6-0.3-2.2-0.9c-0.5-0.6-0.8-1.3-0.8-2c0-0.9-0.1-1.9,0-2.8c0.1-1,0.1-1.9,0.1-2.8c0.1-1.7,0.3-3.4,0.5-5s0.4-3.3,0.6-5
	c0.1-0.7-0.1-1.4-0.8-1.9c-0.7-0.4-1.4-0.7-2.2-0.7c-0.9-0.1-1.8-0.3-2.6-0.7c-0.8-0.4-1.3-1.3-1.3-2.2c0-0.9,0.3-1.9,1-2.5
	c0.8-0.8,1.8-1.2,2.9-1.2c1.2,0,2.1,0,2.6,0c0.5,0,0.9-0.2,1.1-0.7c0.2-0.8,0.3-1.5,0.3-2.3c0.1-3,0.2-5.9,0.4-8.9
	c0.2-3,0.4-5.9,0.5-8.8c0-1.1,0.4-2.1,1.1-2.9C168.3,219.1,169.1,218.4,170.1,217.9z M172.2,227.9c0-1.1,0.4-2.1,1.2-2.8
	c0.7-0.5,1.6-0.9,2.5-1c0.9-0.1,1.8-0.3,2.5-0.4c0.7-0.1,1.1-0.4,1.1-0.9c0.3-1.4-0.3-2.9-1.6-3.6c-1.3-0.7-3.1-0.8-5.5-0.4
	c-1,0.2-1.9,0.7-2.6,1.5c-0.7,0.7-1.2,1.7-1.2,2.7c-0.1,2.9-0.2,5.8-0.4,8.8c-0.2,2.9-0.3,5.9-0.4,8.8c0,1-0.1,2-0.4,3
	c-0.2,0.6-0.8,1.1-1.4,1.2c-1.1,0.2-2.1,0.2-3.2,0.1c-0.7-0.1-1.4,0-2,0.2c-0.6,0.3-1,1-1,1.7c0,0.9,0.2,1.4,0.9,1.5
	c0.6,0.2,1.3,0.3,1.9,0.3c1,0,1.9,0,2.9,0.2c0.6,0.1,1,0.5,1.2,1.1c0.2,0.9,0.2,1.7,0,2.6c-0.2,2.5-0.4,4.9-0.6,7.4
	s-0.4,4.9-0.6,7.3c-0.1,0.5,0,1.1,0.3,1.6c0.4,0.5,0.9,0.8,1.5,0.8c0.6,0.1,1.1-0.1,1.5-0.6c0.3-0.5,0.5-1.1,0.6-1.8
	c0.1-0.7,0.2-1.4,0.2-2.1c0-0.7,0-1.2,0-1.5c0.1-1.7,0.2-3.4,0.2-5.1c0-1.7,0.2-3.3,0.4-5c0.1-1.5,0.8-3,2-4c1.3-0.8,2.9-1.2,4.4-1
	c1.5,0,2.9,0.1,4.4,0.3c1.4,0.2,2.8,0.3,4.3,0.3c1.2,0.1,2.4,0,3.6-0.3c0.6-0.2,0.8-1,0.7-2.2c0-0.3-0.2-0.7-0.4-0.9
	c-0.2-0.1-0.5-0.3-0.7-0.3c-0.4-0.1-0.8-0.1-1.2-0.1c-0.4,0-0.8,0-1.2-0.1c-1.9,0-3.9,0-5.9-0.1l-5.9-0.2c-1.6,0-2.3-0.8-2.2-2.2
	c0-0.5,0-1.4,0.1-2.7c0.1-1.3,0.1-2.8,0.1-4.4c0-1.6,0.1-3.2,0.1-4.6C172.1,229.8,172.2,228.7,172.2,227.9L172.2,227.9z"/>
<path class="st1" d="M200.7,239.8c0.1-1.2,0.6-2.4,1.5-3.3c0.8-0.6,1.8-0.8,2.8-0.7c1.2,0.1,2.3,0.7,3,1.6c0.7,1.1,1.1,2.3,1,3.6
	c-0.1,2.7-0.1,5.5,0,8.2c0.1,2.8,0.1,5.5,0,8.2c0,1.6-0.1,3.2-0.2,4.7s-0.2,3.1-0.3,4.7c0,1.1-0.5,2.2-1.4,3
	c-0.8,0.8-1.8,1.3-2.9,1.4c-1,0.2-2.1-0.2-2.8-1c-0.5-0.8-0.9-1.7-1.1-2.6c-0.2-0.8-0.3-1.7-0.4-2.5c-0.1-0.9-0.1-1.7-0.1-2.6
	c-0.1-1.4-0.1-2.8-0.1-4.2v-4.2c0-2.1,0.1-3.9,0.2-5.4c0.1-1.6,0.2-3.2,0.3-4.8S200.5,241,200.7,239.8z M200,219.6
	c0-1.5,0.5-2.9,1.5-4c0.8-1,2.1-1.6,3.4-1.5c0.9,0,1.7,0.3,2.4,0.8c0.8,0.5,1.5,1.1,2,1.9c0.5,0.7,0.8,1.5,0.8,2.4
	c0,1-0.2,1.9-0.8,2.7c-0.6,0.9-1.3,1.6-2.1,2.1c-0.8,0.5-1.7,0.8-2.7,0.9c-1.2,0-2.4-0.5-3.1-1.4C200.4,222.3,199.9,220.9,200,219.6
	z M206.7,244.6c0-0.8,0-1.6,0-2.3c0-0.8,0-1.5-0.1-2.3c-0.1-0.3-0.3-0.7-0.5-0.9c-0.2-0.3-0.5-0.5-0.9-0.5c-0.2-0.1-0.5-0.2-0.7-0.2
	c-0.4-0.1-0.8-0.1-1.2,0c-0.5,0.1-0.9,0.5-1.1,1c-0.3,0.9-0.5,1.9-0.4,2.8c0.1,2.4,0.1,4.7,0.1,7c0,2.3,0,4.7-0.1,7.1
	c-0.1,1.6-0.1,3.3-0.1,5.1s0,3.6,0.1,5.1c0.1,0.5,0.1,1,0.1,1.6c0,0.5,0.2,1.1,0.5,1.5c0.4,0.5,1,0.7,1.6,0.6c0.6,0,1.1-0.2,1.5-0.7
	c0.3-0.5,0.5-1,0.5-1.5c0.1-0.5,0.1-1,0.1-1.6c0-1.4,0-3.1,0-5s0-3.8,0.1-5.8s0.1-3.7,0.1-5.4c0-1.7,0-3,0.1-4
	C206.5,245.6,206.6,245.1,206.7,244.6L206.7,244.6z M201.8,219.6c-0.1,2.3,0.8,3.4,2.4,3.5c1,0.1,2-0.3,2.8-1.1
	c0.8-0.7,1.2-1.7,1.2-2.7c0-0.9-0.4-1.8-1-2.5c-0.6-0.7-1.4-1.1-2.3-1.1c-0.8-0.1-1.7,0.3-2.1,1
	C202.2,217.6,201.8,218.6,201.8,219.6L201.8,219.6z"/>
<path class="st1" d="M228.1,246.7c-0.1,2.3,0,4.7,0.1,7c0.1,2.3,0.1,4.6,0,6.9c0,1.3-0.2,2.6-0.4,3.8c-0.3,1.3-0.6,2.5-1.1,3.8
	c-0.2,0.5-0.6,1-1,1.4c-0.5,0.5-1.1,1-1.8,1.5c-0.5,0.4-1.1,0.6-1.7,0.7c-0.7,0-1.4-0.2-2-0.6c-0.7-0.4-1.3-0.9-1.7-1.5
	c-0.5-0.7-0.9-1.5-1.1-2.3c-0.3-0.8-0.4-1.6-0.4-2.5c0.1-4.2,0.1-8.4,0.2-12.7c0.1-4.2,0.2-8.5,0.4-12.8c0.1-2.4,0.2-4.8,0.3-7.3
	s0.2-4.9,0.4-7.3c0.1-1.5,0.3-2.9,0.5-4.4c0.2-1.5,0.4-3,0.7-4.4c0.1-1,0.7-2,1.5-2.5c1.1-0.6,2.4-0.8,3.7-0.6c1-0.1,1.9,0.3,2.6,1
	c0.6,0.7,0.9,1.6,0.9,2.6c0,1.3,0,2.6,0,3.8s0,2.6,0,3.8c0,2.1,0,4.1,0,5.8c0,1.7,0,3.6,0,5.6v6
	C228.1,243.4,228.1,245.2,228.1,246.7z M225.9,229c0-1.6-0.1-3.1-0.1-4.3v-7.2c0-0.7-0.2-1.4-0.5-2.1c-0.4-0.6-1.2-0.9-1.9-0.6
	c-0.5,0.2-1,0.5-1.4,1c-0.4,0.4-0.7,1-0.9,1.6c-0.3,1.1-0.5,2.2-0.5,3.2c0,1.1-0.1,2.2-0.1,3.3c-0.2,3.3-0.4,6.7-0.5,10
	c-0.2,3.3-0.3,6.6-0.5,10c-0.1,3.6-0.3,7.2-0.4,10.8s-0.2,7.2-0.3,10.8c0,0.6,0.1,1.1,0.3,1.7c0.2,0.5,0.5,1,0.8,1.5
	c0.4,0.8,1.3,1.3,2.2,1.3c0.9-0.1,1.6-0.7,1.9-1.5c0.7-1.4,1.1-3,1.4-4.6c0.2-1.5,0.4-3,0.4-4.5c0-1.4,0.1-2.4,0.1-2.9
	c0.2-4.8,0.2-9.4,0-13.8C225.7,238.4,225.7,233.8,225.9,229L225.9,229z"/>
<path class="st1" d="M259.4,250.2c0.2,2.7,0,5.4-0.8,8c-0.8,2.4-1.8,4.8-3,7.1c-1.1,2.1-2.8,3.7-4.8,4.9c-2,1.1-4.3,1.4-6.5,1.1
	c-2.7-0.3-5.2-1.3-7.3-2.9c-1.9-1.5-3.2-3.7-3.6-6.1c-0.4-2.1-0.6-4.2-0.6-6.3c0-2.1,0.2-4.3,0.7-6.3c0.3-1.1,0.6-2.2,0.8-3.2
	c0.2-1,0.5-2,0.9-3c0.6-2.5,2.2-4.6,4.3-6c2.2-1.4,4.9-1.9,7.5-1.5c0.8,0,1.5,0.2,2.3,0.3l2.2,0.6c1.6,0.4,3.1,1.2,4.4,2.3
	c1.2,1.1,1.9,2.5,2.2,4.1c0.3,1.3,0.7,2.6,1,3.8C259.2,247.9,259.4,249.1,259.4,250.2z M235.5,251.7c-0.1,1.2-0.2,2.5-0.3,3.8
	c0,1.3-0.1,2.6-0.1,3.9c0,2.8,1.1,5.5,3.1,7.5c1,1.1,2.2,1.9,3.6,2.3c1.4,0.5,3,0.7,4.5,0.6c1.5-0.1,2.9-0.5,4.3-1.1
	c1.3-0.6,2.3-1.6,3-2.8c1.5-2.8,2.7-5.8,3.4-8.9c0.7-3.1,0.8-6.3,0.1-9.4c-0.3-1.9-0.9-3.8-1.9-5.5c-0.8-1.6-2.1-2.9-3.7-3.7
	c-2-0.9-4.3-1.3-6.5-1c-1.6,0-3.1,0.5-4.5,1.4c-1.3,0.9-2.3,2.1-3,3.5c-0.2,0.5-0.5,1-0.6,1.5c-0.2,0.6-0.4,1.1-0.6,1.7
	c-0.2,0.6-0.3,1.3-0.4,1.9c-0.1,0.9-0.2,1.7-0.3,2.6S235.6,251.4,235.5,251.7z M254.8,250.3c0.1,2.6-0.1,5.2-0.7,7.7
	c-0.6,2.5-1.6,5-3.1,7.1c-0.7,1.1-1.6,1.9-2.8,2.4c-1.4,0.4-2.8,0.5-4.2,0.2c-1.4-0.2-2.8-0.8-3.9-1.7c-1-0.8-1.7-1.9-1.9-3.1
	c-0.7-3.3-0.8-6.6-0.4-9.9c0.4-3.3,1.3-6.6,2.5-9.7c0.7-2.1,2.7-3.4,4.9-3.3h1.9c0.6,0,1.2,0,1.8,0.1c1.3,0.1,2.6,0.7,3.5,1.7
	c0.8,0.8,1.4,1.9,1.8,3c0.3,1,0.5,2.1,0.6,3.2C254.8,249,254.8,249.7,254.8,250.3L254.8,250.3z M253.3,250.2c-0.1-1-0.2-1.9-0.4-2.8
	c-0.2-1.1-0.5-2.1-1-3.1c-0.5-1-1.2-1.8-2.1-2.3c-1-0.6-2.3-0.9-3.5-0.6c-1.2,0.2-2.4,0.8-3.3,1.6c-1,0.8-1.7,1.8-2,3
	c-0.7,2.5-1.2,5.1-1.5,7.8c-0.2,2.7-0.2,5.3,0.1,8c0.1,0.9,0.3,1.8,0.8,2.5c0.6,0.7,1.3,1.2,2.2,1.6c1,0.4,2.1,0.6,3.1,0.5
	c1-0.1,2-0.5,2.7-1.2c0.6-0.6,1.1-1.3,1.6-2c0.4-0.7,0.7-1.5,1-2.3c0.5-1.6,1.1-3.3,1.7-5.1C253.3,253.9,253.5,252,253.3,250.2
	L253.3,250.2z"/>
<path class="st1" d="M264.3,266.7c-0.7-0.8-1.2-1.8-1.6-2.8c-0.4-1-0.9-2-1.3-3c-0.2-0.5-0.2-1-0.1-1.5c0-0.5,0.1-1.1,0.3-1.6
	c0.2-0.6,0.7-1.1,1.4-1.3c0.6-0.2,1.3-0.3,2-0.1c1.2,0.1,2.2,1.2,2.1,2.4c0.3,3.2,2.5,5.8,5.6,6.5l2.6,0.5c0.9,0.1,1.8,0.2,2.7,0.3
	c1.2,0,2.4-0.4,3.4-1.1c0.9-0.5,1.6-1.3,1.9-2.3c0.3-0.8,0.2-1.7-0.2-2.5c-0.6-0.9-1.3-1.8-2-2.6c-0.2-0.2-0.8-0.6-1.7-1.3l-3.3-2.4
	c-1.2-0.9-2.5-1.8-3.7-2.7c-1-0.7-1.9-1.5-2.8-2.4c-1.5-1.5-2.5-3.4-2.8-5.5c-0.3-2.1-0.1-4.2,0.5-6.2c0.3-0.8,0.6-1.5,1.1-2.1
	c0.5-0.6,1.1-1.2,1.7-1.6c2-1.3,4.2-2.1,6.5-2.5c2.3-0.3,4.7-0.1,6.9,0.7c1.9,0.6,3.5,1.8,4.5,3.4c1.1,1.6,1.5,3.6,1.2,5.5
	c0,0.7-0.3,1.3-0.7,1.8c-0.5,0.5-1.2,0.8-1.9,0.9c-0.6,0.1-1.3-0.1-1.8-0.5c-0.5-0.4-0.8-1-1-1.6c0-0.2-0.1-0.3-0.1-0.5
	c-0.1-0.2-0.1-0.3-0.1-0.5c-0.2-0.9-0.6-1.8-1.2-2.5c-0.6-0.7-1.4-1.3-2.3-1.4c-1.1-0.3-2.3-0.3-3.3,0.1c-1,0.4-1.9,1-2.6,1.9
	c-0.4,0.5-0.7,1.1-0.9,1.7c-0.2,0.6-0.2,1.2-0.1,1.8c0.3,0.9,0.7,1.8,1.1,2.6c0.4,0.8,1,1.6,1.7,2.3c2.2,2,4.6,3.7,7.1,5.1
	c2.1,1,3.8,2.6,5,4.6c1.1,1.9,1.7,4,1.8,6.2c0.1,1.1-0.2,2.3-0.8,3.3c-0.7,1.2-1.5,2.2-2.5,3.1c-1.1,0.9-2.3,1.7-3.6,2.3
	c-1.2,0.6-2.5,0.9-3.9,1c-1.8,0-3.7-0.1-5.5-0.3c-1.8-0.2-3.6-0.7-5.3-1.5C266.8,269.3,265.4,268.2,264.3,266.7z M271.3,240.8
	c0.2-1.4,0.8-2.8,1.9-3.8c1.9-2.2,4.9-3.1,7.7-2.3c1.3,0.2,2.4,0.9,3,2c0.5,1,0.9,2.1,1.2,3.2c0.1,0.4,0.3,0.9,0.5,1.4
	c0.1,0.5,0.5,0.8,1,0.8c0.5-0.1,1-0.3,1.3-0.8c0.3-0.5,0.3-1.4,0-2.8c-0.3-1.9-1.4-3.6-3-4.8c-1.7-1.2-3.8-1.7-5.9-1.6
	c-2.4-0.1-4.7,0.6-6.7,1.9c-1.8,1.2-3,3-3.5,5.1c-0.3,1.7-0.3,3.4,0.2,5.1c0.5,1.6,1.4,3.1,2.8,4.2c1.7,1.5,3.4,2.9,5.1,4.2
	c1.7,1.4,3.5,2.7,5.2,4c0.9,0.6,1.7,1.4,2.4,2.2c0.7,0.8,1.1,1.8,1.1,2.9c0,1.4-0.5,2.7-1.5,3.7c-1,1.2-2.4,2-3.9,2.3
	c-1.5,0.3-3.1,0.3-4.6,0c-1.5-0.3-2.9-0.7-4.3-1.3c-1.5-0.6-2.8-1.5-3.9-2.7c-1.1-1.2-1.8-2.7-2-4.2c-0.1-0.4-0.2-0.7-0.3-1.1
	c-0.2-0.4-0.4-0.6-0.7-0.6c-0.5-0.1-0.9,0.1-1.1,0.5c-0.3,0.4-0.4,0.9-0.4,1.4c0.2,1.1,0.4,2.1,0.9,3.1c0.4,1,1,1.9,1.7,2.7
	c2,2.3,4.7,3.9,7.7,4.5c3,0.5,6.1,0.5,9-0.3c2.1-0.5,3.9-1.8,5-3.6c1.9-3.3,1.6-7.4-0.9-10.3c-1.1-1.2-2.3-2.2-3.7-3
	c-1.3-0.8-2.6-1.7-3.9-2.5c-1.3-0.9-2.5-1.7-3.7-2.6c-1.1-0.8-2.1-1.9-2.9-3C271.2,243.5,271,242.1,271.3,240.8L271.3,240.8z"/>
<g id="_000000ff">
	<path d="M112.4-165.1l0.2-0.1l0,0L112.4-165.1z M95.9,2.8v180.6h106.6V2.8H95.9z M186.3,9.5c0.5-0.8,1.6-0.5,2.4-0.6
		c2.1,0.2,4.3-0.6,6.4,0c0.2,0.1,0.3,0.2,0.4,0.3l0.1,0.1c0,0,0,0.1,0.1,0.1c0,0,0,0.1,0,0.1c0,0.1,0.1,0.2,0.1,0.3
		c0.1,0.4,0,0.9,0.1,1.2c0,0.8,0.1,1.6,0,2.5c0,0.1,0,0.2,0,0.3c0,0.1,0,0.2,0,0.3c0,0.1-0.1,0.2-0.1,0.4s0,0.1,0,0.2
		c-0.1,0.3-0.2,0.6-0.4,0.9c-2.5,0-5,0-7.6,0l0,0c-0.5,0-1.2-0.2-1.3-0.7c0-0.1,0-0.2,0-0.3C186.2,12.8,186.2,11.1,186.3,9.5z
		 M186.3,27.7c0,0,0-0.1,0-0.1c0-0.1,0.1-0.3,0.2-0.4c0.4-0.4,1.3-0.3,1.8-0.3c2.1,0.1,4.3-0.1,6.4,0.1c0.3,0,0.5,0.2,0.7,0.4
		l0.1,0.1c0,0,0,0.1,0.1,0.1c0,0,0,0.1,0.1,0.1c0.1,0.4,0.1,0.8,0.2,1.2c0,0.4,0,0.7,0,1.1s0,0.6,0,0.9c0,0.3,0,0.6,0,0.8
		c0,0.2-0.1,0.4-0.1,0.5c0,0.2-0.1,0.4-0.2,0.5c0,0.1-0.1,0.2-0.1,0.3c-1.5,0.5-3.1,0.1-4.6,0.2c-1.4-0.1-3,0.3-4.3-0.3l0,0v-0.2
		l0,0C186.2,31.2,186.2,29.4,186.3,27.7L186.3,27.7z M186.3,82.5c0-0.3,0-0.5,0.1-0.8c0-0.1,0-0.1,0.1-0.2c0,0,0-0.1,0.1-0.1
		l0.1-0.1c0.1-0.1,0.2-0.1,0.3-0.1c2.1-0.2,4.3-0.3,6.4-0.2c0.7,0,1.4,0,2.1,0.2c0.1,0.2,0.2,0.4,0.3,0.6c0,0.1,0.1,0.2,0.1,0.2
		c0,0.1,0,0.2,0.1,0.2c0,0.2,0.1,0.3,0.1,0.5c0,0.3,0,0.7,0,1c0.1,1,0,2-0.2,2.9l0,0c-0.3,0.8-1.3,0.8-2.1,0.8c-1.8,0-3.6,0-5.4,0
		c-0.6-0.1-1.5-0.1-1.8-0.7l0,0C186.2,85.4,186.2,83.9,186.3,82.5L186.3,82.5z M195.9,48.5c0.1,1-0.1,2-0.6,2.9l0,0
		c-1.9,0.3-3.8,0.4-5.7,0.2c-0.9,0-1.8,0-2.7-0.1c-0.1-0.1-0.2-0.2-0.3-0.4c0-0.1-0.1-0.1-0.1-0.2c-0.1-0.1-0.1-0.3-0.1-0.5
		c0-0.1,0-0.1,0-0.2c0-0.5,0-1,0-1.5c0.1-1.3-0.3-2.7,0.5-3.8c2.1,0,4.1,0.1,6.2,0c0.8-0.1,1.6,0,2.4,0.3c0.5,1,0.3,2.2,0.3,3.3
		L195.9,48.5z M195.7,68.7c0,0.2-0.1,0.4-0.3,0.6c-0.1,0.1-0.1,0.1-0.2,0.1c-0.1,0.1-0.2,0.1-0.4,0.1c-0.3,0.1-0.5,0.1-0.8,0.1
		c-2.4-0.2-4.8-0.1-7.2-0.1l-0.6-0.5l0,0c0-1.6-0.1-3.3,0-4.9c0-0.1,0-0.2,0-0.2c0-0.1,0-0.1,0.1-0.2c0.1-0.2,0.3-0.3,0.4-0.4h0.1
		h0.1c0,0,0.1,0,0.1,0l0.3-0.1h0.4c2.2,0,4.5,0,6.8,0c0.3,0,0.6,0.1,0.8,0.3c0.1,0.1,0.1,0.1,0.1,0.2c0,0.1,0.1,0.2,0.1,0.2
		c0,0.1,0.1,0.1,0.1,0.2c0,0.1,0,0.1,0,0.2c0,0,0,0.1,0,0.1c0,0,0,0.1,0,0.1c0,0,0,0.1,0,0.1C195.8,65.9,195.8,67.3,195.7,68.7
		L195.7,68.7z M103.8,62.9h4.8c1.2,0,2.4,0,3.6,0c0.5,0.5,0.7,1.2,0.7,1.9c-0.1,1.6,0.2,3.2-0.4,4.7c-1.4,0.1-2.8,0.2-4.2,0.2
		c-1.1,0-2.1,0-3.2,0c-0.2,0-0.5-0.1-0.7-0.1c-0.1,0-0.2,0-0.3-0.1c-0.1,0-0.1,0-0.2-0.1c0,0-0.1,0-0.1-0.1c-0.1,0-0.1-0.1-0.2-0.1
		c-0.1,0-0.1-0.1-0.2-0.2c-0.1-0.8-0.1-1.5-0.1-2.3C103.4,65.5,103.1,64.1,103.8,62.9z M106.4,44.9L106.4,44.9c1,0,2,0,3,0h2.3
		c0.1,0,0.2,0,0.3,0c0,0,0.1,0,0.1,0l0,0c0,0,0.1,0,0.1,0l0,0l0.1,0.1c0,0,0.1,0,0.1,0.1c0,0,0,0,0.1,0.1l0,0c0,0,0.1,0.1,0.1,0.2
		c0.1,0.1,0.1,0.2,0.1,0.3v0.1c0,0.1,0.1,0.3,0.1,0.4c0.1,1.7,0.1,3.3-0.2,5c-0.2,0.1-0.5,0.1-0.7,0.2c-0.2,0-0.4,0.1-0.7,0.1
		c-0.5,0-1,0.1-1.5,0.1c-1.1,0-2.1-0.1-3.2,0H105c-0.2,0-0.4,0-0.5-0.1c-0.4-0.1-0.7-0.2-1-0.3c-0.2-1.7-0.3-3.4-0.1-5
		c0-0.3,0.2-0.7,0.5-0.8c0.1-0.1,0.3-0.1,0.4-0.2c0.2,0,0.3,0,0.5,0h0.3C105.5,44.9,105.9,44.9,106.4,44.9z M112.8,31.9
		c0,0.1,0,0.3,0,0.4c0,0,0,0.1,0,0.1c0,0.1,0,0.2-0.1,0.3c0,0.1-0.1,0.3-0.2,0.4c0,0.1-0.1,0.1-0.1,0.1c0,0-0.1,0.1-0.1,0.1l0,0l0,0
		h-0.1c0,0,0,0-0.1,0c-0.1,0-0.1,0-0.2,0c-2.2,0.1-4.5,0-6.8,0H105c-0.3,0-0.6,0-0.9-0.1c-0.1,0-0.1,0-0.2-0.1
		c-0.1-0.1-0.2-0.2-0.3-0.3c-0.2-1.4-0.2-2.8-0.2-4.1c0-0.2,0-0.4,0-0.6c0-0.1,0-0.2,0.1-0.4l0.1-0.2c0,0,0-0.1,0.1-0.1l0,0
		c0,0,0-0.1,0.1-0.1l0,0c0,0,0.1-0.1,0.1-0.1c0-0.1,0.1-0.1,0.2-0.1c0.1,0,0.1-0.1,0.2-0.1c1.7-0.1,3.5-0.2,5.2-0.1
		c1.1-0.1,2.2,0,3.3,0.3l0,0C112.9,28.7,112.9,30.3,112.8,31.9L112.8,31.9z M103.4,9.6c0,0,0-0.1,0.1-0.1c0,0,0.1-0.1,0.1-0.1l0,0
		c0.1-0.1,0.1-0.1,0.2-0.2h0.1c0.1,0,0.1-0.1,0.2-0.1c0.1,0,0.2-0.1,0.3-0.1c0.2,0,0.4,0,0.6,0c0.3,0,0.5,0,0.8,0c0.9,0,1.8,0,2.7,0
		s1.9,0,2.8,0h0.7h0.3h0.3l0,0c0,0.1,0.1,0.2,0.1,0.3c0,0.1,0.1,0.1,0.1,0.2c0,0.1,0,0.2,0.1,0.3c0,0.1,0.1,0.3,0.1,0.4
		c0.1,0.7,0,1.5,0,2.2c0,0.2,0,0.5,0,0.8c0,0.3,0,0.5,0,0.8c0,0.1,0,0.2,0,0.3l0,0c0,0.1-0.1,0.2-0.1,0.4c0,0.1-0.1,0.2-0.1,0.3
		c-0.1,0.1-0.1,0.2-0.2,0.3c-1.3,0.1-2.7,0.1-4.1,0.1c-0.9,0-1.9,0-2.8,0c-0.3,0-0.5,0-0.8,0h-0.2c-0.1,0-0.2,0-0.3-0.1l-0.2-0.1
		h-0.2l0,0c0,0-0.1-0.1-0.1-0.1c-0.1-0.1-0.2-0.3-0.2-0.5l0,0C103.3,12.9,103.3,11.2,103.4,9.6z M112.5,177.4
		c-1.2,0.7-2.7,0.5-4,0.5c-1.7-0.1-3.7,0.3-5.2-0.6c0-1.9,0-3.7,0-5.6c1.2-0.8,2.7-0.5,4.1-0.6c1.5-0.1,3.1,0,4.6,0.2
		c0.9,0.3,0.8,1.3,0.8,2C112.8,174.7,113,176.1,112.5,177.4z M112.9,157.6c0.1,0.7-0.1,1.3-0.5,1.9c-0.9,0.2-1.8,0.3-2.7,0.2h-1
		c-1.1,0-2.2,0-3.3,0c-0.3,0-0.7,0-1-0.1c-0.8,0-1-0.8-1-1.5c0-1.6-0.2-3.3,0.3-4.9l1-0.1c0.7,0,1.4,0,2.1,0h1.2
		c1.4,0,2.7,0,4.1,0.1l0,0c0.2,0,0.4,0.1,0.6,0.1l0,0C112.8,154.8,112.9,156.2,112.9,157.6z M112.9,139.9c-0.1,0.5,0.1,1.3-0.5,1.5
		l-0.3,0.1h-0.2c-0.2,0-0.4,0.1-0.6,0.1H111c-0.6,0-1.3,0-1.9,0c-1.9-0.1-3.9,0.4-5.8-0.4c-0.1-1.9,0-3.8,0.1-5.7
		c0.5-0.6,1.5-0.5,2.3-0.6c2.2-0.1,4.5,0,6.7,0.2C113.1,136.6,112.8,138.3,112.9,139.9L112.9,139.9z M103.4,118.2c0-0.1,0-0.1,0-0.2
		c0,0,0-0.1,0-0.2l0,0c0,0,0-0.1,0-0.1c0,0,0-0.1,0-0.1c0-0.1,0.1-0.1,0.1-0.2c0.1-0.1,0.2-0.1,0.3-0.2c0.1,0,0.1,0,0.2,0
		c1.2-0.1,2.5,0,3.7,0h0.7h0.9c0.4,0,0.8,0,1.2-0.1c0.5,0,0.9,0,1.3,0.1h0.2c0.2,0,0.4,0.2,0.5,0.3c0.1,0.1,0.1,0.1,0.1,0.2
		c0.1,0.1,0.1,0.2,0.1,0.3c0.1,1.3,0.1,2.6,0.1,3.9c0,0.4,0,0.7-0.2,1.1l-0.1,0.2c0,0.1-0.1,0.1-0.1,0.1c-0.1,0.1-0.2,0.2-0.4,0.3
		c-0.2,0.1-0.4,0.1-0.7,0.1c-0.5,0-1,0-1.6,0h-2.2c-0.8,0-1.7,0-2.5,0h-0.3c-0.4,0-0.9-0.1-1.3-0.2
		C103.3,121.8,103.3,120,103.4,118.2z M112.5,105.5c-2.4,0.2-4.9,0.1-7.3,0.1c-0.6-0.1-1.4,0.1-1.7-0.5c-0.1-1.8-0.2-3.6-0.1-5.3
		l0.8-0.8c2.5,0,5,0,7.5,0c0.7,0,1.3,0.7,1.3,1.4c0,0,0,0.1,0,0.1C112.8,102.1,113.1,103.9,112.5,105.5z M112.5,87.5
		c-2.3,0.2-4.7,0.1-7,0.1c-0.8,0.1-1.6-0.2-2.2-0.7c-0.1-1.8,0-3.6,0.1-5.4c0.5-0.8,1.5-0.7,2.3-0.7c1.9,0,3.8,0,5.6,0
		c0.6,0,1.5,0.2,1.5,1C112.8,83.8,113.1,85.7,112.5,87.5L112.5,87.5z M180.8,181.4c-21.1,0.1-42.3,0-63.4,0c0-4.7,0-9.3,0-14
		c0-11.2,0-22.5,0-33.8c0.2-5.9,0-11.8,0-17.7c0.1-4,0-8.1,0-12.1c0-2.4,0.1-4.8,0-7.2c0.8,0,1.6-0.1,2.5-0.1h50.3
		c3.5,0,7.1-0.1,10.6,0.1C180.7,124.9,180.7,153.2,180.8,181.4z M180.8,91.4c-21.1,0.1-42.3,0.1-63.4,0c0-5.7-0.1-11.4,0-17.1
		c-0.1-16.8,0-33.6,0-50.3c0-5.8,0-11.6,0-17.4c4.1-0.2,8.2-0.3,12.3-0.2c7.3-0.1,14.6,0.4,21.9,0c7.5,0,15-0.1,22.5,0.1
		c2.2,0,4.4-0.1,6.7,0.1C180.7,34.9,180.7,63.2,180.8,91.4L180.8,91.4z M195.8,174.9c0,0.1,0,0.3,0,0.4s0,0.2,0,0.3
		c0,0.6-0.2,1.2-0.5,1.8l0,0c-0.9,0.3-1.8,0.4-2.8,0.3l-5-0.1c-0.3,0-0.6-0.1-0.8-0.2c-0.1,0-0.1-0.1-0.1-0.1
		c-0.1-0.1-0.2-0.2-0.2-0.3c0-0.1-0.1-0.1-0.1-0.2c-0.2-1.6-0.2-3.2,0-4.8c0-0.2,0.1-0.4,0.3-0.5c0.5-0.5,1.4-0.4,2.1-0.4
		c2,0.1,4.1-0.1,6.1,0.1c0.3,0.1,0.5,0.2,0.7,0.5c0,0.1,0.1,0.1,0.1,0.2c0,0,0,0.1,0,0.1c0,0.1,0.1,0.2,0.1,0.2
		c0,0.2,0.1,0.4,0.1,0.5c0,0.3,0,0.6,0,0.8C195.8,174,195.8,174.5,195.8,174.9z M195.8,157.6c0,0.4-0.1,0.9-0.2,1.3
		c-0.1,0.2-0.1,0.4-0.2,0.6c-2,0.4-4.1,0.1-6.1,0.2c-0.8-0.1-1.8,0.1-2.5-0.3c-0.1-0.1-0.3-0.2-0.4-0.3c-0.2-1.8-0.2-3.5-0.1-5.3
		l0.6-0.5c2.6-0.1,5.2-0.1,7.8,0c0.3,0,0.6,0.1,0.8,0.3c0,0,0.1,0.1,0.1,0.1c0.1,0.1,0.1,0.2,0.1,0.3l0,0c0,0,0,0.1,0,0.1
		c0,0.1,0.1,0.2,0.1,0.3v0.2c0,0.2,0,0.4,0,0.6c0,0.7,0.1,1.5,0,2.3C195.7,157.4,195.7,157.5,195.8,157.6L195.8,157.6z M195.5,140.9
		c0,0.1-0.1,0.2-0.1,0.3l0,0c-0.1,0.2-0.2,0.3-0.4,0.4c-0.4,0.2-0.9,0.3-1.3,0.3c-1.9,0-3.7,0-5.6,0c-0.7,0-1.6-0.1-1.8-0.9l0,0
		c-0.1-1.4-0.2-2.7-0.1-4.1c0-0.4,0-1,0.2-1.3c0,0,0,0,0.1-0.1c0.1-0.1,0.1-0.1,0.2-0.1h0.1c1.9-0.2,3.9-0.3,5.8-0.2
		c1-0.1,2,0.1,2.9,0.5C195.9,137.3,195.9,139.1,195.5,140.9L195.5,140.9z M195.6,122.9L195.6,122.9c0,0.1,0,0.1-0.1,0.2
		c0,0.1-0.1,0.1-0.1,0.2c-0.1,0.1-0.1,0.1-0.2,0.1c-0.1,0-0.1,0.1-0.2,0.1c-0.1,0-0.1,0-0.2,0.1l0,0c-0.2,0-0.5,0.1-0.7,0.1
		c-2.1,0-4.1,0-6.2,0c-0.1,0-0.3,0-0.4,0c-0.2,0-0.3-0.1-0.5-0.1c-0.2-0.1-0.4-0.2-0.6-0.4c0-0.1-0.1-0.1-0.1-0.2c0-0.1,0-0.2,0-0.2
		c-0.1-1.8,0-3.5,0-5.3c1.3-0.4,2.7-0.5,4.1-0.3c1.5,0.2,3-0.1,4.5,0c0.4,0,0.7,0.3,0.8,0.6c0.1,0.2,0.1,0.3,0.1,0.5
		c0,0.2,0,0.3,0,0.5C195.9,120.1,195.8,121.5,195.6,122.9L195.6,122.9z M195.5,105.4L195.5,105.4c-2,0.5-4,0.1-6,0.2
		c-1.1-0.1-2.3,0.2-3.2-0.5l0,0c-0.3-1.8,0-3.6-0.1-5.4c0.6-0.4,1.4-0.7,2.2-0.6c2.3-0.1,4.7,0,7,0.2
		C195.9,101.3,195.9,103.3,195.5,105.4L195.5,105.4z"/>
</g>
<path class="st1" d="M103.3,177.2c0-1.9,0-3.7,0-5.6c1.2-0.8,2.7-0.5,4.1-0.6c1.5-0.1,3.1,0,4.6,0.2c0.9,0.3,0.8,1.3,0.8,2
	c-0.1,1.4,0.2,2.8-0.3,4.1c-1.2,0.7-2.7,0.4-4,0.5C106.8,177.8,104.9,178.2,103.3,177.2z"/>
<path class="st1" d="M103.3,141.2c-0.1-1.9,0-3.8,0.1-5.7c0.5-0.6,1.5-0.5,2.3-0.6c2.2-0.1,4.5,0,6.7,0.2c0.6,1.5,0.3,3.1,0.4,4.7
	c-0.1,0.5,0.1,1.3-0.5,1.5c-1,0.3-2.1,0.3-3.2,0.2C107.2,141.5,105.2,141.9,103.3,141.2z"/>
<path class="st1" d="M103.4,105.1c-0.1-1.8-0.2-3.6-0.1-5.3l0.8-0.8c2.5,0,5,0,7.4,0c0.7,0,1.3,0.7,1.3,1.4c0,0,0,0.1,0,0.1
	c0,1.7,0.3,3.4-0.4,5c-2.4,0.2-4.9,0.1-7.3,0.1C104.6,105.5,103.8,105.7,103.4,105.1z"/>
<path class="st1" d="M103.3,87c-0.1-1.8,0-3.6,0.1-5.4c0.5-0.8,1.5-0.7,2.3-0.7c1.9,0,3.8,0,5.6,0c0.6,0,1.5,0.2,1.5,1
	c0,1.8,0.3,3.8-0.3,5.6c-2.3,0.2-4.7,0.1-7,0.1C104.7,87.7,104,87.4,103.3,87L103.3,87z"/>
<path class="st1" d="M103.4,69.1c-0.1-0.8-0.1-1.5-0.1-2.3c0-1.3-0.2-2.7,0.5-3.8c2.8,0,5.6,0,8.4,0c0.5,0.5,0.7,1.2,0.7,1.9
	c-0.1,1.6,0.2,3.2-0.4,4.7c-2.4,0.2-4.9,0.2-7.3,0.1C104.6,69.5,103.8,69.6,103.4,69.1L103.4,69.1z"/>
<path class="st1" d="M103.4,14.6c-0.2-1.7-0.2-3.3,0-5c0.4-0.9,1.5-0.6,2.4-0.6c2.3,0.1,4.6-0.1,6.8,0.1c0.3,1.1,0.4,2.3,0.3,3.4
	c0,1,0.1,2.1-0.6,2.9c-2.3,0.2-4.6,0-6.9,0.1C104.8,15.5,103.6,15.6,103.4,14.6L103.4,14.6z"/>
<path class="st1" d="M104.3,159.6c-0.8,0-1-0.8-1-1.5c0-1.6-0.2-3.3,0.3-4.9c1.4-0.1,2.9-0.1,4.3-0.1c1.6-0.1,3.1,0,4.7,0.2
	c0.2,1.4,0.2,2.8,0.2,4.2c0.1,0.7-0.1,1.3-0.5,1.9c-0.9,0.2-1.8,0.3-2.7,0.2C107.9,159.6,106.1,159.8,104.3,159.6z"/>
<path class="st1" d="M103.5,123.5c-0.1-1.8-0.2-3.5-0.1-5.3c0-0.5,0.2-1.1,0.7-1c2.1-0.1,4.3,0,6.4-0.1c0.8,0,2.1-0.1,2.3,0.9
	c0.1,1.3,0.1,2.6,0.1,3.9c0,0.6-0.1,1.4-0.7,1.6c-0.8,0.2-1.6,0.2-2.4,0.2C107.6,123.8,105.5,123.7,103.5,123.5L103.5,123.5z"/>
<path class="st1" d="M103.5,51.2c-0.2-1.7-0.3-3.5-0.2-5.2c0-0.9,1-1.1,1.7-1c2.2,0.1,4.4,0,6.6,0c0.7-0.1,1.1,0.6,1.2,1.3
	c0.1,1.7,0.1,3.3-0.1,5c-2,0.6-4.1,0.2-6.1,0.3C105.6,51.7,104.5,51.5,103.5,51.2L103.5,51.2z"/>
<path class="st1" d="M103.5,32.9c-0.2-1.4-0.2-2.8-0.2-4.1c0-0.7,0-1.6,0.8-1.8c1.7-0.1,3.5-0.2,5.2-0.1c1.1-0.1,2.2,0,3.3,0.3
	c0.2,1.6,0.3,3.1,0.2,4.7c0,0.6-0.1,1.5-0.9,1.5c-2.2,0.1-4.5,0-6.8,0C104.6,33.4,103.8,33.5,103.5,32.9L103.5,32.9z"/>
<path class="st1" d="M186.3,176.9c-0.2-1.6-0.2-3.2,0-4.8c0.3-1.1,1.5-0.9,2.4-0.9c2,0.1,4.1-0.1,6.1,0.1c1,0.3,1,1.5,1,2.4
	c-0.1,1.3,0.2,2.7-0.5,3.8c-0.9,0.3-1.8,0.4-2.8,0.3l-5-0.1C187,177.7,186.5,177.4,186.3,176.9z"/>
<path class="st1" d="M186.4,159.1c-0.2-1.8-0.2-3.5-0.1-5.3l0.6-0.5c2.6-0.1,5.2-0.1,7.8,0c1-0.1,1.2,1.1,1.2,1.9
	c0,1.5,0.2,3.1-0.4,4.4c-2,0.4-4.1,0.1-6.1,0.2C188.3,159.6,187.1,159.9,186.4,159.1z"/>
<path class="st1" d="M186.3,140.9c-0.1-1.4-0.2-2.7-0.1-4.1c0-0.5-0.1-1.4,0.6-1.5c1.9-0.2,3.9-0.3,5.8-0.2c1-0.1,2,0.1,2.9,0.5
	c0.4,1.7,0.4,3.6,0,5.3c-0.2,0.8-1.1,0.9-1.8,0.9c-1.9,0-3.8,0-5.6,0C187.5,141.7,186.6,141.6,186.3,140.9z"/>
<path class="st1" d="M187.8,123.6c-0.6,0-1.5-0.2-1.6-1c-0.1-1.8,0-3.5,0-5.3c1.3-0.4,2.7-0.5,4.1-0.3c1.5,0.2,3-0.2,4.5,0
	c0.8,0.1,0.9,1,0.9,1.7c0.1,1.4,0.1,2.8-0.1,4.1c-0.2,0.7-1,0.7-1.6,0.8C192,123.7,189.9,123.7,187.8,123.6z"/>
<path class="st1" d="M186.4,105.1c-0.2-1.8-0.2-3.6-0.1-5.4c0.6-0.4,1.4-0.7,2.2-0.6c2.3-0.1,4.7,0,7,0.2c0.5,2,0.5,4.1,0.1,6.2
	c-2,0.5-4,0.1-6,0.2C188.5,105.5,187.2,105.8,186.4,105.1z"/>
<path class="st1" d="M186.3,86.9c-0.1-1.5-0.1-2.9-0.1-4.4c0-0.4,0-1.2,0.6-1.3c2.1-0.2,4.2-0.3,6.4-0.2c0.7,0,1.4,0,2.1,0.2
	c0.4,0.8,0.6,1.8,0.5,2.7c0.1,1,0,2-0.2,2.9c-0.3,0.8-1.3,0.8-2.1,0.8c-1.8,0-3.6,0-5.4,0C187.5,87.7,186.6,87.6,186.3,86.9
	L186.3,86.9z"/>
<path class="st1" d="M186.3,68.9c0-1.6-0.1-3.3,0-4.9c0-0.8,0.9-1.1,1.6-1.1h6.8c0.8-0.1,1.1,0.9,1.2,1.6c0.1,1.4,0.1,2.8-0.1,4.2
	c-0.1,0.8-1,0.9-1.6,0.9c-2.4-0.2-4.8-0.1-7.2-0.1L186.3,68.9z"/>
<path class="st1" d="M186.8,51.4c-0.8-0.6-0.6-1.8-0.6-2.7c0.1-1.3-0.3-2.7,0.5-3.8c2.1,0,4.2,0.1,6.2,0c0.8-0.1,1.6,0,2.4,0.3
	c0.6,1,0.4,2.2,0.5,3.3s0.1,2-0.6,2.9c-1.9,0.3-3.8,0.4-5.7,0.2C188.6,51.5,187.7,51.5,186.8,51.4L186.8,51.4z"/>
<path class="st1" d="M186.3,32.9c-0.1-1.7-0.1-3.4,0-5.2c0.1-1,1.4-0.8,2.1-0.8c2.1,0.1,4.3-0.1,6.4,0.1c1,0.1,0.9,1.4,1,2.1
	c0,1.4,0.3,2.9-0.4,4.1c-1.5,0.5-3.1,0.1-4.6,0.2c-1.4-0.1-3,0.3-4.3-0.3L186.3,32.9L186.3,32.9z"/>
<path class="st1" d="M187.6,15.4c-0.6,0-1.4-0.3-1.3-1c-0.1-1.6-0.1-3.3,0.1-4.9c0.5-0.8,1.6-0.5,2.4-0.6c2.1,0.2,4.3-0.6,6.4,0
	c0.9,0.3,0.7,1.4,0.8,2.1c-0.1,1.5,0.3,3.1-0.6,4.4C192.6,15.4,190.2,15.4,187.6,15.4L187.6,15.4z"/>
</svg>
